<?xml version="1.0" encoding="UTF-8" standalone="no"?><!DOCTYPE svg PUBLIC "-//W3C//DTD SVG 1.1//EN" "http://www.w3.org/Graphics/SVG/1.1/DTD/svg11.dtd"><svg width="100%" height="100%" viewBox="0 0 1267 320" version="1.1" xmlns="http://www.w3.org/2000/svg" xmlns:xlink="http://www.w3.org/1999/xlink" xml:space="preserve" xmlns:serif="http://www.serif.com/" style="fill-rule:evenodd;clip-rule:evenodd;stroke-linejoin:round;stroke-miterlimit:2;"><g id="image"><g id="logo"><path id="path1" d="M1.62,214.642l-0.012,-211.064l68.861,-0l74.754,83.498l77.052,-83.548l69.066,-0.065l0.354,210.327l-109.827,104.4l-1.163,-66.039l53.666,-57.289l-0.13,-119.383l-88.349,97.018l-87.846,-98.302l0.365,120.176l52.528,57.573l-0.513,66.246l-108.806,-103.548Z" style="fill:url(#_Linear1);fill-rule:nonzero;stroke:url(#_Linear2);stroke-width:3.22px;"/></g><g id="merlin"><path id="merlin-text" d="M542.929,214.02l-34.143,-0l-0,-162.555l-51.419,162.555l-17.548,-0l-51.692,-162.555l0,162.555l-27.342,-0l0,-185.681l52.372,0l38.904,119.571l38.225,-119.571l52.643,0l0,185.681Z" style="fill:url(#_Linear3);fill-rule:nonzero;stroke:url(#_Linear4);stroke-width:2.55px;"/><path d="M704.532,214.02l-120.658,-0l0,-185.681l119.434,0l0,27.615l-85.971,-0l0,50.33l69.103,0l0,26.934l-69.103,0l0,51.964l87.195,-0l0,28.838Z" style="fill:url(#_Linear5);fill-rule:nonzero;stroke:url(#_Linear6);stroke-width:2.55px;"/><path d="M878.106,214.02l-35.367,-0l-28.839,-76.313l-47.066,0l0,76.313l-33.463,0l-0,-185.681l80.529,0c22.4,0 38.859,5.056 49.379,15.168c10.52,10.111 15.78,23.193 15.78,39.244c-0,23.851 -11.155,40.265 -33.464,49.243l32.511,82.026Zm-111.272,-103.11l41.625,-0c12.061,-0 21.039,-2.54 26.934,-7.618c5.895,-5.079 8.842,-12.061 8.842,-20.949c-0,-8.162 -2.902,-14.759 -8.706,-19.792c-5.804,-5.033 -13.92,-7.55 -24.349,-7.55l-44.346,0l0,55.909Z" style="fill:url(#_Linear7);fill-rule:nonzero;stroke:url(#_Linear8);stroke-width:2.55px;"/><path d="M1026.65,214.02l-114.265,-0l-0,-185.681l35.231,0l0,155.346l79.034,0l-0,30.335Z" style="fill:url(#_Linear9);fill-rule:nonzero;stroke:url(#_Linear10);stroke-width:2.55px;"/><rect x="1051.27" y="28.339" width="33.463" height="185.681" style="fill:url(#_Linear11);fill-rule:nonzero;stroke:url(#_Linear12);stroke-width:2.55px;"/><path d="M1265.79,214.02l-32.511,-0l-70.464,-118.618c-1.088,-1.814 -2.856,-4.761 -5.305,-8.842c-1.088,-1.814 -2.766,-4.67 -5.033,-8.57l0,136.03l-26.934,-0l0,-185.681l37,0l65.023,109.368c0.544,0.907 4.489,7.573 11.834,19.997l0,-129.365l26.39,0l-0,185.681Z" style="fill:url(#_Linear13);fill-rule:nonzero;stroke:url(#_Linear14);stroke-width:2.55px;"/></g><g id="mvc-framework"><path id="mvc-framework-text" d="M389.976,317.59l-21.406,-61.851l-0.386,0c0.193,2.384 0.354,4.752 0.483,7.104c0.129,2.029 0.233,4.163 0.314,6.402c0.08,2.239 0.121,4.276 0.121,6.113l-0,42.232l-8.312,0l0,-70.645l13.337,-0l19.908,57.598l0.29,0l20.005,-57.598l13.336,-0l0,70.645l-8.987,0l-0,-42.861c-0,-1.675 0.032,-3.591 0.096,-5.75c0.065,-2.158 0.145,-4.22 0.242,-6.185c0.129,-2.287 0.242,-4.606 0.338,-6.958l-0.386,0l-21.6,61.754l-7.393,0Z" style="fill:url(#_Linear15);fill-rule:nonzero;stroke:url(#_Linear16);stroke-width:1.55px;"/><path d="M483.912,246.945l9.567,-0l-23.629,70.645l-9.036,0l-23.532,-70.645l9.519,-0l14.255,44.793c0.934,2.932 1.74,5.759 2.416,8.481c0.677,2.722 1.289,5.275 1.836,7.659c0.484,-2.384 1.096,-4.937 1.837,-7.659c0.74,-2.722 1.61,-5.646 2.609,-8.771l14.158,-44.503Z" style="fill:url(#_Linear17);fill-rule:nonzero;stroke:url(#_Linear18);stroke-width:1.55px;"/><path d="M529.817,253.855c-3.447,-0 -6.572,0.652 -9.375,1.957c-2.802,1.305 -5.194,3.181 -7.175,5.629c-1.981,2.448 -3.512,5.428 -4.591,8.94c-1.079,3.511 -1.618,7.473 -1.618,11.886c-0,4.543 0.475,8.577 1.425,12.105c0.95,3.527 2.376,6.499 4.276,8.915c1.901,2.416 4.269,4.252 7.104,5.509c2.834,1.256 6.152,1.884 9.954,1.884c2.867,0 5.589,-0.282 8.166,-0.845c2.577,-0.564 5.122,-1.217 7.635,-1.957l-0,7.827c-1.257,0.484 -2.513,0.911 -3.77,1.281c-1.256,0.37 -2.569,0.668 -3.938,0.894c-1.369,0.225 -2.834,0.395 -4.397,0.507c-1.562,0.113 -3.294,0.169 -5.194,0.169c-5.283,0 -9.858,-0.869 -13.723,-2.609c-3.866,-1.739 -7.063,-4.204 -9.592,-7.393c-2.529,-3.189 -4.405,-7.023 -5.63,-11.5c-1.224,-4.478 -1.836,-9.439 -1.836,-14.883c0,-5.348 0.701,-10.244 2.102,-14.69c1.402,-4.445 3.463,-8.263 6.185,-11.452c2.722,-3.189 6.097,-5.669 10.124,-7.441c4.026,-1.772 8.649,-2.658 13.868,-2.658c3.479,0 6.797,0.355 9.954,1.063c3.157,0.709 6.008,1.74 8.552,3.093l-3.769,7.538c-2.029,-1.031 -4.236,-1.917 -6.62,-2.658c-2.383,-0.741 -5.089,-1.111 -8.117,-1.111Z" style="fill:url(#_Linear19);fill-rule:nonzero;stroke:url(#_Linear20);stroke-width:1.55px;"/><path d="M595.485,317.59l-8.988,0l-0,-70.645l36.675,-0l0,7.925l-27.687,-0l-0,24.933l25.851,0l0,7.925l-25.851,-0l-0,29.862Z" style="fill:url(#_Linear21);fill-rule:nonzero;stroke:url(#_Linear22);stroke-width:1.55px;"/><path d="M656.852,263.567c0.934,0 1.981,0.041 3.141,0.121c1.16,0.081 2.158,0.201 2.996,0.363l-1.16,8.117c-0.902,-0.161 -1.828,-0.298 -2.778,-0.41c-0.951,-0.113 -1.845,-0.169 -2.682,-0.169c-2.03,-0 -3.882,0.41 -5.557,1.232c-1.675,0.821 -3.117,1.997 -4.325,3.527c-1.208,1.53 -2.142,3.367 -2.802,5.509c-0.661,2.142 -0.991,4.518 -0.991,7.127l-0,28.606l-8.794,0l-0,-53.056l7.151,-0l1.063,9.712l0.387,0c0.805,-1.385 1.667,-2.722 2.585,-4.01c0.918,-1.289 1.949,-2.424 3.092,-3.407c1.144,-0.983 2.424,-1.772 3.842,-2.368c1.417,-0.596 3.028,-0.894 4.832,-0.894Z" style="fill:url(#_Linear23);fill-rule:nonzero;stroke:url(#_Linear24);stroke-width:1.55px;"/><path d="M702.322,317.59l-1.788,-7.345l-0.387,0c-1.063,1.45 -2.126,2.698 -3.189,3.745c-1.063,1.047 -2.223,1.909 -3.479,2.585c-1.256,0.677 -2.657,1.176 -4.204,1.498c-1.546,0.322 -3.334,0.483 -5.363,0.483c-2.223,0 -4.269,-0.314 -6.137,-0.942c-1.869,-0.628 -3.487,-1.594 -4.856,-2.899c-1.369,-1.305 -2.441,-2.948 -3.214,-4.929c-0.773,-1.981 -1.159,-4.325 -1.159,-7.03c-0,-5.284 1.86,-9.343 5.581,-12.177c3.72,-2.835 9.382,-4.381 16.984,-4.639l8.891,-0.338l0,-3.335c0,-2.158 -0.233,-3.962 -0.7,-5.411c-0.467,-1.45 -1.144,-2.618 -2.03,-3.504c-0.886,-0.886 -1.981,-1.522 -3.285,-1.908c-1.305,-0.387 -2.795,-0.58 -4.47,-0.58c-2.674,-0 -5.162,0.386 -7.466,1.159c-2.303,0.774 -4.518,1.708 -6.644,2.803l-3.092,-6.62c2.383,-1.288 5.041,-2.384 7.973,-3.286c2.931,-0.902 6.007,-1.353 9.229,-1.353c3.286,0 6.129,0.331 8.528,0.991c2.4,0.66 4.382,1.707 5.944,3.141c1.562,1.433 2.73,3.261 3.503,5.484c0.773,2.223 1.16,4.913 1.16,8.07l-0,36.337l-6.33,0Zm-16.139,-6.137c1.965,0 3.785,-0.306 5.46,-0.918c1.675,-0.612 3.125,-1.538 4.349,-2.778c1.224,-1.241 2.182,-2.803 2.875,-4.687c0.693,-1.885 1.039,-4.1 1.039,-6.645l-0,-4.783l-6.91,0.338c-2.899,0.129 -5.331,0.451 -7.296,0.966c-1.966,0.516 -3.536,1.233 -4.712,2.151c-1.176,0.918 -2.021,2.029 -2.537,3.334c-0.515,1.304 -0.773,2.778 -0.773,4.421c0,2.964 0.781,5.138 2.344,6.523c1.562,1.386 3.616,2.078 6.161,2.078Z" style="fill:url(#_Linear25);fill-rule:nonzero;stroke:url(#_Linear26);stroke-width:1.55px;"/><path d="M788.478,317.59l-0,-34.163c-0,-4.188 -0.805,-7.328 -2.416,-9.422c-1.611,-2.094 -4.107,-3.141 -7.49,-3.141c-2.352,-0 -4.349,0.378 -5.992,1.135c-1.643,0.757 -2.988,1.869 -4.034,3.334c-1.047,1.466 -1.813,3.286 -2.296,5.461c-0.483,2.174 -0.725,4.679 -0.725,7.514l0,29.282l-8.842,0l-0,-34.163c-0,-4.188 -0.798,-7.328 -2.392,-9.422c-1.595,-2.094 -4.083,-3.141 -7.466,-3.141c-2.48,-0 -4.558,0.419 -6.233,1.256c-1.675,0.838 -3.02,2.078 -4.035,3.721c-1.015,1.643 -1.739,3.656 -2.174,6.04c-0.435,2.384 -0.653,5.122 -0.653,8.214l0,27.495l-8.794,0l-0,-53.056l7.151,-0l1.257,7.151l0.483,0c0.773,-1.385 1.691,-2.585 2.754,-3.6c1.063,-1.014 2.231,-1.86 3.504,-2.537c1.272,-0.676 2.625,-1.175 4.059,-1.497c1.433,-0.323 2.891,-0.484 4.373,-0.484c3.865,0 7.079,0.709 9.64,2.126c2.561,1.418 4.453,3.641 5.677,6.669l0.387,-0c0.837,-1.514 1.844,-2.819 3.02,-3.914c1.176,-1.096 2.464,-2.006 3.866,-2.73c1.401,-0.725 2.875,-1.265 4.421,-1.619c1.546,-0.354 3.125,-0.532 4.735,-0.532c5.638,0 9.882,1.539 12.733,4.615c2.851,3.076 4.276,7.997 4.276,14.762l0,34.646l-8.794,0Z" style="fill:url(#_Linear27);fill-rule:nonzero;stroke:url(#_Linear28);stroke-width:1.55px;"/><path d="M834.576,318.556c-3.544,0 -6.781,-0.596 -9.713,-1.787c-2.931,-1.192 -5.452,-2.932 -7.562,-5.219c-2.11,-2.287 -3.745,-5.122 -4.904,-8.505c-1.16,-3.382 -1.74,-7.248 -1.74,-11.597c0,-4.381 0.532,-8.295 1.595,-11.742c1.063,-3.446 2.561,-6.37 4.494,-8.77c1.932,-2.4 4.244,-4.228 6.934,-5.484c2.689,-1.256 5.661,-1.885 8.915,-1.885c3.189,0 6.056,0.572 8.601,1.716c2.545,1.143 4.703,2.754 6.475,4.832c1.772,2.078 3.133,4.574 4.083,7.49c0.95,2.915 1.425,6.144 1.425,9.688l0,5.46l-33.438,0c0.161,6.217 1.474,10.792 3.939,13.723c2.464,2.932 6.128,4.397 10.993,4.397c1.642,0 3.165,-0.08 4.566,-0.241c1.401,-0.161 2.754,-0.395 4.059,-0.701c1.304,-0.306 2.569,-0.692 3.793,-1.16c1.224,-0.467 2.464,-0.99 3.721,-1.57l-0,7.828c-1.289,0.612 -2.553,1.144 -3.794,1.595c-1.24,0.451 -2.512,0.821 -3.817,1.111c-1.305,0.29 -2.657,0.499 -4.059,0.628c-1.401,0.129 -2.923,0.193 -4.566,0.193Zm-2.175,-47.692c-3.672,-0 -6.579,1.256 -8.721,3.769c-2.143,2.512 -3.391,6.169 -3.745,10.969l23.774,-0c-0,-2.191 -0.218,-4.196 -0.653,-6.016c-0.435,-1.82 -1.111,-3.375 -2.029,-4.663c-0.918,-1.289 -2.086,-2.287 -3.504,-2.996c-1.417,-0.709 -3.124,-1.063 -5.122,-1.063Z" style="fill:url(#_Linear29);fill-rule:nonzero;stroke:url(#_Linear30);stroke-width:1.55px;"/><path d="M906.864,317.59l-8.118,-29.766c-0.129,-0.579 -0.29,-1.232 -0.483,-1.957c-0.194,-0.724 -0.387,-1.489 -0.58,-2.295c-0.193,-0.805 -1.015,-4.123 -1.208,-4.929c-0.451,-1.868 -0.918,-3.801 -1.401,-5.798l-0.29,-0c-0.451,2.029 -0.886,3.978 -1.305,5.847c-0.354,1.61 -0.733,3.269 -1.136,4.977c-0.402,1.707 -0.781,3.157 -1.135,4.349l-8.311,29.572l-10.196,0l-13.578,-53.056l9.229,-0l6.33,28.219c0.322,1.45 0.644,3.02 0.967,4.711c0.322,1.692 0.628,3.367 0.918,5.026c0.29,1.659 0.547,3.221 0.773,4.687c0.225,1.466 0.402,2.666 0.531,3.6l0.29,-0c0.161,-0.838 0.379,-1.957 0.653,-3.359c0.273,-1.401 0.579,-2.883 0.918,-4.445c0.338,-1.562 0.684,-3.109 1.039,-4.639c0.354,-1.53 0.692,-2.827 1.014,-3.89l8.65,-29.91l9.471,-0l8.311,29.91c0.29,1.096 0.62,2.384 0.99,3.866c0.371,1.482 0.733,2.988 1.088,4.518c0.354,1.53 0.676,3.004 0.966,4.421c0.29,1.418 0.499,2.594 0.628,3.528l0.29,-0c0.097,-0.838 0.25,-1.957 0.459,-3.359c0.21,-1.401 0.459,-2.939 0.749,-4.614c0.29,-1.675 0.604,-3.391 0.942,-5.146c0.339,-1.756 0.685,-3.391 1.039,-4.905l6.62,-28.219l8.988,-0l-13.723,53.056l-10.389,0Z" style="fill:url(#_Linear31);fill-rule:nonzero;stroke:url(#_Linear32);stroke-width:1.55px;"/><path d="M983.646,290.965c-0,4.414 -0.54,8.336 -1.619,11.766c-1.079,3.431 -2.626,6.314 -4.639,8.65c-2.013,2.335 -4.454,4.115 -7.321,5.339c-2.867,1.224 -6.088,1.836 -9.664,1.836c-3.318,0 -6.378,-0.612 -9.181,-1.836c-2.802,-1.224 -5.226,-3.004 -7.272,-5.339c-2.046,-2.336 -3.64,-5.219 -4.784,-8.65c-1.143,-3.43 -1.715,-7.352 -1.715,-11.766c-0,-4.381 0.539,-8.271 1.619,-11.669c1.079,-3.399 2.617,-6.266 4.614,-8.601c1.998,-2.336 4.438,-4.108 7.321,-5.316c2.883,-1.208 6.112,-1.812 9.688,-1.812c3.318,0 6.379,0.604 9.181,1.812c2.803,1.208 5.227,2.98 7.272,5.316c2.046,2.335 3.641,5.202 4.784,8.601c1.144,3.398 1.716,7.288 1.716,11.669Zm-37.111,0c0,6.733 1.104,11.799 3.31,15.197c2.207,3.399 5.791,5.098 10.752,5.098c4.96,-0 8.528,-1.699 10.703,-5.098c2.174,-3.398 3.261,-8.464 3.261,-15.197c0,-6.732 -1.103,-11.766 -3.31,-15.1c-2.206,-3.334 -5.79,-5.001 -10.751,-5.001c-4.961,-0 -8.529,1.667 -10.703,5.001c-2.175,3.334 -3.262,8.368 -3.262,15.1Z" style="fill:url(#_Linear33);fill-rule:nonzero;stroke:url(#_Linear34);stroke-width:1.55px;"/><path d="M1020.47,263.567c0.934,0 1.981,0.041 3.141,0.121c1.16,0.081 2.158,0.201 2.996,0.363l-1.16,8.117c-0.902,-0.161 -1.828,-0.298 -2.778,-0.41c-0.951,-0.113 -1.845,-0.169 -2.682,-0.169c-2.03,-0 -3.882,0.41 -5.557,1.232c-1.675,0.821 -3.117,1.997 -4.325,3.527c-1.208,1.53 -2.142,3.367 -2.802,5.509c-0.661,2.142 -0.991,4.518 -0.991,7.127l0,28.606l-8.794,0l-0,-53.056l7.151,-0l1.063,9.712l0.387,0c0.805,-1.385 1.667,-2.722 2.585,-4.01c0.918,-1.289 1.949,-2.424 3.092,-3.407c1.144,-0.983 2.425,-1.772 3.842,-2.368c1.417,-0.596 3.028,-0.894 4.832,-0.894Z" style="fill:url(#_Linear35);fill-rule:nonzero;stroke:url(#_Linear36);stroke-width:1.55px;"/><path d="M1045.11,290.192l6.523,-8.214l14.158,-17.444l10.196,-0l-19.377,22.952l20.681,30.104l-10.099,0l-16.236,-24.354l-5.267,3.963l0,20.391l-8.697,0l-0,-75.187l8.697,-0l0,34.501l-0.773,13.288l0.194,0Z" style="fill:url(#_Linear37);fill-rule:nonzero;stroke:url(#_Linear38);stroke-width:1.55px;"/></g><g id="bird"><path id="path2" d="M977.156,186.572c-0.481,-0.469 -0.646,-0.895 -0.607,-1.572c0.039,-0.669 0.267,-1.129 0.833,-1.681c0.699,-0.683 0.671,-0.703 -0.99,-0.728c-1.701,-0.025 -2.005,0.042 -2.513,0.557c-0.557,0.566 -0.814,1.45 -0.661,2.28c0.042,0.227 0.062,0.428 0.044,0.446c-0.065,0.066 -0.546,-0.472 -0.741,-0.83c-0.274,-0.504 -0.32,-1.046 -0.153,-1.838c0.073,-0.35 0.113,-0.657 0.088,-0.682c-0.025,-0.025 -1.329,-0.045 -2.899,-0.043c-2.78,0.002 -2.863,0.006 -3.194,0.166c-0.64,0.311 -1.159,1.065 -1.35,1.967l-0.101,0.476l-0.133,-0.3c-0.08,-0.18 -0.147,-0.558 -0.166,-0.939c-0.054,-1.035 0.311,-1.873 1.081,-2.488c0.82,-0.653 1.221,-0.731 3.959,-0.773c1.976,-0.03 2.259,-0.049 2.383,-0.162c0.153,-0.138 0.641,-0.897 1.927,-2.999c1.306,-2.134 1.522,-2.501 1.522,-2.575c0,-0.039 -0.219,-0.395 -0.488,-0.791c-0.958,-1.413 -1.973,-3.704 -2.449,-5.531c-0.125,-0.477 -0.25,-0.886 -0.278,-0.91c-0.028,-0.025 -0.423,-0.329 -0.877,-0.676c-2.252,-1.725 -4.199,-3.657 -5.66,-5.617c-2.422,-3.246 -3.65,-6.434 -4.068,-10.563c-0.107,-1.048 -0.106,-4.068 0,-5.633c0.226,-3.313 0.882,-7.082 1.582,-9.095c0.301,-0.867 1.015,-2.354 1.465,-3.049c1.714,-2.655 4.272,-4.298 7.414,-4.762c1.096,-0.161 3.075,-0.108 4.073,0.11c2.756,0.602 4.699,1.986 5.628,4.01c0.137,0.299 0.307,0.705 0.378,0.902c0.07,0.196 0.192,0.391 0.27,0.433c0.386,0.207 1.095,0.895 1.381,1.34c0.574,0.893 0.841,1.25 0.947,2.024c0.106,0.775 -0.083,1.491 -0.351,1.888c-0.267,0.396 -0.558,0.658 -0.623,0.55c-0.483,-0.803 -1.032,-1.018 -1.562,-1.118c-0.413,-0.077 -0.633,0.041 -0.896,0.481c-0.45,0.751 -0.512,1.779 -0.156,2.569c0.285,0.632 0.755,1.025 2.382,1.988c2.526,1.496 4.828,3.297 7.091,5.548c2.022,2.011 3.193,3.351 6.314,7.222c5.33,6.612 9.463,11.27 12.469,14.051c2.128,1.969 3.899,3.443 5.957,4.958l0.399,0.293l-0.362,0.025c-0.447,0.03 -0.927,-0.062 -2.336,-0.449c-1.915,-0.525 -5.868,-1.784 -6.728,-2.143c-0.63,-0.263 -0.777,-0.047 -0.239,0.352c0.139,0.103 0.854,0.695 1.588,1.314c0.734,0.62 1.542,1.296 1.795,1.502c0.254,0.207 1.777,1.476 3.386,2.82c1.608,1.344 3.945,3.297 5.193,4.34c1.249,1.043 2.288,1.926 2.311,1.963c0.055,0.089 -0.28,0.192 -1.351,0.415c-1.318,0.276 -2.484,0.362 -4.243,0.316c-1.677,-0.044 -2.236,-0.14 -3.36,-0.577c-0.713,-0.277 -0.96,-0.464 -3.671,-2.78c-1.185,-1.012 -2.26,-1.924 -2.388,-2.026c-0.127,-0.102 -0.79,-0.659 -1.471,-1.237c-1.386,-1.175 -5.422,-4.546 -6.347,-5.301c-1.277,-1.041 -1.087,-0.95 -2.334,-1.124c-1.407,-0.197 -2.55,-0.396 -3.92,-0.684c-0.589,-0.124 -1.105,-0.205 -1.145,-0.18c-0.044,0.028 -0.074,0.616 -0.074,1.463c0,1.911 -0.189,4.571 -0.335,4.717c-0.079,0.079 -1.396,-0.212 -2.287,-0.505c-0.954,-0.313 -2.458,-1.026 -3.173,-1.503c-0.251,-0.167 -0.516,-0.304 -0.589,-0.304c-0.101,-0 -0.18,0.155 -0.335,0.657c-0.293,0.952 -0.805,2.352 -1.159,3.173c-0.169,0.392 -0.308,0.756 -0.308,0.807c-0,0.069 0.204,0.095 0.769,0.096c1.791,0.003 2.814,0.387 3.372,1.266c0.494,0.777 0.592,1.793 0.247,2.562c-0.112,0.248 -0.228,0.451 -0.259,0.451c-0.031,0 -0.08,-0.16 -0.108,-0.356c-0.124,-0.857 -0.696,-1.628 -1.377,-1.854c-0.32,-0.106 -0.654,-0.122 -2.172,-0.103l-1.793,0.023l-0.627,0.45c-0.971,0.698 -1.989,1.698 -2.23,2.191c-0.215,0.44 -0.272,0.969 -0.154,1.433c0.087,0.339 -0.02,0.312 -0.457,-0.114Zm36.333,-2.628c0,-0.057 -1.955,-1.891 -2.672,-2.507c-0.21,-0.18 -0.971,-0.854 -1.69,-1.498c-4.026,-3.603 -7.188,-6.085 -7.503,-5.89c-0.123,0.076 1.428,1.756 2.65,2.871c1.12,1.021 2.708,2.426 3.513,3.107c3.927,3.322 3.806,3.229 4.839,3.698c0.583,0.265 0.863,0.336 0.863,0.219Zm-34.158,-3.401c0.683,-0.312 1.943,-3.524 2.39,-6.097l0.088,-0.504l-0.672,-0.66c-0.369,-0.363 -0.772,-0.792 -0.896,-0.954c-0.138,-0.179 -0.267,-0.278 -0.332,-0.253c-0.082,0.031 -0.165,0.651 -0.363,2.697c-0.141,1.462 -0.263,2.667 -0.272,2.679c-0.033,0.049 -0.927,-0.526 -1.339,-0.863c-0.619,-0.504 -0.615,-0.502 -0.731,-0.455c-0.153,0.061 -2.793,4.315 -2.735,4.409c0.067,0.108 4.624,0.109 4.862,0.001Zm9.131,-4.266c0.068,-0.043 0.122,-0.509 0.184,-1.588c0.1,-1.753 -0,-3.936 -0.239,-5.221c-0.077,-0.413 -0.128,-0.764 -0.112,-0.78c0.016,-0.016 0.494,0.143 1.064,0.353c2.517,0.929 4.157,1.359 7.607,1.994c1.41,0.26 1.781,0.316 3.492,0.53c1.812,0.226 2.118,0.246 2.219,0.145c0.158,-0.157 0.385,-0.068 -4.359,-1.714c-4.365,-1.514 -5.846,-2.068 -8.149,-3.044c-7.79,-3.303 -12.267,-6.266 -15.157,-10.032c-1.118,-1.458 -1.953,-3.206 -2.383,-4.989c-0.246,-1.022 -0.25,-2.984 -0.009,-3.868c0.356,-1.304 1.083,-2.458 2.018,-3.201c0.883,-0.701 1.527,-1.027 2.688,-1.36c0.459,-0.131 1.807,-0.218 3.248,-0.209c0.178,0.001 0.093,-0.174 -0.273,-0.561c-0.665,-0.702 -0.953,-1.506 -0.89,-2.477c0.046,-0.712 0.262,-1.334 0.629,-1.815c0.328,-0.429 0.308,-0.577 -0.086,-0.637c-0.287,-0.044 -0.289,-0.047 -0.053,-0.057c0.225,-0.01 0.239,-0.024 0.163,-0.166c-0.112,-0.209 0.006,-0.341 0.362,-0.404c0.611,-0.108 0.542,-0.156 -0.284,-0.195l-0.864,-0.042l1.094,-0.015c1.278,-0.017 1.822,0.065 2.42,0.367c0.684,0.345 0.737,0.305 0.645,-0.486c-0.076,-0.654 -0.562,-1.588 -1.066,-2.049c-0.395,-0.361 -1.211,-0.851 -1.417,-0.851c-0.19,0 -0.995,0.643 -1.506,1.203c-0.281,0.308 -0.482,0.479 -0.459,0.392c0.05,-0.192 -0.186,-0.335 -0.569,-0.345l-0.268,-0.006l0.206,-0.407c0.294,-0.579 0.274,-0.87 -0.099,-1.428c-0.826,-1.237 -2.412,-1.967 -4.313,-1.985c-0.516,-0.005 -1.046,0.031 -1.239,0.085c-0.558,0.154 -0.99,0.273 -0.99,0.401c0,0.103 0.255,0.155 1.111,0.166c0.547,0.007 1.069,0.066 1.193,0.103l0.225,0.068l-0.235,0.123c-0.314,0.164 -0.826,0.754 -0.931,1.073c-0.047,0.141 -0.095,0.257 -0.107,0.257c-0.013,-0 -0.146,-0.052 -0.297,-0.115c-0.151,-0.063 -0.637,-0.202 -1.079,-0.309c-1.155,-0.278 -1.928,-0.237 -2.748,0.146c-1.11,0.518 -2.132,1.323 -3.02,2.581c-1.113,1.579 -1.921,3.796 -2.303,6.137c-0.383,2.342 -0.166,0.951 -0.335,2.386c-0.104,0.883 -0.191,1.912 -0.189,3.695c0.03,2.18 0.15,3.207 0.551,4.931c1.283,5.532 4.57,9.992 10.055,13.644c1.384,0.922 4.308,2.579 4.55,2.579c0.195,0 0.11,-0.232 -0.352,-0.964c-0.639,-1.014 -1.663,-3.124 -1.985,-4.091c-0.283,-0.853 -0.311,-1.121 -0.077,-0.757c0.139,0.216 0.305,0.444 1.723,2.357c0.413,0.558 0.875,1.183 1.027,1.39c1.341,1.829 2.783,3.735 3.294,4.356c1.954,2.373 3.856,3.838 5.902,4.549c0.705,0.245 0.651,0.234 0.772,0.157Zm-9.465,-39.267c0.051,-0.021 0.136,-0.021 0.187,-0c0.052,0.021 0.01,0.038 -0.093,0.038c-0.104,-0 -0.146,-0.017 -0.094,-0.038Zm-3.77,-1.787c-0.416,-0.152 -0.646,-0.342 -0.819,-0.675c-0.45,-0.866 0.192,-1.915 1.174,-1.919c0.469,-0.001 0.789,0.139 1.084,0.475c0.264,0.301 0.361,0.657 0.3,1.109c-0.101,0.756 -1.002,1.278 -1.739,1.01Zm30.058,34.491c-0.033,-0.098 -1.609,-1.095 -3.475,-2.199c-2.799,-1.657 -4.558,-2.823 -6.834,-4.534c-1.954,-1.468 -4.452,-3.729 -3.093,-2.799c0.716,0.49 6.145,3.441 8.577,4.663c1.984,0.997 2.62,1.275 2.71,1.186c0.024,-0.025 -0.589,-0.765 -1.363,-1.646c-1.411,-1.606 -3.618,-4.226 -4.244,-5.04c-0.361,-0.47 -0.371,-0.474 -1.174,-0.538c-0.605,-0.047 -2.054,-0.401 -2.594,-0.633c-0.195,-0.084 -0.37,-0.127 -0.389,-0.096c-0.02,0.031 0.184,0.316 0.452,0.635c0.268,0.319 0.467,0.613 0.441,0.654c-0.072,0.116 -1.899,0.089 -2.565,-0.038c-0.827,-0.159 -2.305,-0.665 -3.043,-1.043c-1.907,-0.976 -3.765,-2.524 -5.048,-4.204c-0.46,-0.604 -0.507,-0.767 -0.146,-0.513c0.271,0.191 2.587,1.584 3.329,2.002c0.588,0.331 1.717,0.809 2.554,1.082c0.693,0.225 1.8,0.45 1.847,0.374c0.052,-0.085 0.027,-0.122 -0.803,-1.156c-0.988,-1.232 -1.732,-2.226 -1.694,-2.264c0.017,-0.017 0.415,0.219 0.885,0.524c1.053,0.685 2.279,1.412 3.22,1.911c1.212,0.642 2.629,1.143 2.629,0.93c-0,-0.136 -2.374,-3.035 -3.703,-4.523c-3.277,-3.671 -6.279,-6.006 -9.14,-7.112c-0.956,-0.369 -2.145,-0.609 -3.305,-0.668c-1.857,-0.093 -3.012,0.321 -4.06,1.456c-2.556,2.768 -1.125,7.854 3.346,11.894c2.495,2.255 5.619,4.195 8.863,5.504c1.039,0.42 2.981,1.101 3.139,1.101c0.129,-0 0.033,-0.13 -0.191,-0.259c-1.317,-0.759 -4.391,-3.018 -5.84,-4.292c-1.349,-1.187 -3.577,-3.532 -3.229,-3.398c0.062,0.024 0.602,0.362 1.201,0.752c0.599,0.39 1.732,1.103 2.516,1.585c0.785,0.483 1.806,1.123 2.269,1.423c5.391,3.498 6.139,3.932 10.237,5.942c2.371,1.163 4.098,1.964 5.407,2.507c2.402,0.998 2.362,0.984 2.311,0.83Z" style="fill:#2d3334;fill-rule:nonzero;stroke:#000;stroke-width:0.15px;"/><path id="path3" d="M1012.63,183.725c-0.897,-0.407 -1.209,-0.629 -2.892,-2.052c-0.847,-0.716 -1.723,-1.457 -1.947,-1.646c-0.805,-0.681 -2.393,-2.086 -3.513,-3.107c-1.222,-1.115 -2.773,-2.795 -2.65,-2.871c0.315,-0.195 3.477,2.287 7.503,5.89c0.719,0.644 1.48,1.318 1.69,1.498c0.717,0.616 2.672,2.45 2.672,2.507c0,0.117 -0.28,0.046 -0.863,-0.219Zm-0.054,-0.539c-0.384,-0.365 -1.019,-0.944 -1.411,-1.287c-0.392,-0.342 -1.018,-0.9 -1.39,-1.239c-3.274,-2.992 -7.315,-6.273 -7.726,-6.273c-0.025,0 0.214,0.305 0.533,0.677c0.724,0.844 3.299,3.215 5.506,5.069c0.344,0.289 1.186,1.001 1.87,1.582c0.685,0.581 1.405,1.166 1.602,1.299c0.324,0.221 1.511,0.817 1.654,0.831c0.033,0.003 -0.254,-0.293 -0.638,-0.659Zm-8.171,-13.712c-1.702,-0.701 -2.106,-0.873 -3.229,-1.378c-1.596,-0.716 -5.825,-2.796 -7.06,-3.471c-1.776,-0.971 -2.721,-1.555 -6.782,-4.19c-0.463,-0.3 -1.484,-0.94 -2.269,-1.423c-0.784,-0.482 -1.917,-1.195 -2.516,-1.585c-0.599,-0.39 -1.139,-0.728 -1.201,-0.752c-0.348,-0.134 1.88,2.211 3.229,3.398c1.449,1.274 4.523,3.533 5.84,4.292c0.224,0.129 0.32,0.259 0.191,0.259c-0.029,-0 -0.477,-0.139 -0.995,-0.308c-5.118,-1.67 -10.01,-4.802 -12.846,-8.224c-2.666,-3.217 -3.463,-6.661 -2.117,-9.152c0.434,-0.803 1.48,-1.711 2.306,-2.001c0.989,-0.348 2.473,-0.372 4.054,-0.066c2.176,0.42 4.674,1.816 7.172,4.007c1.376,1.207 2.262,2.089 3.583,3.569c1.329,1.488 3.703,4.387 3.703,4.523c-0,0.213 -1.417,-0.288 -2.629,-0.93c-0.941,-0.499 -2.167,-1.226 -3.22,-1.911c-0.47,-0.305 -0.868,-0.541 -0.885,-0.524c-0.038,0.038 0.706,1.032 1.694,2.264c0.83,1.034 0.855,1.071 0.803,1.156c-0.047,0.076 -1.154,-0.149 -1.847,-0.374c-0.837,-0.273 -1.966,-0.751 -2.554,-1.082c-0.742,-0.418 -3.058,-1.811 -3.329,-2.002c-0.361,-0.254 -0.314,-0.091 0.146,0.513c1.283,1.68 3.141,3.228 5.048,4.204c0.738,0.378 2.216,0.884 3.043,1.043c0.666,0.127 2.493,0.154 2.565,0.038c0.026,-0.041 -0.173,-0.335 -0.441,-0.654c-0.268,-0.319 -0.472,-0.604 -0.452,-0.635c0.019,-0.031 0.194,0.012 0.389,0.096c0.54,0.232 1.989,0.586 2.594,0.633c0.803,0.064 0.813,0.068 1.174,0.538c0.626,0.814 2.833,3.434 4.244,5.04c0.774,0.881 1.387,1.621 1.363,1.646c-0.09,0.089 -0.726,-0.189 -2.71,-1.186c-2.432,-1.222 -7.861,-4.173 -8.577,-4.663c-1.359,-0.93 1.139,1.331 3.093,2.799c2.276,1.711 4.035,2.877 6.834,4.534c2.63,1.556 3.756,2.304 3.443,2.288c-0.035,-0.002 -0.418,-0.15 -0.852,-0.329Zm-0.492,-0.556c-0.452,-0.282 -1.329,-0.812 -1.949,-1.177c-4.307,-2.539 -8.038,-5.225 -10.345,-7.449c-0.625,-0.602 -0.755,-0.776 -0.58,-0.776c0.043,0 0.338,0.181 0.657,0.401c0.521,0.361 1.856,1.114 5.649,3.186c2.269,1.238 5.558,2.867 5.558,2.75c0,-0.042 -0.386,-0.498 -1.352,-1.595c-1.157,-1.315 -3.61,-4.251 -4.209,-5.038c-0.183,-0.239 -0.217,-0.252 -0.751,-0.276c-0.615,-0.029 -1.579,-0.234 -2.398,-0.511c-0.29,-0.098 -0.528,-0.157 -0.528,-0.13c0.001,0.027 0.19,0.261 0.421,0.52c0.231,0.259 0.403,0.517 0.381,0.572c-0.09,0.237 -1.993,0.234 -3.055,-0.004c-2.909,-0.654 -5.882,-2.66 -7.907,-5.335c-0.529,-0.698 -0.659,-0.924 -0.536,-0.924c0.025,0 0.388,0.215 0.808,0.477c2.842,1.775 3.833,2.303 5.232,2.79c0.744,0.259 2.03,0.586 2.086,0.53c0.014,-0.014 -0.323,-0.46 -0.749,-0.991c-0.426,-0.531 -1.021,-1.296 -1.322,-1.701c-0.822,-1.103 -0.814,-1.177 0.065,-0.569c0.965,0.668 2.995,1.861 4.088,2.404c0.942,0.467 2.025,0.881 2.103,0.804c0.025,-0.026 -0.518,-0.709 -2.086,-2.625c-2.691,-3.287 -5.853,-6.23 -8.154,-7.589c-2.284,-1.349 -3.979,-1.868 -6.093,-1.865c-1.536,0.001 -2.29,0.231 -3.212,0.976c-0.544,0.44 -0.999,1.123 -1.305,1.958c-0.994,2.711 0.399,6.434 3.584,9.575c0.505,0.498 1.244,1.174 1.642,1.502c2.132,1.756 5.038,3.468 7.775,4.581c1.075,0.437 2.559,0.958 2.6,0.912c0.007,-0.009 -0.463,-0.336 -1.044,-0.729c-2.977,-2.008 -5.783,-4.429 -7.482,-6.456c-0.828,-0.988 -0.775,-0.987 0.758,0.015c0.591,0.387 1.498,0.959 2.014,1.273c1.979,1.2 2.196,1.338 5.279,3.348c2.632,1.716 4.563,2.8 8.09,4.541c2.606,1.287 6.722,3.125 7.018,3.135c0.04,0.001 -0.298,-0.228 -0.751,-0.51Zm-40.291,-26.826c0.417,-2.546 1.163,-4.559 2.277,-6.137c0.887,-1.259 1.844,-2.11 2.954,-2.628c0.82,-0.383 1.593,-0.424 2.748,-0.146c0.442,0.107 0.929,0.247 1.083,0.311c0.222,0.093 0.278,0.262 -0.016,0.123c-0.558,-0.264 -1.68,-0.495 -2.398,-0.493c-0.595,0.001 -0.746,0.03 -1.254,0.247c-1.179,0.502 -2.218,1.436 -3.161,2.841c-1.013,1.508 -1.684,3.348 -2.117,5.807c0.087,0.263 -0.475,2.275 -0.116,0.075Zm13.653,-3.618c0.068,-0.068 0.052,-0.147 -0.064,-0.335c-0.121,-0.195 -0.136,-0.279 -0.072,-0.399c0.066,-0.123 0.053,-0.169 -0.071,-0.246c-0.083,-0.052 -0.152,-0.155 -0.152,-0.227c0,-0.073 -0.05,-0.132 -0.112,-0.132c-0.062,-0 -0.113,-0.047 -0.113,-0.105c0,-0.057 -0.084,-0.126 -0.188,-0.152c-0.17,-0.042 -0.275,-0.269 -0.125,-0.269c0.035,-0 0.063,-0.045 0.063,-0.1c-0,-0.076 -0.131,-0.092 -0.57,-0.067c-0.313,0.018 -0.688,-0.002 -0.832,-0.044c-0.23,-0.067 -0.207,-0.072 0.188,-0.04c0.314,0.025 0.629,-0.011 1.045,-0.119c0.855,-0.224 1.215,-0.436 1.775,-1.122c0.155,-0.189 0.391,-0.472 0.384,-0.278c-0.007,0.195 0.208,0.224 0.459,0.328c0.326,0.132 0.14,0.461 -0.312,1.106c-0.452,0.645 -0.347,0.698 0.01,0.741c0.356,0.043 -0.514,-0.055 1.56,-0.052c2.074,0.003 -0.031,0.177 0.233,0.67c0.099,0.185 -0.249,0.666 -0.439,0.699c-0.45,0.079 -1.789,-0.159 -2.317,0.075c-0.403,0.178 -0.474,0.192 -0.35,0.068Z" style="fill:#3c4345;fill-rule:nonzero;"/><path id="path4" d="M1012.53,183.549c-0.829,-0.39 -1.121,-0.597 -2.578,-1.834c-0.684,-0.581 -1.526,-1.293 -1.87,-1.582c-2.207,-1.854 -4.782,-4.225 -5.506,-5.069c-0.319,-0.372 -0.558,-0.677 -0.533,-0.677c0.411,0 4.452,3.281 7.726,6.273c0.372,0.339 0.998,0.897 1.39,1.239c0.883,0.771 2.129,1.954 2.049,1.946c-0.032,-0.003 -0.337,-0.136 -0.678,-0.296Zm-8.994,-14.56c-1.951,-0.811 -3.67,-1.596 -5.896,-2.696c-3.527,-1.741 -5.458,-2.825 -8.09,-4.541c-3.083,-2.01 -3.3,-2.148 -5.279,-3.348c-0.516,-0.314 -1.423,-0.886 -2.014,-1.273c-1.533,-1.002 -1.586,-1.003 -0.758,-0.015c1.699,2.027 4.505,4.448 7.482,6.456c0.581,0.393 1.051,0.72 1.044,0.729c-0.008,0.008 -0.317,-0.08 -0.687,-0.197c-1.096,-0.344 -3.069,-1.176 -4.316,-1.82c-6.383,-3.297 -10.408,-7.748 -10.884,-12.036c-0.193,-1.737 0.454,-3.554 1.591,-4.475c0.922,-0.745 1.676,-0.975 3.212,-0.976c2.114,-0.003 3.809,0.516 6.093,1.865c2.301,1.359 5.463,4.302 8.154,7.589c1.568,1.916 2.111,2.599 2.086,2.625c-0.078,0.077 -1.161,-0.337 -2.103,-0.804c-1.093,-0.543 -3.123,-1.736 -4.088,-2.404c-0.879,-0.608 -0.887,-0.534 -0.065,0.569c0.301,0.405 0.896,1.17 1.322,1.701c0.426,0.531 0.763,0.977 0.749,0.991c-0.056,0.056 -1.342,-0.271 -2.086,-0.53c-1.399,-0.487 -2.39,-1.015 -5.232,-2.79c-0.802,-0.501 -0.852,-0.524 -0.852,-0.398c-0,0.141 1.144,1.595 1.763,2.24c1.02,1.065 2.575,2.224 3.908,2.913c0.675,0.349 2.079,0.861 2.816,1.027c1.062,0.238 2.965,0.241 3.055,0.004c0.022,-0.055 -0.15,-0.313 -0.381,-0.572c-0.231,-0.259 -0.42,-0.493 -0.421,-0.52c0,-0.027 0.238,0.032 0.528,0.13c0.819,0.277 1.783,0.482 2.398,0.511c0.534,0.024 0.568,0.037 0.751,0.276c0.599,0.787 3.052,3.723 4.209,5.038c0.966,1.097 1.352,1.553 1.352,1.595c0,0.117 -3.289,-1.511 -5.558,-2.75c-3.793,-2.072 -5.128,-2.825 -5.649,-3.186c-0.319,-0.22 -0.614,-0.401 -0.657,-0.401c-0.175,0 -0.045,0.174 0.58,0.776c2.307,2.224 6.038,4.91 10.345,7.449c1.488,0.877 2.789,1.69 2.7,1.687c-0.039,-0.001 -0.544,-0.199 -1.122,-0.439Zm-37.742,-24.937c-0.814,-0.058 -1.526,-0.008 -2.078,-0.192c-0.552,-0.183 -0.306,-0.377 0.002,-1.992c0.308,-1.614 1.141,-4.375 2.121,-5.834c0.98,-1.46 1.992,-2.163 3.171,-2.665c0.508,-0.217 0.659,-0.246 1.254,-0.247c0.718,-0.002 1.84,0.229 2.398,0.493c0.163,0.077 0.315,0.11 0.338,0.072c0.024,-0.037 0.342,1.529 0.837,1.974c0.482,0.434 0.978,0.603 1.759,0.602c0.523,-0.001 0.562,0.007 0.301,0.065c-0.166,0.037 -0.487,0.05 -0.714,0.029c-0.373,-0.034 -0.388,-0.03 -0.15,0.04c0.144,0.042 0.519,0.063 0.832,0.045c0.439,-0.025 0.57,-0.009 0.57,0.067c-0,0.055 -0.028,0.1 -0.063,0.1c-0.15,-0 -0.045,0.227 0.125,0.269c0.104,0.026 0.188,0.095 0.188,0.152c0,0.058 0.051,0.105 0.113,0.105c0.062,-0 0.112,0.059 0.112,0.132c0,0.072 0.069,0.175 0.152,0.227c0.124,0.077 0.137,0.123 0.071,0.246c-0.064,0.12 -0.049,0.204 0.072,0.399c0.121,0.196 0.133,0.267 0.06,0.346c-0.074,0.08 -0.069,0.088 0.053,0.04c0.675,-0.268 -1.543,1.218 -1.91,1.536c-2.071,1.777 -3.603,2.703 -5.519,3.337c-1.384,0.459 -2.659,0.758 -4.095,0.654Z" style="fill:#454e51;fill-rule:nonzero;"/><path id="path7" d="M982.966,137.351c-0.655,-0.333 -1.331,-0.451 -3.154,-0.396c-0.895,0.028 -1.358,0.061 -1.451,-0.008c-0.093,-0.069 0.034,-0.851 0.487,-1.389c0.787,-0.934 1.008,-1.089 1.569,-1.425c0.561,-0.337 0.832,-0.284 1.584,0.276c0.752,0.56 1.261,1.339 1.438,2.181c0.177,0.843 0.181,1.094 -0.473,0.761Zm-8.394,-1.324c-0.462,-0.211 -1.456,-1.043 -1.471,-2.072c-0.009,-0.672 0.098,-1.132 0.874,-1.641c0.103,-0.068 0.055,-0.015 0.27,-0.159c-0.095,-0.098 -0.471,-0.14 -1.079,-0.168c-0.608,-0.028 -1.545,0.025 -1.567,-0.126c-0.022,-0.151 0.521,-0.406 1.592,-0.578c0.715,-0.114 2.024,0.009 2.824,0.304c0.8,0.295 1.462,0.777 2.117,1.546c0.654,0.769 0.544,1.411 -0.151,2.104c-0.695,0.693 -0.954,0.755 -1.675,0.94c-0.664,0.169 -1.272,0.061 -1.734,-0.15Zm2.467,-2.13c-0.023,-0.646 -0.608,-1.328 -1.436,-1.306c-0.828,0.021 -1.391,0.685 -1.377,1.387c0.013,0.702 0.562,1.337 1.455,1.331c0.892,-0.006 1.382,-0.765 1.358,-1.412Z" style="fill:#dabc59;fill-rule:nonzero;stroke:#000;stroke-width:0.15px;"/><path id="path6" d="M980.946,170.451c-0.592,-0.746 -4.457,-6.139 -5.029,-6.971c-0.338,-0.49 -0.612,-0.464 -0.153,0.81c0.459,1.275 1.462,3.261 2.04,4.195c0.579,0.935 0.772,0.901 -0.33,0.429c-0.372,-0.159 -4.149,-2.302 -6.436,-4.227c-2.288,-1.925 -3.8,-3.544 -5.53,-6.665c-1.731,-3.121 -2.449,-7.036 -2.402,-9.417c0.047,-2.381 0.1,-4.508 0.287,-5.012c0.643,0.304 1.722,0.332 3.826,0.27c2.103,-0.062 4.937,-1.266 7.136,-3.045c2.198,-1.78 2.208,-1.795 3.114,-2.3c0.794,-0.442 3.341,-0.879 2.777,-0.244c-0.553,0.622 -0.761,1.042 -0.833,1.926c-0.073,0.883 0.146,1.544 0.48,2.06c0.333,0.515 0.705,0.912 0.689,0.916c-0.015,0.003 -0.58,0.047 -1.119,0.059c-6.594,0.091 -7.243,5.242 -7.053,7.397c0.189,2.154 1.29,5.64 5.055,9.025c3.766,3.386 9.627,6.134 14.831,8.183c5.205,2.049 8.129,2.819 9.891,3.571c1.762,0.752 -2.457,0.022 -4.712,-0.34c-2.255,-0.362 -6.102,-1.334 -7.658,-1.945c-1.555,-0.612 -1.637,-0.916 -1.432,0.305c0.206,1.222 0.248,2.344 0.219,4.217c-0.028,1.874 0.061,2.645 -0.508,2.633c-0.287,-0.006 -2.32,-1.012 -3.17,-1.719c-0.85,-0.707 -3.388,-3.365 -3.98,-4.111Z" style="fill:#fffee3;"/></g></g><defs><linearGradient id="_Linear1" x1="0" y1="0" x2="1" y2="0" gradientUnits="userSpaceOnUse" gradientTransform="matrix(1.86129e-14,303.972,-303.972,1.86129e-14,138.602,1.60503)"><stop offset="0" style="stop-color:#fa2dac;stop-opacity:0.99"/><stop offset="1" style="stop-color:#4b27a0;stop-opacity:0.99"/></linearGradient><linearGradient id="_Linear2" x1="0" y1="0" x2="1" y2="0" gradientUnits="userSpaceOnUse" gradientTransform="matrix(-4.63878,304.663,-304.663,-4.63878,51.9695,3.52765)"><stop offset="0" style="stop-color:#f00697;stop-opacity:1"/><stop offset="1" style="stop-color:#3c1f81;stop-opacity:1"/></linearGradient><linearGradient id="_Linear3" x1="0" y1="0" x2="1" y2="0" gradientUnits="userSpaceOnUse" gradientTransform="matrix(907.558,0,0,907.558,359.509,121.18)"><stop offset="0" style="stop-color:#2c78ee;stop-opacity:1"/><stop offset="0.5" style="stop-color:#54abf2;stop-opacity:1"/><stop offset="1" style="stop-color:#2c72ee;stop-opacity:1"/></linearGradient><linearGradient id="_Linear4" x1="0" y1="0" x2="1" y2="0" gradientUnits="userSpaceOnUse" gradientTransform="matrix(907.558,0,0,907.558,359.509,121.18)"><stop offset="0" style="stop-color:#115dd4;stop-opacity:1"/><stop offset="0.5" style="stop-color:#2594ee;stop-opacity:1"/><stop offset="1" style="stop-color:#1157d4;stop-opacity:1"/></linearGradient><linearGradient id="_Linear5" x1="0" y1="0" x2="1" y2="0" gradientUnits="userSpaceOnUse" gradientTransform="matrix(907.558,0,0,907.558,359.509,121.18)"><stop offset="0" style="stop-color:#2c78ee;stop-opacity:1"/><stop offset="0.5" style="stop-color:#54abf2;stop-opacity:1"/><stop offset="1" style="stop-color:#2c72ee;stop-opacity:1"/></linearGradient><linearGradient id="_Linear6" x1="0" y1="0" x2="1" y2="0" gradientUnits="userSpaceOnUse" gradientTransform="matrix(907.558,0,0,907.558,359.509,121.18)"><stop offset="0" style="stop-color:#115dd4;stop-opacity:1"/><stop offset="0.5" style="stop-color:#2594ee;stop-opacity:1"/><stop offset="1" style="stop-color:#1157d4;stop-opacity:1"/></linearGradient><linearGradient id="_Linear7" x1="0" y1="0" x2="1" y2="0" gradientUnits="userSpaceOnUse" gradientTransform="matrix(907.558,0,0,907.558,359.509,121.18)"><stop offset="0" style="stop-color:#2c78ee;stop-opacity:1"/><stop offset="0.5" style="stop-color:#54abf2;stop-opacity:1"/><stop offset="1" style="stop-color:#2c72ee;stop-opacity:1"/></linearGradient><linearGradient id="_Linear8" x1="0" y1="0" x2="1" y2="0" gradientUnits="userSpaceOnUse" gradientTransform="matrix(907.558,0,0,907.558,359.509,121.18)"><stop offset="0" style="stop-color:#115dd4;stop-opacity:1"/><stop offset="0.5" style="stop-color:#2594ee;stop-opacity:1"/><stop offset="1" style="stop-color:#1157d4;stop-opacity:1"/></linearGradient><linearGradient id="_Linear9" x1="0" y1="0" x2="1" y2="0" gradientUnits="userSpaceOnUse" gradientTransform="matrix(907.558,0,0,907.558,359.509,121.18)"><stop offset="0" style="stop-color:#2c78ee;stop-opacity:1"/><stop offset="0.5" style="stop-color:#54abf2;stop-opacity:1"/><stop offset="1" style="stop-color:#2c72ee;stop-opacity:1"/></linearGradient><linearGradient id="_Linear10" x1="0" y1="0" x2="1" y2="0" gradientUnits="userSpaceOnUse" gradientTransform="matrix(907.558,0,0,907.558,359.509,121.18)"><stop offset="0" style="stop-color:#115dd4;stop-opacity:1"/><stop offset="0.5" style="stop-color:#2594ee;stop-opacity:1"/><stop offset="1" style="stop-color:#1157d4;stop-opacity:1"/></linearGradient><linearGradient id="_Linear11" x1="0" y1="0" x2="1" y2="0" gradientUnits="userSpaceOnUse" gradientTransform="matrix(907.558,0,0,907.558,359.509,121.18)"><stop offset="0" style="stop-color:#2c78ee;stop-opacity:1"/><stop offset="0.5" style="stop-color:#54abf2;stop-opacity:1"/><stop offset="1" style="stop-color:#2c72ee;stop-opacity:1"/></linearGradient><linearGradient id="_Linear12" x1="0" y1="0" x2="1" y2="0" gradientUnits="userSpaceOnUse" gradientTransform="matrix(907.558,0,0,907.558,359.509,121.18)"><stop offset="0" style="stop-color:#115dd4;stop-opacity:1"/><stop offset="0.5" style="stop-color:#2594ee;stop-opacity:1"/><stop offset="1" style="stop-color:#1157d4;stop-opacity:1"/></linearGradient><linearGradient id="_Linear13" x1="0" y1="0" x2="1" y2="0" gradientUnits="userSpaceOnUse" gradientTransform="matrix(907.558,0,0,907.558,359.509,121.18)"><stop offset="0" style="stop-color:#2c78ee;stop-opacity:1"/><stop offset="0.5" style="stop-color:#54abf2;stop-opacity:1"/><stop offset="1" style="stop-color:#2c72ee;stop-opacity:1"/></linearGradient><linearGradient id="_Linear14" x1="0" y1="0" x2="1" y2="0" gradientUnits="userSpaceOnUse" gradientTransform="matrix(907.558,0,0,907.558,359.509,121.18)"><stop offset="0" style="stop-color:#115dd4;stop-opacity:1"/><stop offset="0.5" style="stop-color:#2594ee;stop-opacity:1"/><stop offset="1" style="stop-color:#1157d4;stop-opacity:1"/></linearGradient><linearGradient id="_Linear15" x1="0" y1="0" x2="1" y2="0" gradientUnits="userSpaceOnUse" gradientTransform="matrix(4.80479e-15,78.4682,-78.4682,4.80479e-15,729.754,240.636)"><stop offset="0" style="stop-color:#4268f0;stop-opacity:1"/><stop offset="1" style="stop-color:#2c58ee;stop-opacity:1"/></linearGradient><linearGradient id="_Linear16" x1="0" y1="0" x2="1" y2="0" gradientUnits="userSpaceOnUse" gradientTransform="matrix(4.74073e-15,77.422,-77.422,4.74073e-15,771.081,241.682)"><stop offset="0" style="stop-color:#1342ec;stop-opacity:1"/><stop offset="1" style="stop-color:#113dd4;stop-opacity:1"/></linearGradient><linearGradient id="_Linear17" x1="0" y1="0" x2="1" y2="0" gradientUnits="userSpaceOnUse" gradientTransform="matrix(4.80479e-15,78.4682,-78.4682,4.80479e-15,729.754,240.636)"><stop offset="0" style="stop-color:#4268f0;stop-opacity:1"/><stop offset="1" style="stop-color:#2c58ee;stop-opacity:1"/></linearGradient><linearGradient id="_Linear18" x1="0" y1="0" x2="1" y2="0" gradientUnits="userSpaceOnUse" gradientTransform="matrix(4.74073e-15,77.422,-77.422,4.74073e-15,771.081,241.682)"><stop offset="0" style="stop-color:#1342ec;stop-opacity:1"/><stop offset="1" style="stop-color:#113dd4;stop-opacity:1"/></linearGradient><linearGradient id="_Linear19" x1="0" y1="0" x2="1" y2="0" gradientUnits="userSpaceOnUse" gradientTransform="matrix(4.80479e-15,78.4682,-78.4682,4.80479e-15,729.754,240.636)"><stop offset="0" style="stop-color:#4268f0;stop-opacity:1"/><stop offset="1" style="stop-color:#2c58ee;stop-opacity:1"/></linearGradient><linearGradient id="_Linear20" x1="0" y1="0" x2="1" y2="0" gradientUnits="userSpaceOnUse" gradientTransform="matrix(4.74073e-15,77.422,-77.422,4.74073e-15,771.081,241.682)"><stop offset="0" style="stop-color:#1342ec;stop-opacity:1"/><stop offset="1" style="stop-color:#113dd4;stop-opacity:1"/></linearGradient><linearGradient id="_Linear21" x1="0" y1="0" x2="1" y2="0" gradientUnits="userSpaceOnUse" gradientTransform="matrix(4.80479e-15,78.4682,-78.4682,4.80479e-15,729.754,240.636)"><stop offset="0" style="stop-color:#4268f0;stop-opacity:1"/><stop offset="1" style="stop-color:#2c58ee;stop-opacity:1"/></linearGradient><linearGradient id="_Linear22" x1="0" y1="0" x2="1" y2="0" gradientUnits="userSpaceOnUse" gradientTransform="matrix(4.74073e-15,77.422,-77.422,4.74073e-15,771.081,241.682)"><stop offset="0" style="stop-color:#1342ec;stop-opacity:1"/><stop offset="1" style="stop-color:#113dd4;stop-opacity:1"/></linearGradient><linearGradient id="_Linear23" x1="0" y1="0" x2="1" y2="0" gradientUnits="userSpaceOnUse" gradientTransform="matrix(4.80479e-15,78.4682,-78.4682,4.80479e-15,729.754,240.636)"><stop offset="0" style="stop-color:#4268f0;stop-opacity:1"/><stop offset="1" style="stop-color:#2c58ee;stop-opacity:1"/></linearGradient><linearGradient id="_Linear24" x1="0" y1="0" x2="1" y2="0" gradientUnits="userSpaceOnUse" gradientTransform="matrix(4.74073e-15,77.422,-77.422,4.74073e-15,771.081,241.682)"><stop offset="0" style="stop-color:#1342ec;stop-opacity:1"/><stop offset="1" style="stop-color:#113dd4;stop-opacity:1"/></linearGradient><linearGradient id="_Linear25" x1="0" y1="0" x2="1" y2="0" gradientUnits="userSpaceOnUse" gradientTransform="matrix(4.80479e-15,78.4682,-78.4682,4.80479e-15,729.754,240.636)"><stop offset="0" style="stop-color:#4268f0;stop-opacity:1"/><stop offset="1" style="stop-color:#2c58ee;stop-opacity:1"/></linearGradient><linearGradient id="_Linear26" x1="0" y1="0" x2="1" y2="0" gradientUnits="userSpaceOnUse" gradientTransform="matrix(4.74073e-15,77.422,-77.422,4.74073e-15,771.081,241.682)"><stop offset="0" style="stop-color:#1342ec;stop-opacity:1"/><stop offset="1" style="stop-color:#113dd4;stop-opacity:1"/></linearGradient><linearGradient id="_Linear27" x1="0" y1="0" x2="1" y2="0" gradientUnits="userSpaceOnUse" gradientTransform="matrix(4.80479e-15,78.4682,-78.4682,4.80479e-15,729.754,240.636)"><stop offset="0" style="stop-color:#4268f0;stop-opacity:1"/><stop offset="1" style="stop-color:#2c58ee;stop-opacity:1"/></linearGradient><linearGradient id="_Linear28" x1="0" y1="0" x2="1" y2="0" gradientUnits="userSpaceOnUse" gradientTransform="matrix(4.74073e-15,77.422,-77.422,4.74073e-15,771.081,241.682)"><stop offset="0" style="stop-color:#1342ec;stop-opacity:1"/><stop offset="1" style="stop-color:#113dd4;stop-opacity:1"/></linearGradient><linearGradient id="_Linear29" x1="0" y1="0" x2="1" y2="0" gradientUnits="userSpaceOnUse" gradientTransform="matrix(4.80479e-15,78.4682,-78.4682,4.80479e-15,729.754,240.636)"><stop offset="0" style="stop-color:#4268f0;stop-opacity:1"/><stop offset="1" style="stop-color:#2c58ee;stop-opacity:1"/></linearGradient><linearGradient id="_Linear30" x1="0" y1="0" x2="1" y2="0" gradientUnits="userSpaceOnUse" gradientTransform="matrix(4.74073e-15,77.422,-77.422,4.74073e-15,771.081,241.682)"><stop offset="0" style="stop-color:#1342ec;stop-opacity:1"/><stop offset="1" style="stop-color:#113dd4;stop-opacity:1"/></linearGradient><linearGradient id="_Linear31" x1="0" y1="0" x2="1" y2="0" gradientUnits="userSpaceOnUse" gradientTransform="matrix(4.80479e-15,78.4682,-78.4682,4.80479e-15,729.754,240.636)"><stop offset="0" style="stop-color:#4268f0;stop-opacity:1"/><stop offset="1" style="stop-color:#2c58ee;stop-opacity:1"/></linearGradient><linearGradient id="_Linear32" x1="0" y1="0" x2="1" y2="0" gradientUnits="userSpaceOnUse" gradientTransform="matrix(4.74073e-15,77.422,-77.422,4.74073e-15,771.081,241.682)"><stop offset="0" style="stop-color:#1342ec;stop-opacity:1"/><stop offset="1" style="stop-color:#113dd4;stop-opacity:1"/></linearGradient><linearGradient id="_Linear33" x1="0" y1="0" x2="1" y2="0" gradientUnits="userSpaceOnUse" gradientTransform="matrix(4.80479e-15,78.4682,-78.4682,4.80479e-15,729.754,240.636)"><stop offset="0" style="stop-color:#4268f0;stop-opacity:1"/><stop offset="1" style="stop-color:#2c58ee;stop-opacity:1"/></linearGradient><linearGradient id="_Linear34" x1="0" y1="0" x2="1" y2="0" gradientUnits="userSpaceOnUse" gradientTransform="matrix(4.74073e-15,77.422,-77.422,4.74073e-15,771.081,241.682)"><stop offset="0" style="stop-color:#1342ec;stop-opacity:1"/><stop offset="1" style="stop-color:#113dd4;stop-opacity:1"/></linearGradient><linearGradient id="_Linear35" x1="0" y1="0" x2="1" y2="0" gradientUnits="userSpaceOnUse" gradientTransform="matrix(4.80479e-15,78.4682,-78.4682,4.80479e-15,729.754,240.636)"><stop offset="0" style="stop-color:#4268f0;stop-opacity:1"/><stop offset="1" style="stop-color:#2c58ee;stop-opacity:1"/></linearGradient><linearGradient id="_Linear36" x1="0" y1="0" x2="1" y2="0" gradientUnits="userSpaceOnUse" gradientTransform="matrix(4.74073e-15,77.422,-77.422,4.74073e-15,771.081,241.682)"><stop offset="0" style="stop-color:#1342ec;stop-opacity:1"/><stop offset="1" style="stop-color:#113dd4;stop-opacity:1"/></linearGradient><linearGradient id="_Linear37" x1="0" y1="0" x2="1" y2="0" gradientUnits="userSpaceOnUse" gradientTransform="matrix(4.80479e-15,78.4682,-78.4682,4.80479e-15,729.754,240.636)"><stop offset="0" style="stop-color:#4268f0;stop-opacity:1"/><stop offset="1" style="stop-color:#2c58ee;stop-opacity:1"/></linearGradient><linearGradient id="_Linear38" x1="0" y1="0" x2="1" y2="0" gradientUnits="userSpaceOnUse" gradientTransform="matrix(4.74073e-15,77.422,-77.422,4.74073e-15,771.081,241.682)"><stop offset="0" style="stop-color:#1342ec;stop-opacity:1"/><stop offset="1" style="stop-color:#113dd4;stop-opacity:1"/></linearGradient></defs></svg>