<?xml version="1.0" encoding="UTF-8" standalone="no"?>
<svg
   width="100%"
   height="100%"
   viewBox="0 0 1267 320"
   version="1.1"
   xml:space="preserve"
   style="fill-rule:evenodd;clip-rule:evenodd;stroke-linejoin:round;stroke-miterlimit:2;"
   id="svg11"
   sodipodi:docname="merlin-logo-text.svg"
   inkscape:version="1.4.2 (f4327f4, 2025-05-13)"
   xmlns:inkscape="http://www.inkscape.org/namespaces/inkscape"
   xmlns:sodipodi="http://sodipodi.sourceforge.net/DTD/sodipodi-0.dtd"
   xmlns:xlink="http://www.w3.org/1999/xlink"
   xmlns="http://www.w3.org/2000/svg"
   xmlns:svg="http://www.w3.org/2000/svg"><sodipodi:namedview
   id="namedview11"
   pagecolor="#505050"
   bordercolor="#eeeeee"
   borderopacity="1"
   inkscape:showpageshadow="0"
   inkscape:pageopacity="0"
   inkscape:pagecheckerboard="0"
   inkscape:deskcolor="#d1d1d1"
   inkscape:zoom="3.8232044"
   inkscape:cx="539.07659"
   inkscape:cy="213.82587"
   inkscape:window-width="3840"
   inkscape:window-height="2036"
   inkscape:window-x="-12"
   inkscape:window-y="-12"
   inkscape:window-maximized="1"
   inkscape:current-layer="image" />
    <g
   id="image"
   transform="matrix(1,0,0,1,-758.329,-1162.1)">
        <g
   id="logo"
   transform="matrix(1.54626,0,0,1.54626,748.329,1164.02)">
            <path
   d="M7.515,137.572L7.507,1.072L52.041,1.072L100.386,55.072L150.217,1.04L194.884,0.998L195.113,137.021L124.085,204.539L123.333,161.83L158.04,124.78L157.956,47.572L100.819,110.316L44.007,46.742L44.243,124.462L78.214,161.696L77.882,204.539L7.515,137.572Z"
   style="fill:url(#_Linear1);fill-rule:nonzero;stroke:url(#_Linear2);stroke-width:2.08px;"
   id="path1" />
        </g>
        <g
   id="merlin-text"
   transform="matrix(1.35074,0,0,1.35074,1098.71,1376.12)"
   inkscape:label="merlin">
            <text
   x="0px"
   y="0px"
   style="font-family:'FranklinGothic-Medium', 'Franklin Gothic Medium', sans-serif;font-size:206.249px;fill:url(#linearGradient73);stroke:url(#linearGradient85);stroke-width:1.89px;fill-opacity:1;stroke-opacity:1"
   id="text1"
   inkscape:label="merlin-text">MERLIN</text>
        </g>
        <g
   id="g11"
   inkscape:label="mvc-framework"><text
     x="0"
     y="0"
     style="fill-rule:evenodd;clip-rule:evenodd;stroke-linejoin:round;stroke-miterlimit:2;font-size:98.961px;font-family:DroidSans, 'Droid Sans', sans-serif;fill:url(#linearGradient90);stroke:url(#linearGradient88);stroke-width:1.55px;fill-opacity:1"
     id="text2"
     transform="translate(1109.5036,1479.69)"
     inkscape:label="mvc-framework-text">MVC Framework</text></g>
        <g
   id="bird"
   transform="matrix(0.0751063,0,0,0.0751063,1709.48,1281.81)">
            <path
   id="path2"
   d="M346.238,890.232C339.833,883.993 337.641,878.311 338.162,869.302C338.678,860.391 341.71,854.269 349.25,846.914C358.562,837.831 358.186,837.555 336.073,837.227C313.427,836.891 309.378,837.789 302.616,844.647C295.196,852.173 291.779,863.954 293.811,875C294.368,878.025 294.631,880.694 294.397,880.932C293.524,881.815 287.129,874.654 284.536,869.889C280.88,863.171 280.276,855.958 282.489,845.415C283.468,840.751 283.997,836.664 283.665,836.332C283.334,836 265.964,835.742 245.066,835.759C208.047,835.787 206.953,835.844 202.546,837.978C194.012,842.109 187.112,852.156 184.568,864.156L183.222,870.5L181.447,866.5C180.385,864.109 179.495,859.081 179.233,854C178.522,840.221 183.374,829.064 193.638,820.88C204.546,812.183 209.895,811.139 246.346,810.587C272.647,810.19 276.415,809.934 278.073,808.434C280.113,806.588 286.602,796.486 303.727,768.5C321.113,740.086 324,735.202 324,734.207C324,733.694 321.074,728.959 317.499,723.685C304.738,704.867 291.231,674.364 284.884,650.033C283.23,643.69 281.566,638.237 281.188,637.916C280.81,637.595 275.555,633.545 269.512,628.916C239.523,605.948 213.609,580.236 194.145,554.14C161.904,510.912 145.559,468.471 139.983,413.5C138.566,399.535 138.571,359.335 139.991,338.5C142.998,294.386 151.725,244.196 161.046,217.402C165.062,205.857 174.572,186.061 180.551,176.801C203.375,141.453 237.434,119.582 279.277,113.404C293.857,111.251 320.211,111.96 333.5,114.862C370.198,122.878 396.061,141.307 408.429,168.256C410.257,172.24 412.523,177.643 413.464,180.261C414.404,182.88 416.023,185.477 417.06,186.032C422.201,188.784 431.646,197.941 435.452,203.865C443.094,215.759 446.642,220.513 448.055,230.824C449.468,241.135 446.951,250.678 443.389,255.955C439.826,261.233 435.961,264.719 435.092,263.276C428.658,252.588 421.354,249.72 414.289,248.394C408.794,247.364 405.864,248.936 402.359,254.796C396.373,264.803 395.542,278.481 400.282,289C404.074,297.417 410.345,302.651 432,315.474C465.638,335.393 496.288,359.372 526.417,389.343C553.335,416.12 568.93,433.96 610.477,485.5C681.446,573.539 736.478,635.551 776.5,672.58C804.836,698.797 828.416,718.422 855.812,738.589L861.125,742.5L856.312,742.823C850.354,743.223 843.969,741.997 825.203,736.852C799.713,729.862 747.079,713.098 735.618,708.317C727.232,704.819 725.285,707.691 732.442,713C734.296,714.375 743.81,722.25 753.584,730.5C763.359,738.75 774.117,747.75 777.491,750.5C780.864,753.25 801.147,770.143 822.562,788.04C843.978,805.937 875.097,831.942 891.716,845.83C908.334,859.718 922.176,871.476 922.475,871.96C923.209,873.148 918.75,874.521 904.497,877.496C886.945,881.16 871.417,882.315 848,881.702C825.674,881.117 818.229,879.838 803.268,874.017C793.772,870.322 790.486,867.834 754.38,837C738.601,823.525 724.297,811.386 722.595,810.025C720.893,808.663 712.075,801.252 703,793.555C684.555,777.911 630.809,733.026 618.493,722.981C601.492,709.115 604.019,710.332 587.417,708.01C568.692,705.392 553.474,702.736 535.232,698.902C527.385,697.253 520.522,696.177 519.982,696.511C519.395,696.874 519,704.712 519,715.979C519,741.433 516.484,776.849 514.538,778.796C513.492,779.841 495.956,775.966 484.091,772.069C471.385,767.895 451.355,758.406 441.843,752.054C438.504,749.824 434.976,748 434.004,748C432.653,748 431.599,750.066 429.539,756.75C425.632,769.431 418.824,788.065 414.105,799C411.85,804.225 410.004,809.063 410.002,809.75C410,810.668 412.726,811.005 420.25,811.02C444.087,811.066 457.712,816.183 465.145,827.881C471.716,838.221 473.018,851.754 468.426,861.986C466.941,865.294 465.389,868 464.977,868C464.565,868 463.918,865.862 463.541,863.25C461.894,851.841 454.271,841.579 445.208,838.569C440.951,837.155 436.499,836.944 416.295,837.199L392.413,837.5L384.067,843.5C371.136,852.796 357.583,866.11 354.374,872.668C351.51,878.522 350.754,885.577 352.329,891.75C353.48,896.259 352.063,895.906 346.238,890.232ZM830,855.244C830,854.487 803.966,830.066 794.417,821.865C791.622,819.464 781.497,810.486 771.917,801.913C718.317,753.947 676.215,720.895 672.018,723.489C670.379,724.502 691.031,746.875 707.31,761.723C722.215,775.318 743.356,794.016 754.079,803.086C806.366,847.318 804.749,846.082 818.5,852.325C826.263,855.85 830,856.799 830,855.244ZM375.203,809.953C384.301,805.806 401.068,763.04 407.025,728.785L408.193,722.07L399.253,713.285C394.337,708.453 388.963,702.737 387.312,700.583C385.483,698.196 383.758,696.879 382.895,697.21C381.805,697.629 380.694,705.885 378.063,733.127C376.184,752.582 374.558,768.631 374.448,768.792C374.002,769.447 362.104,761.784 356.611,757.303C348.378,750.587 348.428,750.619 346.886,751.237C344.838,752.058 309.695,808.697 310.463,809.939C311.357,811.387 372.028,811.4 375.203,809.953ZM496.78,753.157C497.684,752.583 498.401,746.378 499.22,732.018C500.553,708.669 499.222,679.61 496.038,662.5C495.014,657 494.346,652.328 494.555,652.117C494.763,651.906 501.136,654.022 508.717,656.82C542.237,669.19 564.061,674.91 610,683.368C628.771,686.824 633.717,687.574 656.5,690.421C680.622,693.435 684.698,693.702 686.047,692.353C688.141,690.259 691.166,691.449 628,669.533C569.879,649.368 550.161,642.003 519.5,629.002C415.781,585.025 356.169,545.568 317.695,495.429C302.805,476.024 291.69,452.749 285.972,429C282.698,415.402 282.635,389.274 285.849,377.5C290.586,360.141 300.273,344.781 312.722,334.888C324.469,325.552 333.046,321.212 348.5,316.782C354.621,315.028 372.562,313.87 391.75,313.992C394.12,314.007 392.985,311.678 388.11,306.523C379.268,297.174 375.426,286.476 376.267,273.552C376.885,264.063 379.752,255.788 384.642,249.382C389.004,243.667 388.736,241.691 383.49,240.892C379.68,240.311 379.648,240.277 382.785,240.142C385.781,240.013 385.973,239.818 384.966,237.936C383.472,235.144 385.04,233.392 389.786,232.551C397.921,231.11 396.998,230.476 386,229.949L374.5,229.399L389.066,229.199C406.077,228.967 413.325,230.065 421.28,234.082C430.386,238.679 431.09,238.148 429.867,227.606C428.858,218.903 422.388,206.469 415.675,200.334C410.415,195.526 399.552,189 396.81,189C394.28,189 383.568,197.555 376.764,205.01C373.02,209.113 370.344,211.399 370.648,210.237C371.318,207.676 368.174,205.772 363.067,205.647L359.5,205.56L362.25,200.139C366.16,192.432 365.891,188.562 360.928,181.13C349.927,164.656 328.813,154.938 303.5,154.698C296.628,154.633 289.577,155.117 287,155.83C279.577,157.884 273.826,159.466 273.828,161.168C273.83,162.543 277.221,163.231 288.619,163.381C295.905,163.476 302.85,164.257 304.5,164.756L307.5,165.665L304.365,167.299C300.192,169.474 293.376,177.33 291.972,181.584C291.352,183.463 290.71,185 290.545,185C290.379,185 288.599,184.313 286.589,183.473C284.579,182.633 278.114,180.784 272.222,179.364C256.851,175.66 246.559,176.205 235.644,181.3C220.861,188.202 207.255,198.913 195.436,215.669C180.613,236.685 169.859,266.205 164.761,297.383C159.663,328.562 162.559,310.046 160.31,329.141C158.924,340.904 157.765,354.603 157.788,378.345C158.19,407.365 159.793,421.042 165.12,444C182.211,517.653 225.971,577.033 299,625.665C317.431,637.939 356.358,660 359.585,660C362.18,660 361.052,656.907 354.902,647.163C346.385,633.666 332.752,605.568 328.47,592.687C324.698,581.341 324.333,577.763 327.441,582.613C329.287,585.494 331.508,588.532 350.384,614C355.887,621.425 362.04,629.75 364.056,632.5C381.91,656.852 401.106,682.239 407.912,690.5C433.934,722.091 459.251,741.603 486.5,751.07C495.881,754.329 495.163,754.183 496.78,753.157ZM370.75,230.338C371.438,230.06 372.563,230.06 373.25,230.338C373.938,230.615 373.375,230.842 372,230.842C370.625,230.842 370.063,230.615 370.75,230.338ZM320.558,206.541C315.023,204.523 311.953,201.995 309.652,197.561C303.669,186.032 312.217,172.061 325.282,172.016C331.525,171.995 335.793,173.862 339.716,178.33C343.24,182.343 344.521,187.077 343.713,193.101C342.364,203.159 330.374,210.118 320.558,206.541ZM720.759,665.776C720.326,664.477 699.346,651.196 674.5,636.492C637.229,614.436 613.815,598.905 583.5,576.129C557.487,556.585 524.23,526.486 542.32,538.859C551.856,545.382 624.141,584.684 656.525,600.954C682.934,614.222 691.406,617.927 692.601,616.733C692.925,616.408 684.76,606.548 674.455,594.821C655.67,573.446 626.291,538.552 617.952,527.714C613.143,521.464 613.007,521.402 602.313,520.562C594.259,519.93 574.978,515.219 567.779,512.125C565.183,511.009 562.85,510.433 562.596,510.845C562.341,511.257 565.053,515.063 568.621,519.304C572.189,523.545 574.833,527.461 574.495,528.007C573.537,529.558 549.206,529.197 540.344,527.501C529.329,525.394 509.653,518.655 499.821,513.623C474.437,500.63 449.691,480.016 432.618,457.64C426.486,449.605 425.866,447.431 430.671,450.817C434.272,453.354 465.119,471.902 475,477.471C482.817,481.876 497.851,488.244 509,491.872C518.221,494.872 532.965,497.865 533.585,496.862C534.288,495.725 533.944,495.23 522.904,481.465C509.743,465.055 499.84,451.827 500.341,451.325C500.571,451.096 505.875,454.235 512.129,458.302C526.152,467.42 542.465,477.101 555,483.744C571.134,492.294 590,498.965 590,496.121C590,494.319 558.398,455.712 540.704,435.898C497.065,387.03 457.1,355.937 419,341.212C406.284,336.297 390.45,333.098 375,332.322C350.278,331.08 334.902,336.594 320.947,351.705C286.917,388.557 305.969,456.279 365.5,510.07C398.717,540.084 440.314,565.917 483.5,583.352C497.336,588.937 523.195,598 525.298,598C527.008,598 525.732,596.277 522.75,594.559C505.216,584.457 464.285,554.372 445,537.409C427.03,521.603 397.365,490.39 402.008,492.173C402.828,492.488 410.025,496.993 418,502.183C425.975,507.373 441.05,516.872 451.5,523.291C461.95,529.71 475.542,538.233 481.704,542.231C553.485,588.804 563.436,594.579 618,621.34C649.572,636.825 672.569,647.49 690,654.731C721.978,668.014 721.44,667.821 720.759,665.776Z"
   style="fill:rgb(45,51,52);fill-rule:nonzero;stroke:black;stroke-width:2px;" />
            <path
   id="path3"
   d="M818.5,852.325C806.568,846.907 802.409,843.957 780,825.007C768.725,815.473 757.06,805.608 754.079,803.086C743.356,794.016 722.215,775.318 707.31,761.723C691.031,746.875 670.379,724.502 672.018,723.489C676.215,720.895 718.317,753.947 771.917,801.913C781.497,810.486 791.622,819.464 794.417,821.865C803.966,830.066 830,854.487 830,855.244C830,856.799 826.263,855.85 818.5,852.325ZM817.788,845.153C812.68,840.287 804.225,832.577 799,828.019C793.775,823.461 785.45,816.032 780.5,811.51C736.902,771.678 683.1,728 677.632,728C677.288,728 680.48,732.053 684.724,737.007C694.357,748.25 728.646,779.819 758.031,804.5C762.615,808.35 773.82,817.828 782.932,825.562C792.045,833.296 801.64,841.082 804.256,842.864C808.573,845.805 824.379,853.74 826.288,853.924C826.721,853.966 822.896,850.019 817.788,845.153ZM709,662.587C686.329,653.248 680.955,650.955 666,644.24C644.751,634.699 588.447,607.012 572,598.017C548.36,585.089 535.78,577.316 481.704,542.231C475.542,538.233 461.95,529.71 451.5,523.291C441.05,516.872 425.975,507.373 418,502.183C410.025,496.993 402.828,492.488 402.008,492.173C397.365,490.39 427.03,521.603 445,537.409C464.285,554.372 505.216,584.457 522.75,594.559C525.732,596.277 527.008,598 525.298,598C524.911,598 518.949,596.157 512.048,593.905C443.902,571.668 378.769,529.971 341.008,484.408C305.507,441.573 294.9,395.713 312.825,362.552C318.606,351.858 332.534,339.77 343.526,335.906C356.69,331.28 376.458,330.957 397.5,335.026C426.473,340.629 459.729,359.211 493,388.388C511.319,404.454 523.115,416.201 540.704,435.898C558.398,455.712 590,494.319 590,496.121C590,498.965 571.134,492.294 555,483.744C542.465,477.101 526.152,467.42 512.129,458.302C505.875,454.235 500.571,451.096 500.341,451.325C499.84,451.827 509.743,465.055 522.904,481.465C533.944,495.23 534.288,495.725 533.585,496.862C532.965,497.865 518.221,494.872 509,491.872C497.851,488.244 482.817,481.876 475,477.471C465.119,471.902 434.272,453.354 430.671,450.817C425.866,447.431 426.486,449.605 432.618,457.64C449.691,480.016 474.437,500.63 499.821,513.623C509.653,518.655 529.329,525.394 540.344,527.501C549.206,529.197 573.537,529.558 574.495,528.007C574.833,527.461 572.189,523.545 568.621,519.304C565.053,515.063 562.341,511.257 562.596,510.845C562.85,510.433 565.183,511.009 567.779,512.125C574.978,515.219 594.259,519.93 602.313,520.562C613.007,521.402 613.143,521.464 617.952,527.714C626.291,538.552 655.67,573.446 674.455,594.821C684.76,606.548 692.925,616.408 692.601,616.733C691.406,617.927 682.934,614.222 656.525,600.954C624.141,584.684 551.856,545.382 542.32,538.859C524.23,526.486 557.487,556.585 583.5,576.129C613.815,598.905 637.229,614.436 674.5,636.492C709.517,657.215 724.504,667.177 720.333,666.956C719.875,666.932 714.775,664.965 709,662.587ZM702.45,655.175C696.427,651.421 684.75,644.371 676.5,639.508C619.15,605.704 569.479,569.941 538.75,540.329C530.432,532.314 528.703,530 531.032,530C531.6,530 535.537,532.403 539.782,535.34C546.723,540.142 564.499,550.165 615,577.749C645.2,594.244 689,615.921 689,614.372C689,613.805 683.862,607.741 671,593.129C655.588,575.622 622.928,536.536 614.954,526.059C612.525,522.867 612.068,522.699 604.954,522.374C596.774,522 583.935,519.267 573.027,515.576C569.162,514.268 566.002,513.491 566.004,513.849C566.006,514.207 568.526,517.322 571.603,520.771C574.68,524.22 576.966,527.647 576.682,528.386C575.472,531.538 550.138,531.501 536,528.325C497.272,519.627 457.685,492.919 430.722,457.298C423.685,448.002 421.945,445 423.591,445C423.916,445 428.754,447.855 434.341,451.344C472.188,474.978 485.385,482.016 504,488.497C513.91,491.948 531.034,496.3 531.776,495.557C531.964,495.37 527.478,489.43 521.808,482.357C516.139,475.285 508.217,465.096 504.205,459.715C493.256,445.029 493.369,444.042 505.072,452.139C517.92,461.029 544.945,476.916 559.5,484.137C572.046,490.361 586.461,495.872 587.494,494.839C587.837,494.496 580.609,485.399 559.727,459.895C523.897,416.134 481.794,376.95 451.16,358.856C420.752,340.895 398.182,333.984 370.035,334.015C349.579,334.037 339.541,337.089 327.274,347.014C320.032,352.874 313.973,361.963 309.896,373.084C296.66,409.179 315.213,458.746 357.613,500.568C364.342,507.206 374.181,516.206 379.479,520.568C407.861,543.943 446.556,566.741 483,581.561C497.313,587.382 517.067,594.311 517.61,593.702C517.709,593.591 511.453,589.225 503.708,584C464.082,557.267 426.717,525.025 404.092,498.043C393.063,484.89 393.774,484.904 414.185,498.244C422.059,503.39 434.126,511.013 441.001,515.185C467.349,531.173 470.246,533.01 511.286,559.767C546.329,582.615 572.049,597.053 619,620.232C653.702,637.364 708.501,661.839 712.45,661.969C712.972,661.986 708.472,658.929 702.45,655.175ZM165.998,298.002C171.541,264.1 181.479,237.303 196.302,216.288C208.121,199.532 220.861,188.202 235.644,181.3C246.559,176.205 256.851,175.66 272.222,179.364C278.114,180.784 284.603,182.643 286.644,183.496C289.605,184.733 290.346,186.986 286.44,185.14C279,181.622 264.068,178.55 254.5,178.567C246.583,178.581 244.575,178.977 237.809,181.86C222.111,188.55 208.277,200.982 195.716,219.689C182.236,239.763 173.306,264.263 167.535,297C168.696,300.504 161.207,327.301 165.998,298.002ZM347.774,249.826C348.673,248.927 348.472,247.881 346.917,245.366C345.317,242.777 345.116,241.653 345.966,240.063C346.847,238.417 346.674,237.813 345.023,236.782C343.91,236.087 343,234.727 343,233.759C343,232.792 342.325,232 341.5,232C340.675,232 340,231.374 340,230.608C340,229.843 338.875,228.934 337.5,228.589C335.237,228.021 333.834,225 335.833,225C336.292,225 336.667,224.404 336.667,223.675C336.667,222.654 334.928,222.448 329.083,222.779C324.912,223.015 319.925,222.75 318,222.189C314.937,221.298 315.249,221.231 320.5,221.656C324.691,221.995 328.887,221.517 334.414,220.07C345.807,217.087 350.594,214.276 358.05,205.142C360.112,202.615 363.263,198.846 363.17,201.439C363.076,204.032 365.94,204.417 369.283,205.806C373.623,207.56 371.134,211.933 365.118,220.522C359.101,229.112 360.503,229.827 365.25,230.394C369.997,230.961 358.41,229.659 386.026,229.7C413.642,229.741 385.619,232.059 389.133,238.621C390.449,241.081 385.809,247.494 383.281,247.935C377.292,248.982 359.465,245.816 352.43,248.928C347.07,251.299 346.117,251.483 347.774,249.826Z"
   style="fill:rgb(60,67,69);fill-rule:nonzero;" />
            <path
   id="path4"
   d="M817.256,849.976C806.215,844.791 802.336,842.032 782.932,825.562C773.82,817.828 762.615,808.35 758.031,804.5C728.646,779.819 694.357,748.25 684.724,737.007C680.48,732.053 677.288,728 677.632,728C683.1,728 736.902,771.678 780.5,811.51C785.45,816.032 793.775,823.461 799,828.019C810.755,838.273 827.35,854.026 826.288,853.924C825.855,853.882 821.79,852.106 817.256,849.976ZM697.5,656.121C671.531,645.331 648.643,634.867 619,620.232C572.049,597.053 546.329,582.615 511.286,559.767C470.246,533.01 467.349,531.173 441.001,515.185C434.126,511.013 422.059,503.39 414.185,498.244C393.774,484.904 393.063,484.89 404.092,498.043C426.717,525.025 464.082,557.267 503.708,584C511.453,589.225 517.708,593.591 517.61,593.702C517.51,593.813 513.395,592.636 508.465,591.087C493.871,586.502 467.607,575.423 451,566.847C366.01,522.953 312.421,463.692 306.088,406.595C303.523,383.466 312.126,359.271 327.274,347.014C339.541,337.089 349.579,334.037 370.035,334.015C398.182,333.984 420.752,340.895 451.16,358.856C481.794,376.95 523.897,416.134 559.727,459.895C580.609,485.399 587.837,494.496 587.494,494.839C586.461,495.872 572.046,490.361 559.5,484.137C544.945,476.916 517.92,461.029 505.072,452.139C493.369,444.042 493.256,445.029 504.205,459.715C508.217,465.096 516.139,475.285 521.808,482.357C527.478,489.43 531.964,495.37 531.776,495.557C531.034,496.3 513.91,491.948 504,488.497C485.385,482.016 472.188,474.978 434.341,451.344C423.661,444.674 423,444.366 423,446.048C423,447.922 438.236,467.283 446.472,475.874C460.06,490.049 480.761,505.478 498.506,514.659C507.489,519.307 526.183,526.12 536,528.325C550.138,531.501 575.472,531.538 576.682,528.386C576.966,527.647 574.68,524.221 571.603,520.771C568.526,517.322 566.007,514.207 566.004,513.849C566.002,513.491 569.162,514.268 573.027,515.576C583.935,519.267 596.774,522 604.954,522.374C612.068,522.699 612.525,522.867 614.954,526.059C622.928,536.536 655.588,575.622 671,593.129C683.862,607.741 689,613.805 689,614.372C689,615.921 645.2,594.245 615,577.749C564.499,550.165 546.723,540.142 539.782,535.34C535.537,532.403 531.6,530 531.032,530C528.703,530 530.432,532.314 538.75,540.329C569.479,569.941 619.15,605.704 676.5,639.508C696.311,651.185 713.633,662.008 712.45,661.969C711.927,661.952 705.2,659.32 697.5,656.121ZM194.99,324.107C184.151,323.326 174.673,323.996 167.324,321.55C159.976,319.105 163.245,316.523 167.35,295.027C171.456,273.53 182.54,236.776 195.592,217.339C208.644,197.901 222.111,188.55 237.809,181.86C244.575,178.977 246.583,178.581 254.5,178.567C264.068,178.55 279,181.622 286.44,185.14C288.607,186.164 290.632,186.597 290.94,186.101C291.248,185.605 295.483,206.451 302.08,212.382C308.502,218.156 315.102,220.414 325.5,220.394C332.46,220.381 332.98,220.494 329.5,221.263C327.3,221.748 323.025,221.92 320,221.644C315.031,221.191 314.838,221.242 318,222.175C319.925,222.743 324.913,223.015 329.083,222.779C334.928,222.448 336.667,222.654 336.667,223.675C336.667,224.404 336.292,225 335.833,225C333.834,225 335.237,228.021 337.5,228.589C338.875,228.934 340,229.843 340,230.608C340,231.374 340.675,232 341.5,232C342.325,232 343,232.792 343,233.759C343,234.727 343.91,236.087 345.023,236.782C346.674,237.813 346.847,238.417 345.966,240.063C345.116,241.653 345.317,242.777 346.917,245.366C348.532,247.979 348.697,248.923 347.724,249.973C346.729,251.047 346.8,251.147 348.426,250.507C357.414,246.944 327.885,266.724 322.99,270.968C295.423,294.628 275.017,306.947 249.517,315.399C231.088,321.507 214.112,325.486 194.99,324.107Z"
   style="fill:rgb(69,78,81);fill-rule:nonzero;" />
            <path
   id="path7"
   d="M423.597,234.882C414.883,230.447 405.872,228.871 381.612,229.612C369.689,229.976 363.519,230.417 362.287,229.5C361.054,228.584 362.744,218.167 368.774,211.011C379.251,198.577 382.196,196.511 389.666,192.032C397.136,187.554 400.742,188.256 410.754,195.711C420.765,203.167 427.542,213.541 429.898,224.754C432.254,235.966 432.311,239.316 423.597,234.882ZM311.839,217.247C305.688,214.439 292.452,203.366 292.255,189.67C292.126,180.713 293.557,174.596 303.892,167.813C305.267,166.911 304.623,167.619 307.482,165.696C306.225,164.39 301.215,163.841 293.12,163.464C285.025,163.088 272.545,163.795 272.253,161.782C271.962,159.769 279.185,156.383 293.45,154.093C302.969,152.564 320.394,154.208 331.052,158.134C341.709,162.06 350.517,168.479 359.233,178.716C367.948,188.953 366.481,197.511 357.226,206.733C347.972,215.955 344.53,216.786 334.919,219.244C326.078,221.505 317.991,220.056 311.839,217.247ZM344.689,188.897C344.372,180.288 336.587,171.217 325.566,171.502C314.546,171.788 307.049,180.621 307.227,189.968C307.405,199.315 314.72,207.773 326.601,207.694C338.483,207.616 345.005,197.507 344.689,188.897Z"
   style="fill:rgb(218,188,89);fill-rule:nonzero;stroke:black;stroke-width:2px;" />
            <path
   id="path6"
   d="M396.699,675.588C388.817,665.651 337.366,593.857 329.74,582.775C325.251,576.252 321.6,576.59 327.708,593.561C333.815,610.531 347.176,636.978 354.877,649.419C362.578,661.859 365.147,661.403 350.475,655.126C345.52,653.006 295.238,624.47 264.781,598.84C234.324,573.209 214.189,551.658 191.15,510.103C168.111,468.548 158.552,416.418 159.174,384.721C159.796,353.025 160.508,324.703 163.002,317.988C171.556,322.035 185.928,322.409 213.931,321.585C241.933,320.761 279.671,304.726 308.944,281.036C338.216,257.347 338.342,257.139 350.405,250.425C360.983,244.537 394.893,238.721 387.38,247.173C380.026,255.447 377.25,261.044 376.288,272.809C375.326,284.573 378.243,293.377 382.678,300.236C387.112,307.095 392.073,312.387 391.864,312.431C391.655,312.475 384.141,313.063 376.956,313.226C289.159,314.431 280.521,383.023 283.046,411.708C285.57,440.393 300.231,486.806 350.363,531.877C400.495,576.949 478.533,613.548 547.828,640.824C617.122,668.1 656.056,678.362 679.518,688.37C702.981,698.378 646.806,688.661 616.779,683.84C586.752,679.019 535.53,666.089 514.82,657.943C494.11,649.797 493.019,645.745 495.757,662.015C498.496,678.285 499.055,693.212 498.672,718.162C498.29,743.113 499.477,753.375 491.903,753.214C488.084,753.132 461.011,739.732 449.694,730.322C438.378,720.912 404.58,685.525 396.699,675.588Z"
   style="fill:rgb(255,254,227);" />
        </g>
    </g>
    <defs
   id="defs11"><linearGradient
   id="linearGradient89"
   inkscape:collect="always"><stop
     style="stop-color:#4268f0;stop-opacity:1;"
     offset="0"
     id="stop89" /><stop
     style="stop-color:#2c58ee;stop-opacity:1;"
     offset="1"
     id="stop90" /></linearGradient><linearGradient
   id="linearGradient86"
   inkscape:collect="always"><stop
     style="stop-color:#1342ec;stop-opacity:1;"
     offset="0"
     id="stop87" /><stop
     style="stop-color:#113dd4;stop-opacity:1;"
     offset="1"
     id="stop88" /></linearGradient><linearGradient
   id="linearGradient83"
   inkscape:collect="always"><stop
     style="stop-color:#115dd4;stop-opacity:1;"
     offset="0"
     id="stop84" /><stop
     style="stop-color:#2594ee;stop-opacity:1;"
     offset="0.50343645"
     id="stop86" /><stop
     style="stop-color:#1157d4;stop-opacity:1;"
     offset="1"
     id="stop85" /></linearGradient><linearGradient
   id="linearGradient82"
   x1="-0.30577731"
   y1="3.2007155"
   x2="-0.30577731"
   y2="-1.5602756"
   gradientUnits="userSpaceOnUse"
   gradientTransform="matrix(0,140.809,-140.809,0,465.533,-1.91577)"
   spreadMethod="pad"><stop
     offset="0"
     style="stop-color:rgb(17,61,212);stop-opacity:1"
     id="stop81" /><stop
     offset="0.50773197"
     style="stop-color:#1a4ce2;stop-opacity:1;"
     id="stop83" /><stop
     offset="1"
     style="stop-color:rgb(36,91,240);stop-opacity:1"
     id="stop82" /></linearGradient><linearGradient
   id="linearGradient79"
   x1="-0.30577731"
   y1="3.2007155"
   x2="-0.30577731"
   y2="-1.5602756"
   gradientUnits="userSpaceOnUse"
   gradientTransform="matrix(0,140.809,-140.809,0,465.533,-1.91577)"
   spreadMethod="pad"><stop
     offset="0"
     style="stop-color:rgb(17,61,212);stop-opacity:1"
     id="stop78" /><stop
     offset="0.5120275"
     style="stop-color:#1a4ce2;stop-opacity:1;"
     id="stop80" /><stop
     offset="1"
     style="stop-color:rgb(36,91,240);stop-opacity:1"
     id="stop79" /></linearGradient><linearGradient
   id="linearGradient76"
   x1="-0.30577731"
   y1="3.2007155"
   x2="-0.30577731"
   y2="-1.5602756"
   gradientUnits="userSpaceOnUse"
   gradientTransform="matrix(8.62206e-15,140.809,-140.809,8.62206e-15,465.533,-1.91577)"><stop
     offset="0"
     style="stop-color:rgb(17,61,212);stop-opacity:1"
     id="stop75" /><stop
     offset="0.5"
     style="stop-color:#1a4ce2;stop-opacity:1;"
     id="stop77" /><stop
     offset="1"
     style="stop-color:rgb(36,91,240);stop-opacity:1"
     id="stop76" /></linearGradient><linearGradient
   id="linearGradient71"
   inkscape:collect="always"><stop
     style="stop-color:#2c78ee;stop-opacity:1;"
     offset="0"
     id="stop72" /><stop
     style="stop-color:#54abf2;stop-opacity:1;"
     offset="0.5025773"
     id="stop74" /><stop
     style="stop-color:#2c72ee;stop-opacity:1;"
     offset="1"
     id="stop73" /></linearGradient><linearGradient
   id="linearGradient70"
   x1="-0.4646129"
   y1="4.3104358"
   x2="-0.4646129"
   y2="-0.40518123"
   gradientUnits="userSpaceOnUse"
   gradientTransform="matrix(0,142.246,-142.246,0,628.373,-0.957886)"
   spreadMethod="pad"><stop
     offset="0"
     style="stop-color:rgb(44,88,238);stop-opacity:1"
     id="stop69" /><stop
     offset="0.51546389"
     style="stop-color:#3f6bf0;stop-opacity:1;"
     id="stop71" /><stop
     offset="1"
     style="stop-color:rgb(81,125,243);stop-opacity:1"
     id="stop70" /></linearGradient><linearGradient
   id="linearGradient67"
   x1="-0.4646129"
   y1="4.3104358"
   x2="-0.4646129"
   y2="-0.40518123"
   gradientUnits="userSpaceOnUse"
   gradientTransform="matrix(0,142.246,-142.246,0,628.373,-0.957886)"
   spreadMethod="pad"><stop
     offset="0"
     style="stop-color:rgb(44,88,238);stop-opacity:1"
     id="stop66" /><stop
     offset="0.52491409"
     style="stop-color:#3f6bf0;stop-opacity:1;"
     id="stop68" /><stop
     offset="1"
     style="stop-color:rgb(81,125,243);stop-opacity:1"
     id="stop67" /></linearGradient><linearGradient
   id="linearGradient65"
   x1="-0.4646129"
   y1="4.3104358"
   x2="-0.4646129"
   y2="-0.40518123"
   gradientUnits="userSpaceOnUse"
   gradientTransform="matrix(0,142.246,-142.246,0,628.373,-0.957886)"
   spreadMethod="pad"><stop
     offset="0"
     style="stop-color:rgb(44,88,238);stop-opacity:1"
     id="stop64" /><stop
     offset="1"
     style="stop-color:#0e42ce;stop-opacity:1;"
     id="stop65" /></linearGradient><linearGradient
   id="linearGradient63"
   x1="-0.4646129"
   y1="4.3104358"
   x2="-0.4646129"
   y2="-0.40518123"
   gradientUnits="userSpaceOnUse"
   gradientTransform="matrix(0,142.246,-142.246,0,628.373,-0.957886)"
   spreadMethod="pad"><stop
     offset="0"
     style="stop-color:rgb(44,88,238);stop-opacity:1"
     id="stop62" /><stop
     offset="1"
     style="stop-color:#0e43d1;stop-opacity:1;"
     id="stop63" /></linearGradient><linearGradient
   id="linearGradient61"
   x1="-0.4646129"
   y1="4.3104358"
   x2="-0.4646129"
   y2="-0.40518123"
   gradientUnits="userSpaceOnUse"
   gradientTransform="matrix(0,142.246,-142.246,0,628.373,-0.957886)"
   spreadMethod="pad"><stop
     offset="0"
     style="stop-color:rgb(44,88,238);stop-opacity:1"
     id="stop60" /><stop
     offset="1"
     style="stop-color:#0e43d1;stop-opacity:1;"
     id="stop61" /></linearGradient><linearGradient
   id="linearGradient59"
   x1="-0.4646129"
   y1="4.3104358"
   x2="-0.4646129"
   y2="-0.40518123"
   gradientUnits="userSpaceOnUse"
   gradientTransform="matrix(0,142.246,-142.246,0,628.373,-0.957886)"
   spreadMethod="pad"><stop
     offset="0"
     style="stop-color:rgb(44,88,238);stop-opacity:1"
     id="stop58" /><stop
     offset="1"
     style="stop-color:#1a54ef;stop-opacity:1;"
     id="stop59" /></linearGradient><linearGradient
   id="linearGradient57"
   x1="-0.4646129"
   y1="4.3104358"
   x2="-0.4646129"
   y2="-0.40518123"
   gradientUnits="userSpaceOnUse"
   gradientTransform="matrix(0,142.246,-142.246,0,628.373,-0.957886)"
   spreadMethod="pad"><stop
     offset="0"
     style="stop-color:rgb(44,88,238);stop-opacity:1"
     id="stop56" /><stop
     offset="1"
     style="stop-color:#3165f1;stop-opacity:1;"
     id="stop57" /></linearGradient><linearGradient
   id="linearGradient55"
   x1="-0.4646129"
   y1="4.3104358"
   x2="-0.4646129"
   y2="-0.40518123"
   gradientUnits="userSpaceOnUse"
   gradientTransform="matrix(0,142.246,-142.246,0,628.373,-0.957886)"
   spreadMethod="pad"><stop
     offset="0"
     style="stop-color:rgb(44,88,238);stop-opacity:1"
     id="stop54" /><stop
     offset="1"
     style="stop-color:#4977f2;stop-opacity:1;"
     id="stop55" /></linearGradient><linearGradient
   id="linearGradient53"
   x1="-0.4646129"
   y1="4.3104358"
   x2="-0.4646129"
   y2="-0.40518123"
   gradientUnits="userSpaceOnUse"
   gradientTransform="matrix(0,142.246,-142.246,0,628.373,-0.957886)"
   spreadMethod="pad"><stop
     offset="0"
     style="stop-color:rgb(44,88,238);stop-opacity:1"
     id="stop52" /><stop
     offset="1"
     style="stop-color:#5580f3;stop-opacity:1;"
     id="stop53" /></linearGradient><linearGradient
   id="linearGradient51"
   x1="-0.4646129"
   y1="4.3104358"
   x2="-0.4646129"
   y2="-0.40518123"
   gradientUnits="userSpaceOnUse"
   gradientTransform="matrix(0,142.246,-142.246,0,628.373,-0.957886)"
   spreadMethod="pad"><stop
     offset="0"
     style="stop-color:rgb(44,88,238);stop-opacity:1"
     id="stop50" /><stop
     offset="1"
     style="stop-color:#5680f3;stop-opacity:1;"
     id="stop51" /></linearGradient><linearGradient
   id="linearGradient49"
   x1="-0.4646129"
   y1="4.3104358"
   x2="-0.4646129"
   y2="-0.40518123"
   gradientUnits="userSpaceOnUse"
   gradientTransform="matrix(0,142.246,-142.246,0,628.373,-0.957886)"
   spreadMethod="pad"><stop
     offset="0"
     style="stop-color:rgb(44,88,238);stop-opacity:1"
     id="stop48" /><stop
     offset="1"
     style="stop-color:#5882f3;stop-opacity:1;"
     id="stop49" /></linearGradient><linearGradient
   id="linearGradient47"
   x1="-0.4646129"
   y1="4.3104358"
   x2="-0.4646129"
   y2="-0.40518123"
   gradientUnits="userSpaceOnUse"
   gradientTransform="matrix(0,142.246,-142.246,0,628.373,-0.957886)"
   spreadMethod="pad"><stop
     offset="0"
     style="stop-color:rgb(44,88,238);stop-opacity:1"
     id="stop46" /><stop
     offset="1"
     style="stop-color:#5883f4;stop-opacity:1;"
     id="stop47" /></linearGradient><linearGradient
   id="linearGradient45"
   x1="-0.4646129"
   y1="4.3104358"
   x2="-0.4646129"
   y2="-0.40518123"
   gradientUnits="userSpaceOnUse"
   gradientTransform="matrix(0,142.246,-142.246,0,628.373,-0.957886)"
   spreadMethod="pad"><stop
     offset="0"
     style="stop-color:rgb(44,88,238);stop-opacity:1"
     id="stop44" /><stop
     offset="1"
     style="stop-color:#6988db;stop-opacity:1;"
     id="stop45" /></linearGradient><linearGradient
   id="linearGradient43"
   x1="-0.4646129"
   y1="4.3104358"
   x2="-0.4646129"
   y2="-0.40518123"
   gradientUnits="userSpaceOnUse"
   gradientTransform="matrix(0,142.246,-142.246,0,628.373,-0.957886)"
   spreadMethod="pad"><stop
     offset="0"
     style="stop-color:rgb(44,88,238);stop-opacity:1"
     id="stop42" /><stop
     offset="1"
     style="stop-color:#6d8ad7;stop-opacity:1;"
     id="stop43" /></linearGradient><linearGradient
   id="linearGradient41"
   x1="-0.4646129"
   y1="4.3104358"
   x2="-0.4646129"
   y2="-0.40518123"
   gradientUnits="userSpaceOnUse"
   gradientTransform="matrix(0,142.246,-142.246,0,628.373,-0.957886)"
   spreadMethod="pad"><stop
     offset="0"
     style="stop-color:rgb(44,88,238);stop-opacity:1"
     id="stop40" /><stop
     offset="1"
     style="stop-color:#748dd0;stop-opacity:1;"
     id="stop41" /></linearGradient><linearGradient
   id="linearGradient39"
   x1="-0.4646129"
   y1="4.3104358"
   x2="-0.4646129"
   y2="-0.40518123"
   gradientUnits="userSpaceOnUse"
   gradientTransform="matrix(0,142.246,-142.246,0,628.373,-0.957886)"
   spreadMethod="pad"><stop
     offset="0"
     style="stop-color:rgb(44,88,238);stop-opacity:1"
     id="stop38" /><stop
     offset="1"
     style="stop-color:#7a90ca;stop-opacity:1;"
     id="stop39" /></linearGradient><linearGradient
   id="linearGradient37"
   x1="-0.4646129"
   y1="4.3104358"
   x2="-0.4646129"
   y2="-0.40518123"
   gradientUnits="userSpaceOnUse"
   gradientTransform="matrix(0,142.246,-142.246,0,628.373,-0.957886)"
   spreadMethod="pad"><stop
     offset="0"
     style="stop-color:rgb(44,88,238);stop-opacity:1"
     id="stop36" /><stop
     offset="1"
     style="stop-color:#7b90c9;stop-opacity:1;"
     id="stop37" /></linearGradient><linearGradient
   id="linearGradient34"
   x1="-0.4646129"
   y1="4.3104358"
   x2="-0.4646129"
   y2="-0.40518123"
   gradientUnits="userSpaceOnUse"
   gradientTransform="matrix(0,142.246,-142.246,0,628.373,-0.957886)"
   spreadMethod="pad"><stop
     offset="0"
     style="stop-color:rgb(44,88,238);stop-opacity:1"
     id="stop33" /><stop
     offset="0.48109967"
     style="stop-color:#3d69f0;stop-opacity:1;"
     id="stop35" /><stop
     offset="1"
     style="stop-color:rgb(81,125,243);stop-opacity:1"
     id="stop34" /></linearGradient><linearGradient
   id="linearGradient31"
   x1="-0.4646129"
   y1="4.3104358"
   x2="-0.4646129"
   y2="-0.40518123"
   gradientUnits="userSpaceOnUse"
   gradientTransform="matrix(0,142.246,-142.246,0,628.373,-0.957886)"
   spreadMethod="pad"><stop
     offset="0"
     style="stop-color:rgb(44,88,238);stop-opacity:1"
     id="stop30" /><stop
     offset="0.4879725"
     style="stop-color:#3e6af0;stop-opacity:1;"
     id="stop32" /><stop
     offset="1"
     style="stop-color:rgb(81,125,243);stop-opacity:1"
     id="stop31" /></linearGradient><linearGradient
   id="linearGradient28"
   x1="-0.4646129"
   y1="4.3104358"
   x2="-0.4646129"
   y2="-0.40518123"
   gradientUnits="userSpaceOnUse"
   gradientTransform="matrix(0,142.246,-142.246,0,628.373,-0.957886)"
   spreadMethod="pad"><stop
     offset="0"
     style="stop-color:rgb(44,88,238);stop-opacity:1"
     id="stop27" /><stop
     offset="0.48883161"
     style="stop-color:#3e6af0;stop-opacity:1;"
     id="stop29" /><stop
     offset="1"
     style="stop-color:rgb(81,125,243);stop-opacity:1"
     id="stop28" /></linearGradient><linearGradient
   id="linearGradient25"
   x1="-0.4646129"
   y1="4.3104358"
   x2="-0.4646129"
   y2="-0.40518123"
   gradientUnits="userSpaceOnUse"
   gradientTransform="matrix(0,142.246,-142.246,0,628.373,-0.957886)"
   spreadMethod="pad"><stop
     offset="0"
     style="stop-color:rgb(44,88,238);stop-opacity:1"
     id="stop24" /><stop
     offset="0.49570447"
     style="stop-color:#3e6af0;stop-opacity:1;"
     id="stop26" /><stop
     offset="1"
     style="stop-color:rgb(81,125,243);stop-opacity:1"
     id="stop25" /></linearGradient><linearGradient
   id="linearGradient22"
   x1="-0.4646129"
   y1="4.3104358"
   x2="-0.4646129"
   y2="-0.40518123"
   gradientUnits="userSpaceOnUse"
   gradientTransform="matrix(0,142.246,-142.246,0,628.373,-0.957886)"
   spreadMethod="pad"><stop
     offset="0"
     style="stop-color:rgb(44,88,238);stop-opacity:1"
     id="stop21" /><stop
     offset="0.49570447"
     style="stop-color:#3e6af0;stop-opacity:1;"
     id="stop23" /><stop
     offset="1"
     style="stop-color:rgb(81,125,243);stop-opacity:1"
     id="stop22" /></linearGradient><linearGradient
   id="linearGradient19"
   x1="-0.4646129"
   y1="4.3104358"
   x2="-0.4646129"
   y2="-0.40518123"
   gradientUnits="userSpaceOnUse"
   gradientTransform="matrix(0,142.246,-142.246,0,628.373,-0.957886)"
   spreadMethod="pad"><stop
     offset="0"
     style="stop-color:rgb(44,88,238);stop-opacity:1"
     id="stop18" /><stop
     offset="0.49656358"
     style="stop-color:#3e6af0;stop-opacity:1;"
     id="stop20" /><stop
     offset="1"
     style="stop-color:rgb(81,125,243);stop-opacity:1"
     id="stop19" /></linearGradient><linearGradient
   id="linearGradient16"
   x1="-0.4646129"
   y1="4.3104358"
   x2="-0.4646129"
   y2="-0.40518123"
   gradientUnits="userSpaceOnUse"
   gradientTransform="matrix(0,142.246,-142.246,0,628.373,-0.957886)"
   spreadMethod="pad"><stop
     offset="0"
     style="stop-color:rgb(44,88,238);stop-opacity:1"
     id="stop15" /><stop
     offset="0.50085908"
     style="stop-color:#3e6af0;stop-opacity:1;"
     id="stop17" /><stop
     offset="1"
     style="stop-color:rgb(81,125,243);stop-opacity:1"
     id="stop16" /></linearGradient><linearGradient
   id="linearGradient13"
   x1="-0.4646129"
   y1="4.3104358"
   x2="-0.4646129"
   y2="-0.40518123"
   gradientUnits="userSpaceOnUse"
   gradientTransform="matrix(8.71006e-15,142.246,-142.246,8.71006e-15,628.373,-0.957886)"><stop
     offset="0"
     style="stop-color:rgb(44,88,238);stop-opacity:1"
     id="stop12" /><stop
     offset="0.49312714"
     style="stop-color:#3e6af0;stop-opacity:1;"
     id="stop14" /><stop
     offset="1"
     style="stop-color:rgb(81,125,243);stop-opacity:1"
     id="stop13" /></linearGradient>
        <linearGradient
   id="_Linear1"
   x1="0"
   y1="0"
   x2="1"
   y2="0"
   gradientUnits="userSpaceOnUse"
   gradientTransform="matrix(1.20374e-14,196.585,-196.585,1.20374e-14,96.104,-0.203701)"><stop
     offset="0"
     style="stop-color:rgb(250,45,172);stop-opacity:0.99"
     id="stop4" /><stop
     offset="1"
     style="stop-color:rgb(75,39,160);stop-opacity:0.99"
     id="stop5" /></linearGradient>
        <linearGradient
   id="_Linear2"
   x1="0"
   y1="0"
   x2="1"
   y2="0"
   gradientUnits="userSpaceOnUse"
   gradientTransform="matrix(-3,197.032,-197.032,-3,40.077,1.0397)"><stop
     offset="0"
     style="stop-color:rgb(240,6,151);stop-opacity:1"
     id="stop6" /><stop
     offset="1"
     style="stop-color:rgb(60,31,129);stop-opacity:1"
     id="stop7" /></linearGradient>
        <linearGradient
   id="_Linear3"
   x1="-0.4646129"
   y1="4.3104358"
   x2="-0.4646129"
   y2="-0.40518123"
   gradientUnits="userSpaceOnUse"
   gradientTransform="matrix(8.71006e-15,142.246,-142.246,8.71006e-15,628.373,-0.957886)"
   xlink:href="#linearGradient70"><stop
     offset="0"
     style="stop-color:rgb(44,88,238);stop-opacity:1"
     id="stop8" /><stop
     offset="1"
     style="stop-color:rgb(81,125,243);stop-opacity:1"
     id="stop9" /></linearGradient>
        <linearGradient
   id="_Linear4"
   x1="-0.30577731"
   y1="3.2007155"
   x2="-0.30577731"
   y2="-1.5602756"
   gradientUnits="userSpaceOnUse"
   gradientTransform="matrix(8.62206e-15,140.809,-140.809,8.62206e-15,465.533,-1.91577)"
   xlink:href="#linearGradient82"><stop
     offset="0"
     style="stop-color:rgb(17,61,212);stop-opacity:1"
     id="stop10" /><stop
     offset="1"
     style="stop-color:rgb(36,91,240);stop-opacity:1"
     id="stop11" /></linearGradient>
    <linearGradient
   inkscape:collect="always"
   xlink:href="#linearGradient71"
   id="linearGradient73"
   x1="14.161127"
   y1="-68.73288"
   x2="686.05825"
   y2="-68.73288"
   gradientUnits="userSpaceOnUse" /><linearGradient
   inkscape:collect="always"
   xlink:href="#linearGradient83"
   id="linearGradient85"
   x1="14.161127"
   y1="-68.73288"
   x2="686.05825"
   y2="-68.73288"
   gradientUnits="userSpaceOnUse" /><linearGradient
   inkscape:collect="always"
   xlink:href="#linearGradient86"
   id="linearGradient88"
   x1="419.90631"
   y1="-75.907921"
   x2="419.90631"
   y2="1.5140462"
   gradientUnits="userSpaceOnUse" /><linearGradient
   inkscape:collect="always"
   xlink:href="#linearGradient89"
   id="linearGradient90"
   x1="378.57974"
   y1="-76.954163"
   x2="378.57974"
   y2="1.5140462"
   gradientUnits="userSpaceOnUse" /></defs>
</svg>
