<?xml version="1.0" encoding="UTF-8" standalone="no"?><!DOCTYPE svg PUBLIC "-//W3C//DTD SVG 1.1//EN" "http://www.w3.org/Graphics/SVG/1.1/DTD/svg11.dtd"><svg width="100%" height="100%" viewBox="0 0 1267 320" version="1.1" xmlns="http://www.w3.org/2000/svg" xmlns:xlink="http://www.w3.org/1999/xlink" xml:space="preserve" xmlns:serif="http://www.serif.com/" style="fill-rule:evenodd;clip-rule:evenodd;stroke-linejoin:round;stroke-miterlimit:2;"><g id="image"><g id="logo"><path id="path1" d="M1.62,214.642l-0.012,-211.064l68.861,-0l74.754,83.498l77.052,-83.548l69.066,-0.065l0.354,210.327l-109.827,104.4l-1.163,-66.039l53.666,-57.289l-0.13,-119.383l-88.349,97.018l-87.846,-98.302l0.365,120.176l52.528,57.573l-0.513,66.246l-108.806,-103.548Z" style="fill:url(#_Linear1);fill-rule:nonzero;stroke:url(#_Linear2);stroke-width:3.22px;"/></g><g id="merlin"><path id="merlin-text" d="M362.86,214.02c-3.701,-0 -5.552,-1.896 -5.552,-5.687c0,-4.966 0.113,-9.931 0.339,-14.896c0.225,-4.966 0.383,-9.931 0.474,-14.896c0.27,-10.472 0.451,-20.922 0.541,-31.349c0.091,-10.427 0.136,-20.832 0.136,-31.214c-0,-13.18 -0.091,-26.361 -0.271,-39.541c-0.181,-13.181 -0.452,-26.316 -0.813,-39.407l0,-1.354c0,-0.722 0.113,-2.347 0.339,-4.875c0.226,-2.528 1.061,-3.791 2.505,-3.791c1.264,-0 2.618,0.902 4.063,2.708c1.444,1.805 2.482,3.115 3.114,3.927c13.903,18.868 27.309,38.165 40.219,57.891c12.91,19.725 26.135,39.158 39.677,58.297c0.451,0.631 0.903,0.947 1.354,0.947c0.452,0 0.903,-0.316 1.354,-0.947c13.903,-19.23 27.467,-38.73 40.693,-58.5c13.226,-19.771 26.925,-39.136 41.099,-58.094c0.632,-0.813 1.693,-2.099 3.182,-3.86c1.49,-1.76 2.821,-2.64 3.995,-2.64c1.535,-0 2.392,1.264 2.573,3.791c0.181,2.528 0.271,4.153 0.271,4.875l-0,1.355c-0.361,13.18 -0.632,26.383 -0.813,39.609c-0.18,13.226 -0.271,26.429 -0.271,39.609c0,10.382 0.046,20.787 0.136,31.214c0.09,10.427 0.271,20.877 0.542,31.349c0.18,4.965 0.361,9.93 0.541,14.896c0.181,4.965 0.271,9.93 0.271,14.896c0,3.791 -1.851,5.687 -5.552,5.687l-23.292,-0c-1.986,-0 -3.363,-0.451 -4.13,-1.354c-0.767,-0.903 -1.241,-2.257 -1.422,-4.063c-0.09,-1.264 -0.135,-2.64 -0.135,-4.13l-0,-4.265l-0.271,-19.636c-0.181,-9.84 -0.316,-19.68 -0.406,-29.521c-0.091,-9.84 -0.136,-19.68 -0.136,-29.521c0,-0.18 -0.022,-0.744 -0.067,-1.692c-0.046,-0.948 -0.294,-1.422 -0.745,-1.422c-0.361,-0 -0.768,0.338 -1.219,1.015c-0.451,0.678 -0.767,1.106 -0.948,1.287c-5.868,9.028 -11.668,18.123 -17.401,27.286c-5.733,9.164 -11.533,18.304 -17.401,27.422c-2.347,3.702 -4.694,7.448 -7.042,11.24c-2.347,3.792 -4.784,7.493 -7.312,11.104c-0.542,0.722 -1.174,1.512 -1.896,2.37c-0.722,0.857 -1.625,1.286 -2.708,1.286c-0.993,0 -1.874,-0.383 -2.641,-1.151c-0.767,-0.767 -1.422,-1.512 -1.963,-2.234c-2.257,-3.16 -4.492,-6.365 -6.704,-9.615c-2.211,-3.25 -4.401,-6.5 -6.567,-9.75c-6.32,-9.208 -12.617,-18.484 -18.891,-27.828c-6.274,-9.344 -12.661,-18.575 -19.161,-27.693c-0.091,-0.18 -0.361,-0.564 -0.813,-1.151c-0.451,-0.586 -0.857,-0.88 -1.219,-0.88c-0.451,0 -0.722,0.452 -0.812,1.354c-0.09,0.903 -0.136,1.445 -0.136,1.625c0,9.57 -0.045,19.117 -0.135,28.641c-0.09,9.524 -0.226,19.071 -0.406,28.641l-0.271,19.093c-0,1.264 0.023,2.618 0.068,4.063c0.045,1.444 -0.023,2.798 -0.203,4.062c-0.181,1.806 -0.632,3.16 -1.355,4.063c-0.722,0.903 -2.121,1.354 -4.198,1.354l-22.208,-0Z" style="fill:url(#_Linear3);fill-rule:nonzero;stroke:url(#_Linear4);stroke-width:2.55px;"/><path d="M576.548,29.853c-0,-3.791 1.85,-5.687 5.552,-5.687l107.791,-0c3.702,-0 5.552,1.896 5.552,5.687l0,10.766c0,3.656 -0.09,7.245 -0.27,10.766c-0.271,3.611 -2.122,5.416 -5.552,5.416l-76.917,0c-1.083,0 -1.625,0.542 -1.625,1.625c-0,7.313 0.022,14.603 0.068,21.87c0.045,7.267 0.067,14.557 0.067,21.87c0,1.083 0.542,1.625 1.625,1.625l66.625,-0c3.702,-0 5.552,1.851 5.552,5.552l0,18.552c0,3.701 -1.85,5.552 -5.552,5.552l-66.625,0c-1.083,0 -1.625,0.542 -1.625,1.625c0,7.403 -0.022,14.828 -0.067,22.276c-0.046,7.448 -0.068,14.919 -0.068,22.412c-0,1.083 0.542,1.625 1.625,1.625l80.167,-0c3.43,-0 5.281,1.805 5.552,5.416c0.18,3.521 0.293,7.11 0.338,10.766c0.045,3.656 0.068,7.245 0.068,10.766c-0,3.791 -1.851,5.687 -5.552,5.687l-111.313,-0c-3.701,-0 -5.552,-1.896 -5.552,-5.687c0,-4.966 0.068,-9.908 0.203,-14.829c0.136,-4.92 0.249,-9.862 0.339,-14.828c0.271,-20.764 0.406,-41.482 0.406,-62.156c0,-14.535 -0.135,-29.002 -0.406,-43.401c-0.271,-14.399 -0.406,-28.821 -0.406,-43.266Z" style="fill:url(#_Linear5);fill-rule:nonzero;stroke:url(#_Linear6);stroke-width:2.55px;"/><path d="M781.568,24.166c13.362,-0 25.459,2.189 36.292,6.568c10.833,4.378 19.432,11.149 25.797,20.312c6.365,9.163 9.547,21.012 9.547,35.547c-0,11.646 -2.257,22.163 -6.771,31.552c-4.514,9.389 -11.736,17.243 -21.667,23.563c-0.632,0.27 -0.948,0.722 -0.948,1.354c0,0.361 1.197,2.482 3.589,6.364c2.392,3.882 5.417,8.667 9.073,14.354c3.656,5.688 7.403,11.466 11.24,17.334c3.836,5.868 7.199,11.059 10.088,15.573c2.889,4.514 4.74,7.402 5.552,8.666c0.452,0.723 0.903,1.512 1.354,2.37c0.452,0.858 0.677,1.783 0.677,2.776c0,1.625 -0.835,2.618 -2.505,2.979c-1.67,0.361 -3.047,0.542 -4.13,0.542l-26.948,-0c-1.805,-0 -3.34,-0.812 -4.604,-2.437c-2.799,-3.612 -5.417,-7.426 -7.854,-11.443c-2.438,-4.018 -4.92,-7.922 -7.448,-11.714c-3.972,-6.139 -7.99,-12.255 -12.052,-18.349c-4.063,-6.093 -8.035,-12.255 -11.917,-18.484c-0.361,-0.632 -0.858,-0.948 -1.49,-0.948l-24.239,0c-1.083,0 -1.625,0.542 -1.625,1.625c-0,6.229 -0.023,12.481 -0.068,18.755c-0.045,6.275 -0.113,12.526 -0.203,18.755c0,2.618 0.068,5.801 0.203,9.547c0.136,3.747 0.023,6.839 -0.338,9.276c-0.271,1.806 -0.745,3.16 -1.422,4.063c-0.677,0.903 -2.054,1.354 -4.13,1.354l-23.428,-0c-3.701,-0 -5.552,-1.896 -5.552,-5.687c0,-4.875 0.091,-9.773 0.271,-14.693c0.181,-4.92 0.316,-9.863 0.406,-14.828c0.271,-20.584 0.407,-41.212 0.407,-61.886c-0,-19.59 -0.136,-39.271 -0.407,-59.041c-0.09,-4.695 -0.203,-9.367 -0.338,-14.016c-0.135,-4.649 -0.203,-9.321 -0.203,-14.016c-0,-3.791 1.851,-5.687 5.552,-5.687l50.239,-0Zm-20.989,93.979l27.354,0c8.938,0 16.205,-2.799 21.802,-8.396c5.597,-5.597 8.396,-12.91 8.396,-21.937c-0,-9.299 -2.618,-16.792 -7.854,-22.479c-5.236,-5.688 -12.549,-8.532 -21.938,-8.532l-27.896,0c0.091,10.202 0.136,20.426 0.136,30.672l-0,30.672Z" style="fill:url(#_Linear7);fill-rule:nonzero;stroke:url(#_Linear8);stroke-width:2.55px;"/><path d="M890.579,29.853c-0,-3.791 1.851,-5.687 5.552,-5.687l23.156,-0c3.702,-0 5.552,1.851 5.552,5.552c0,16.16 0.068,32.319 0.203,48.479c0.136,16.16 0.204,32.32 0.204,48.479c-0,8.757 -0.023,17.582 -0.068,26.474c-0.045,8.893 -0.068,17.762 -0.068,26.61c0,1.083 0.542,1.625 1.625,1.625l74.344,-0c3.611,-0 5.462,1.805 5.552,5.416l0.406,21.532c0.181,3.791 -1.67,5.687 -5.552,5.687l-105.489,-0c-3.702,-0 -5.553,-1.896 -5.553,-5.687c0,-4.966 0.068,-9.908 0.204,-14.829c0.135,-4.92 0.248,-9.862 0.338,-14.828c0.271,-20.764 0.406,-41.482 0.406,-62.156c0,-14.535 -0.135,-29.002 -0.406,-43.401c-0.271,-14.399 -0.406,-28.821 -0.406,-43.266Z" style="fill:url(#_Linear9);fill-rule:nonzero;stroke:url(#_Linear10);stroke-width:2.55px;"/><path d="M1032.5,29.718c-0,-3.701 1.85,-5.552 5.552,-5.552l23.427,-0c3.701,-0 5.552,1.851 5.552,5.552c-0,14.896 -0.045,29.792 -0.136,44.687c-0.09,14.896 -0.135,29.792 -0.135,44.688c-0,14.896 0.045,29.792 0.135,44.687c0.091,14.896 0.136,29.792 0.136,44.688c-0,3.701 -1.851,5.552 -5.552,5.552l-23.427,-0c-3.702,-0 -5.552,-1.851 -5.552,-5.552c-0,-14.896 0.045,-29.792 0.135,-44.688c0.09,-14.895 0.135,-29.791 0.135,-44.687c0,-14.896 -0.045,-29.792 -0.135,-44.688c-0.09,-14.895 -0.135,-29.791 -0.135,-44.687Z" style="fill:url(#_Linear11);fill-rule:nonzero;stroke:url(#_Linear12);stroke-width:2.55px;"/><path d="M1264.6,219.437c-0.542,-0 -3.228,-2.235 -8.058,-6.703c-4.829,-4.469 -11.036,-10.337 -18.619,-17.605c-7.584,-7.267 -15.889,-15.257 -24.917,-23.968c-9.028,-8.712 -18.01,-17.424 -26.948,-26.136c-8.937,-8.712 -17.175,-16.701 -24.713,-23.969c-7.539,-7.267 -13.632,-13.112 -18.282,-17.536c-4.649,-4.424 -7.109,-6.635 -7.38,-6.635c-0.451,-0 -0.722,0.338 -0.812,1.015c-0.091,0.677 -0.136,1.151 -0.136,1.422c0,8.215 0.023,16.408 0.068,24.578c0.045,8.17 0.068,16.363 0.068,24.578l-0,20.516c-0,6.816 -0.046,13.7 -0.136,20.651c0,2.889 0.068,6.049 0.203,9.479c0.136,3.431 0.023,6.59 -0.338,9.479c-0.181,1.806 -0.632,3.16 -1.354,4.063c-0.723,0.903 -2.122,1.354 -4.198,1.354l-23.969,-0c-3.701,-0 -5.552,-1.896 -5.552,-5.687c-0,-5.146 0.113,-10.292 0.338,-15.438c0.226,-5.146 0.384,-10.292 0.474,-15.437c0.181,-10.292 0.316,-20.584 0.407,-30.875c0.09,-10.292 0.135,-20.584 0.135,-30.875c-0,-10.834 -0.045,-21.667 -0.135,-32.5c-0.091,-10.834 -0.271,-21.667 -0.542,-32.5c-0.09,-5.146 -0.248,-10.292 -0.474,-15.438c-0.226,-5.146 -0.339,-10.292 -0.339,-15.437c0,-0.542 0.271,-0.813 0.813,-0.813c0.542,0 0.993,0.181 1.354,0.542c21.486,19.951 42.521,40.376 63.104,61.276c20.584,20.899 41.438,41.505 62.563,61.817c0.18,0.181 0.451,0.429 0.812,0.745c0.361,0.316 0.722,0.474 1.084,0.474c0.541,0 0.835,-0.338 0.88,-1.015c0.045,-0.678 0.067,-1.151 0.067,-1.422c0,-8.396 -0.022,-16.769 -0.067,-25.12c-0.045,-8.351 -0.068,-16.724 -0.068,-25.12l0,-21.599c0,-7.177 0.045,-14.331 0.135,-21.463c0,-2.98 -0.045,-6.049 -0.135,-9.209c-0.09,-3.159 0,-6.229 0.271,-9.208c0.18,-1.896 0.632,-3.295 1.354,-4.198c0.722,-0.903 2.122,-1.354 4.198,-1.354l23.292,-0c3.701,-0 5.552,1.896 5.552,5.687c-0,4.695 -0.091,9.389 -0.271,14.084c-0.181,4.694 -0.316,9.434 -0.406,14.218c-0.181,9.841 -0.316,19.749 -0.407,29.724c-0.09,9.976 -0.135,19.929 -0.135,29.86c-0,33.764 0.542,67.528 1.625,101.291l-0.406,0.407Z" style="fill:url(#_Linear13);fill-rule:nonzero;stroke:url(#_Linear14);stroke-width:2.55px;"/></g><g id="mvc-framework"><path id="mvc-framework-text" d="M357.091,248.317l7.027,0l24.74,46.017l24.047,-46.017l7.027,0l-0,69.273l-7.225,-0l0,-55.616l-19.99,38.001c-0.725,1.319 -1.352,2.226 -1.88,2.721c-0.528,0.495 -1.121,0.742 -1.781,0.742l-2.177,0l-22.563,-41.464l-0,55.616l-7.225,-0l0,-69.273Z" style="fill:url(#_Linear15);fill-rule:nonzero;stroke:url(#_Linear16);stroke-width:1.55px;"/><path d="M458.922,317.59c-1.253,-0 -2.292,-0.363 -3.117,-1.089c-0.825,-0.725 -1.534,-1.88 -2.128,-3.463l-23.651,-64.721l7.521,0l21.573,60.465l0.099,0l21.673,-60.465l7.521,0l-25.73,69.273l-3.761,-0Z" style="fill:url(#_Linear17);fill-rule:nonzero;stroke:url(#_Linear18);stroke-width:1.55px;"/><path d="M517.012,318.382c-4.42,-0 -8.329,-1.056 -11.727,-3.167c-3.397,-2.111 -6.036,-5.064 -7.916,-8.857c-1.881,-3.794 -2.821,-8.164 -2.821,-13.113l0,-20.583c0,-4.948 0.94,-9.336 2.821,-13.162c1.88,-3.827 4.552,-6.779 8.015,-8.857c3.464,-2.078 7.472,-3.117 12.024,-3.117l10.49,-0c4.288,-0 8.065,0.923 11.331,2.77c3.266,1.848 5.806,4.454 7.62,7.818c1.814,3.365 2.722,7.224 2.722,11.579l-7.126,-0c0,-4.684 -1.336,-8.461 -4.008,-11.331c-2.672,-2.87 -6.185,-4.305 -10.539,-4.305l-10.49,-0c-4.684,-0 -8.444,1.699 -11.281,5.096c-2.837,3.398 -4.256,7.901 -4.256,13.509l0,20.583c0,5.608 1.386,10.111 4.157,13.509c2.771,3.397 6.432,5.096 10.984,5.096l10.688,0c4.486,0 8.098,-1.583 10.836,-4.75c2.738,-3.167 4.107,-7.323 4.107,-12.469l7.125,-0c0,4.684 -0.923,8.824 -2.77,12.42c-1.848,3.595 -4.437,6.383 -7.769,8.362c-3.332,1.979 -7.175,2.969 -11.529,2.969l-10.688,-0Z" style="fill:url(#_Linear19);fill-rule:nonzero;stroke:url(#_Linear20);stroke-width:1.55px;"/><path d="M587.572,248.317l45.522,0l-0,6.532l-38.199,-0l-0,25.334l34.537,-0l0,6.531l-34.537,0l-0,30.876l-7.323,-0l-0,-69.273Z" style="fill:url(#_Linear21);fill-rule:nonzero;stroke:url(#_Linear22);stroke-width:1.55px;"/><path d="M640.219,268.208l6.927,0l0,7.62c1.32,-2.309 3.315,-4.189 5.987,-5.64c2.672,-1.452 5.46,-2.178 8.362,-2.178l4.355,0l-0,6.433l-4.355,-0c-4.222,-0 -7.636,1.336 -10.242,4.008c-2.606,2.672 -3.909,6.218 -3.909,10.638l-0,28.501l-7.125,-0l-0,-49.382Z" style="fill:url(#_Linear23);fill-rule:nonzero;stroke:url(#_Linear24);stroke-width:1.55px;"/><path d="M688.017,318.382c-4.816,-0 -8.659,-1.254 -11.529,-3.761c-2.87,-2.507 -4.305,-5.872 -4.305,-10.094l0,-3.167c0,-4.156 1.485,-7.488 4.453,-9.995c2.969,-2.507 6.895,-3.76 11.777,-3.76l6.333,-0c2.177,-0 4.421,0.33 6.73,0.989c2.309,0.66 4.288,1.551 5.937,2.672l0,-8.213c0,-2.771 -0.857,-5.031 -2.573,-6.779c-1.715,-1.749 -3.991,-2.623 -6.828,-2.623l-7.917,0c-2.837,0 -5.113,0.66 -6.828,1.979c-1.715,1.32 -2.573,3.068 -2.573,5.245l-7.125,0c-0,-4.024 1.517,-7.273 4.552,-9.747c3.035,-2.474 7.026,-3.711 11.974,-3.711l7.917,-0c4.882,-0 8.824,1.435 11.826,4.304c3.002,2.87 4.503,6.647 4.503,11.332l-0,34.537l-6.73,-0l0,-6.927c-1.517,2.375 -3.513,4.255 -5.987,5.64c-2.474,1.386 -5.03,2.079 -7.669,2.079l-5.938,-0Zm6.136,-6.235c3.1,0 5.871,-0.957 8.312,-2.87c2.441,-1.913 4.091,-4.453 4.948,-7.62l0,-3.661c-1.319,-1.254 -3.15,-2.26 -5.492,-3.019c-2.342,-0.758 -4.734,-1.138 -7.175,-1.138l-6.333,0c-2.705,0 -4.899,0.693 -6.581,2.078c-1.682,1.386 -2.524,3.2 -2.524,5.443l0,3.167c0,2.309 0.792,4.156 2.375,5.542c1.584,1.385 3.695,2.078 6.334,2.078l6.136,0Z" style="fill:url(#_Linear25);fill-rule:nonzero;stroke:url(#_Linear26);stroke-width:1.55px;"/><path d="M782.921,267.417c4.354,-0 7.801,1.402 10.341,4.206c2.54,2.803 3.81,6.679 3.81,11.627l-0,34.34l-7.125,-0l-0,-34.537c-0,-2.903 -0.66,-5.179 -1.979,-6.829c-1.32,-1.649 -3.068,-2.474 -5.245,-2.474l-5.641,0c-2.837,0 -5.179,0.957 -7.026,2.87c-1.848,1.913 -3.035,4.618 -3.563,8.115l0,32.855l-7.125,-0l-0,-33.944c-0,-3.101 -0.61,-5.525 -1.831,-7.273c-1.22,-1.749 -2.886,-2.623 -4.997,-2.623l-5.641,0c-2.705,0 -5.08,1.188 -7.125,3.563c-2.046,2.375 -3.332,5.476 -3.86,9.302l0,30.975l-7.125,-0l-0,-49.382l6.927,0l0,7.126c1.32,-2.507 2.969,-4.454 4.948,-5.839c1.979,-1.386 4.058,-2.078 6.235,-2.078l5.838,-0c2.771,-0 5.163,0.676 7.175,2.028c2.012,1.353 3.546,3.316 4.602,5.889c1.517,-2.639 3.332,-4.619 5.443,-5.938c2.111,-1.32 4.42,-1.979 6.927,-1.979l6.037,-0Z" style="fill:url(#_Linear27);fill-rule:nonzero;stroke:url(#_Linear28);stroke-width:1.55px;"/><path d="M827.948,318.382c-5.542,-0 -9.995,-1.633 -13.36,-4.899c-3.365,-3.266 -5.047,-7.603 -5.047,-13.013l0,-14.152c0,-5.674 1.682,-10.242 5.047,-13.706c3.365,-3.464 7.818,-5.195 13.36,-5.195l8.115,-0c5.278,-0 9.533,1.682 12.766,5.047c3.232,3.364 4.849,7.818 4.849,13.359l-0,8.709l-37.012,-0l0,5.938c0,3.43 1.039,6.218 3.118,8.362c2.078,2.144 4.799,3.216 8.164,3.216l7.521,0c3.299,0 5.971,-0.907 8.016,-2.721c2.045,-1.815 3.067,-4.239 3.067,-7.274l6.928,0c-0,4.882 -1.65,8.824 -4.948,11.826c-3.299,3.002 -7.653,4.503 -13.063,4.503l-7.521,-0Zm18.604,-29.986l0,-2.573c0,-3.628 -0.956,-6.548 -2.869,-8.758c-1.914,-2.21 -4.454,-3.315 -7.62,-3.315l-8.115,0c-3.365,0 -6.086,1.155 -8.164,3.464c-2.079,2.309 -3.118,5.344 -3.118,9.104l0,2.078l29.886,0Z" style="fill:url(#_Linear29);fill-rule:nonzero;stroke:url(#_Linear30);stroke-width:1.55px;"/><path d="M927.008,268.208l-10.688,43.642c-0.528,1.979 -1.254,3.431 -2.177,4.354c-0.924,0.924 -2.177,1.386 -3.761,1.386l-3.364,-0l-12.37,-37.308l-12.766,37.308l-3.365,-0c-1.518,-0 -2.771,-0.462 -3.761,-1.386c-0.989,-0.923 -1.715,-2.375 -2.177,-4.354l-10.787,-43.642l7.522,0l9.203,41.465l13.36,-40.079l2.573,-0c1.913,-0 3.199,1.055 3.859,3.167l12.073,36.615l9.105,-41.168l7.521,0Z" style="fill:url(#_Linear31);fill-rule:nonzero;stroke:url(#_Linear32);stroke-width:1.55px;"/><path d="M952.936,318.382c-5.542,-0 -9.995,-1.716 -13.36,-5.146c-3.365,-3.431 -5.047,-7.95 -5.047,-13.558l-0,-13.558c-0,-5.607 1.699,-10.127 5.096,-13.557c3.398,-3.431 7.901,-5.146 13.508,-5.146l8.115,-0c5.608,-0 10.111,1.715 13.508,5.146c3.398,3.43 5.097,7.95 5.097,13.557l-0,13.558c-0,5.608 -1.715,10.127 -5.146,13.558c-3.431,3.43 -7.983,5.146 -13.657,5.146l-8.114,-0Zm8.114,-6.334c3.563,0 6.4,-1.138 8.511,-3.414c2.111,-2.276 3.167,-5.261 3.167,-8.956l-0,-13.558c-0,-3.694 -1.056,-6.68 -3.167,-8.956c-2.111,-2.276 -4.882,-3.414 -8.313,-3.414l-8.115,0c-3.43,0 -6.201,1.138 -8.312,3.414c-2.111,2.276 -3.167,5.262 -3.167,8.956l0,13.558c0,3.76 1.023,6.762 3.068,9.005c2.045,2.244 4.783,3.365 8.214,3.365l8.114,0Z" style="fill:url(#_Linear33);fill-rule:nonzero;stroke:url(#_Linear34);stroke-width:1.55px;"/><path d="M992.916,268.208l6.927,0l0,7.62c1.32,-2.309 3.315,-4.189 5.987,-5.64c2.672,-1.452 5.46,-2.178 8.362,-2.178l4.355,0l-0,6.433l-4.355,-0c-4.222,-0 -7.636,1.336 -10.242,4.008c-2.606,2.672 -3.909,6.218 -3.909,10.638l-0,28.501l-7.125,-0l-0,-49.382Z" style="fill:url(#_Linear35);fill-rule:nonzero;stroke:url(#_Linear36);stroke-width:1.55px;"/><path d="M1061.4,317.59l-19.397,-23.355l-6.828,6.828l0,16.527l-7.125,-0l-0,-69.273l7.125,0l0,44.038l24.444,-24.147l8.708,0l-21.375,21.178l22.958,28.204l-8.51,-0Z" style="fill:url(#_Linear37);fill-rule:nonzero;stroke:url(#_Linear38);stroke-width:1.55px;"/></g><g id="bird"><path id="path2" d="M957.156,184.572c-0.481,-0.469 -0.646,-0.895 -0.607,-1.572c0.039,-0.669 0.267,-1.129 0.833,-1.681c0.699,-0.683 0.671,-0.703 -0.99,-0.728c-1.701,-0.025 -2.005,0.042 -2.513,0.557c-0.557,0.566 -0.814,1.45 -0.661,2.28c0.042,0.227 0.062,0.428 0.044,0.446c-0.065,0.066 -0.546,-0.472 -0.741,-0.83c-0.274,-0.504 -0.32,-1.046 -0.153,-1.838c0.073,-0.35 0.113,-0.657 0.088,-0.682c-0.025,-0.025 -1.329,-0.045 -2.899,-0.043c-2.78,0.002 -2.863,0.006 -3.194,0.166c-0.64,0.311 -1.159,1.065 -1.35,1.967l-0.101,0.476l-0.133,-0.3c-0.08,-0.18 -0.147,-0.558 -0.166,-0.939c-0.054,-1.035 0.311,-1.873 1.081,-2.488c0.82,-0.653 1.221,-0.731 3.959,-0.773c1.976,-0.03 2.259,-0.049 2.383,-0.162c0.153,-0.138 0.641,-0.897 1.927,-2.999c1.306,-2.134 1.522,-2.501 1.522,-2.575c0,-0.039 -0.219,-0.395 -0.488,-0.791c-0.958,-1.413 -1.973,-3.704 -2.449,-5.531c-0.125,-0.477 -0.25,-0.886 -0.278,-0.91c-0.028,-0.025 -0.423,-0.329 -0.877,-0.676c-2.252,-1.725 -4.199,-3.657 -5.66,-5.617c-2.422,-3.246 -3.65,-6.434 -4.068,-10.563c-0.107,-1.048 -0.106,-4.068 0,-5.633c0.226,-3.313 0.882,-7.082 1.582,-9.095c0.301,-0.867 1.015,-2.354 1.465,-3.049c1.714,-2.655 4.272,-4.298 7.414,-4.762c1.096,-0.161 3.075,-0.108 4.073,0.11c2.756,0.602 4.699,1.986 5.628,4.01c0.137,0.299 0.307,0.705 0.378,0.902c0.07,0.196 0.192,0.391 0.27,0.433c0.386,0.207 1.095,0.895 1.381,1.34c0.574,0.893 0.841,1.25 0.947,2.024c0.106,0.775 -0.083,1.491 -0.351,1.888c-0.267,0.396 -0.558,0.658 -0.623,0.55c-0.483,-0.803 -1.032,-1.018 -1.562,-1.118c-0.413,-0.077 -0.633,0.041 -0.896,0.481c-0.45,0.751 -0.512,1.779 -0.156,2.569c0.285,0.632 0.755,1.025 2.382,1.988c2.526,1.496 4.828,3.297 7.091,5.548c2.022,2.011 3.193,3.351 6.314,7.222c5.33,6.612 9.463,11.27 12.469,14.051c2.128,1.969 3.899,3.443 5.957,4.958l0.399,0.293l-0.362,0.025c-0.447,0.03 -0.927,-0.062 -2.336,-0.449c-1.915,-0.525 -5.868,-1.784 -6.728,-2.143c-0.63,-0.263 -0.777,-0.047 -0.239,0.352c0.139,0.103 0.854,0.695 1.588,1.314c0.734,0.62 1.542,1.296 1.795,1.502c0.254,0.207 1.777,1.476 3.386,2.82c1.608,1.344 3.945,3.297 5.193,4.34c1.249,1.043 2.288,1.926 2.311,1.963c0.055,0.089 -0.28,0.192 -1.351,0.415c-1.318,0.276 -2.484,0.362 -4.243,0.316c-1.677,-0.044 -2.236,-0.14 -3.36,-0.577c-0.713,-0.277 -0.96,-0.464 -3.671,-2.78c-1.185,-1.012 -2.26,-1.924 -2.388,-2.026c-0.127,-0.102 -0.79,-0.659 -1.471,-1.237c-1.386,-1.175 -5.422,-4.546 -6.347,-5.301c-1.277,-1.041 -1.087,-0.95 -2.334,-1.124c-1.407,-0.197 -2.55,-0.396 -3.92,-0.684c-0.589,-0.124 -1.105,-0.205 -1.145,-0.18c-0.044,0.028 -0.074,0.616 -0.074,1.463c0,1.911 -0.189,4.571 -0.335,4.717c-0.079,0.079 -1.396,-0.212 -2.287,-0.505c-0.954,-0.313 -2.458,-1.026 -3.173,-1.503c-0.251,-0.167 -0.516,-0.304 -0.589,-0.304c-0.101,-0 -0.18,0.155 -0.335,0.657c-0.293,0.952 -0.805,2.352 -1.159,3.173c-0.169,0.392 -0.308,0.756 -0.308,0.807c-0,0.069 0.204,0.095 0.769,0.096c1.791,0.003 2.814,0.387 3.372,1.266c0.494,0.777 0.592,1.793 0.247,2.562c-0.112,0.248 -0.228,0.451 -0.259,0.451c-0.031,0 -0.08,-0.16 -0.108,-0.356c-0.124,-0.857 -0.696,-1.628 -1.377,-1.854c-0.32,-0.106 -0.654,-0.122 -2.172,-0.103l-1.793,0.023l-0.627,0.45c-0.971,0.698 -1.989,1.698 -2.23,2.191c-0.215,0.44 -0.272,0.969 -0.154,1.433c0.087,0.339 -0.02,0.312 -0.457,-0.114Zm36.333,-2.628c0,-0.057 -1.955,-1.891 -2.672,-2.507c-0.21,-0.18 -0.971,-0.854 -1.69,-1.498c-4.026,-3.603 -7.188,-6.085 -7.503,-5.89c-0.123,0.076 1.428,1.756 2.65,2.871c1.12,1.021 2.708,2.426 3.513,3.107c3.927,3.322 3.806,3.229 4.839,3.698c0.583,0.265 0.863,0.336 0.863,0.219Zm-34.158,-3.401c0.683,-0.312 1.943,-3.524 2.39,-6.097l0.088,-0.504l-0.672,-0.66c-0.369,-0.363 -0.772,-0.792 -0.896,-0.954c-0.138,-0.179 -0.267,-0.278 -0.332,-0.253c-0.082,0.031 -0.165,0.651 -0.363,2.697c-0.141,1.462 -0.263,2.667 -0.272,2.679c-0.033,0.049 -0.927,-0.526 -1.339,-0.863c-0.619,-0.504 -0.615,-0.502 -0.731,-0.455c-0.153,0.061 -2.793,4.315 -2.735,4.409c0.067,0.108 4.624,0.109 4.862,0.001Zm9.131,-4.266c0.068,-0.043 0.122,-0.509 0.184,-1.588c0.1,-1.753 -0,-3.936 -0.239,-5.221c-0.077,-0.413 -0.128,-0.764 -0.112,-0.78c0.016,-0.016 0.494,0.143 1.064,0.353c2.517,0.929 4.157,1.359 7.607,1.994c1.41,0.26 1.781,0.316 3.492,0.53c1.812,0.226 2.118,0.246 2.219,0.145c0.158,-0.157 0.385,-0.068 -4.359,-1.714c-4.365,-1.514 -5.846,-2.068 -8.149,-3.044c-7.79,-3.303 -12.267,-6.266 -15.157,-10.032c-1.118,-1.458 -1.953,-3.206 -2.383,-4.989c-0.246,-1.022 -0.25,-2.984 -0.009,-3.868c0.356,-1.304 1.083,-2.458 2.018,-3.201c0.883,-0.701 1.527,-1.027 2.688,-1.36c0.459,-0.131 1.807,-0.218 3.248,-0.209c0.178,0.001 0.093,-0.174 -0.273,-0.561c-0.665,-0.702 -0.953,-1.506 -0.89,-2.477c0.046,-0.712 0.262,-1.334 0.629,-1.815c0.328,-0.429 0.308,-0.577 -0.086,-0.637c-0.287,-0.044 -0.289,-0.047 -0.053,-0.057c0.225,-0.01 0.239,-0.024 0.163,-0.166c-0.112,-0.209 0.006,-0.341 0.362,-0.404c0.611,-0.108 0.542,-0.156 -0.284,-0.195l-0.864,-0.042l1.094,-0.015c1.278,-0.017 1.822,0.065 2.42,0.367c0.684,0.345 0.737,0.305 0.645,-0.486c-0.076,-0.654 -0.562,-1.588 -1.066,-2.049c-0.395,-0.361 -1.211,-0.851 -1.417,-0.851c-0.19,0 -0.995,0.643 -1.506,1.203c-0.281,0.308 -0.482,0.479 -0.459,0.392c0.05,-0.192 -0.186,-0.335 -0.569,-0.345l-0.268,-0.006l0.206,-0.407c0.294,-0.579 0.274,-0.87 -0.099,-1.428c-0.826,-1.237 -2.412,-1.967 -4.313,-1.985c-0.516,-0.005 -1.046,0.031 -1.239,0.085c-0.558,0.154 -0.99,0.273 -0.99,0.401c0,0.103 0.255,0.155 1.111,0.166c0.547,0.007 1.069,0.066 1.193,0.103l0.225,0.068l-0.235,0.123c-0.314,0.164 -0.826,0.754 -0.931,1.073c-0.047,0.141 -0.095,0.257 -0.107,0.257c-0.013,-0 -0.146,-0.052 -0.297,-0.115c-0.151,-0.063 -0.637,-0.202 -1.079,-0.309c-1.155,-0.278 -1.928,-0.237 -2.748,0.146c-1.11,0.518 -2.132,1.323 -3.02,2.581c-1.113,1.579 -1.921,3.796 -2.303,6.137c-0.383,2.342 -0.166,0.951 -0.335,2.386c-0.104,0.883 -0.191,1.912 -0.189,3.695c0.03,2.18 0.15,3.207 0.551,4.931c1.283,5.532 4.57,9.992 10.055,13.644c1.384,0.922 4.308,2.579 4.55,2.579c0.195,0 0.11,-0.232 -0.352,-0.964c-0.639,-1.014 -1.663,-3.124 -1.985,-4.091c-0.283,-0.853 -0.311,-1.121 -0.077,-0.757c0.139,0.216 0.305,0.444 1.723,2.357c0.413,0.558 0.875,1.183 1.027,1.39c1.341,1.829 2.783,3.735 3.294,4.356c1.954,2.373 3.856,3.838 5.902,4.549c0.705,0.245 0.651,0.234 0.772,0.157Zm-9.465,-39.267c0.051,-0.021 0.136,-0.021 0.187,-0c0.052,0.021 0.01,0.038 -0.093,0.038c-0.104,-0 -0.146,-0.017 -0.094,-0.038Zm-3.77,-1.787c-0.416,-0.152 -0.646,-0.342 -0.819,-0.675c-0.45,-0.866 0.192,-1.915 1.174,-1.919c0.469,-0.001 0.789,0.139 1.084,0.475c0.264,0.301 0.361,0.657 0.3,1.109c-0.101,0.756 -1.002,1.278 -1.739,1.01Zm30.058,34.491c-0.033,-0.098 -1.609,-1.095 -3.475,-2.199c-2.799,-1.657 -4.558,-2.823 -6.834,-4.534c-1.954,-1.468 -4.452,-3.729 -3.093,-2.799c0.716,0.49 6.145,3.441 8.577,4.663c1.984,0.997 2.62,1.275 2.71,1.186c0.024,-0.025 -0.589,-0.765 -1.363,-1.646c-1.411,-1.606 -3.618,-4.226 -4.244,-5.04c-0.361,-0.47 -0.371,-0.474 -1.174,-0.538c-0.605,-0.047 -2.054,-0.401 -2.594,-0.633c-0.195,-0.084 -0.37,-0.127 -0.389,-0.096c-0.02,0.031 0.184,0.316 0.452,0.635c0.268,0.319 0.467,0.613 0.441,0.654c-0.072,0.116 -1.899,0.089 -2.565,-0.038c-0.827,-0.159 -2.305,-0.665 -3.043,-1.043c-1.907,-0.976 -3.765,-2.524 -5.048,-4.204c-0.46,-0.604 -0.507,-0.767 -0.146,-0.513c0.271,0.191 2.587,1.584 3.329,2.002c0.588,0.331 1.717,0.809 2.554,1.082c0.693,0.225 1.8,0.45 1.847,0.374c0.052,-0.085 0.027,-0.122 -0.803,-1.156c-0.988,-1.232 -1.732,-2.226 -1.694,-2.264c0.017,-0.017 0.415,0.219 0.885,0.524c1.053,0.685 2.279,1.412 3.22,1.911c1.212,0.642 2.629,1.143 2.629,0.93c-0,-0.136 -2.374,-3.035 -3.703,-4.523c-3.277,-3.671 -6.279,-6.006 -9.14,-7.112c-0.956,-0.369 -2.145,-0.609 -3.305,-0.668c-1.857,-0.093 -3.012,0.321 -4.06,1.456c-2.556,2.768 -1.125,7.854 3.346,11.894c2.495,2.255 5.619,4.195 8.863,5.504c1.039,0.42 2.981,1.101 3.139,1.101c0.129,-0 0.033,-0.13 -0.191,-0.259c-1.317,-0.759 -4.391,-3.018 -5.84,-4.292c-1.349,-1.187 -3.577,-3.532 -3.229,-3.398c0.062,0.024 0.602,0.362 1.201,0.752c0.599,0.39 1.732,1.103 2.516,1.585c0.785,0.483 1.806,1.123 2.269,1.423c5.391,3.498 6.139,3.932 10.237,5.942c2.371,1.163 4.098,1.964 5.407,2.507c2.402,0.998 2.362,0.984 2.311,0.83Z" style="fill:#2d3334;fill-rule:nonzero;stroke:#000;stroke-width:0.15px;"/><path id="path3" d="M992.626,181.725c-0.897,-0.407 -1.209,-0.629 -2.892,-2.052c-0.847,-0.716 -1.723,-1.457 -1.947,-1.646c-0.805,-0.681 -2.393,-2.086 -3.513,-3.107c-1.222,-1.115 -2.773,-2.795 -2.65,-2.871c0.315,-0.195 3.477,2.287 7.503,5.89c0.719,0.644 1.48,1.318 1.69,1.498c0.717,0.616 2.672,2.45 2.672,2.507c0,0.117 -0.28,0.046 -0.863,-0.219Zm-0.054,-0.539c-0.384,-0.365 -1.019,-0.944 -1.411,-1.287c-0.392,-0.342 -1.018,-0.9 -1.39,-1.239c-3.274,-2.992 -7.315,-6.273 -7.726,-6.273c-0.025,0 0.214,0.305 0.533,0.677c0.724,0.844 3.299,3.215 5.506,5.069c0.344,0.289 1.186,1.001 1.87,1.582c0.685,0.581 1.405,1.166 1.602,1.299c0.324,0.221 1.511,0.817 1.654,0.831c0.033,0.003 -0.254,-0.293 -0.638,-0.659Zm-8.171,-13.712c-1.702,-0.701 -2.106,-0.873 -3.229,-1.378c-1.596,-0.716 -5.825,-2.796 -7.06,-3.471c-1.776,-0.971 -2.721,-1.555 -6.782,-4.19c-0.463,-0.3 -1.484,-0.94 -2.269,-1.423c-0.784,-0.482 -1.917,-1.195 -2.516,-1.585c-0.599,-0.39 -1.139,-0.728 -1.201,-0.752c-0.348,-0.134 1.88,2.211 3.229,3.398c1.449,1.274 4.523,3.533 5.84,4.292c0.224,0.129 0.32,0.259 0.191,0.259c-0.029,-0 -0.477,-0.139 -0.995,-0.308c-5.118,-1.67 -10.01,-4.802 -12.846,-8.224c-2.666,-3.217 -3.463,-6.661 -2.117,-9.152c0.434,-0.803 1.48,-1.711 2.306,-2.001c0.989,-0.348 2.473,-0.372 4.054,-0.066c2.176,0.42 4.674,1.816 7.172,4.007c1.376,1.207 2.262,2.089 3.583,3.569c1.329,1.488 3.703,4.387 3.703,4.523c-0,0.213 -1.417,-0.288 -2.629,-0.93c-0.941,-0.499 -2.167,-1.226 -3.22,-1.911c-0.47,-0.305 -0.868,-0.541 -0.885,-0.524c-0.038,0.038 0.706,1.032 1.694,2.264c0.83,1.034 0.855,1.071 0.803,1.156c-0.047,0.076 -1.154,-0.149 -1.847,-0.374c-0.837,-0.273 -1.966,-0.751 -2.554,-1.082c-0.742,-0.418 -3.058,-1.811 -3.329,-2.002c-0.361,-0.254 -0.314,-0.091 0.146,0.513c1.283,1.68 3.141,3.228 5.048,4.204c0.738,0.378 2.216,0.884 3.043,1.043c0.666,0.127 2.493,0.154 2.565,0.038c0.026,-0.041 -0.173,-0.335 -0.441,-0.654c-0.268,-0.319 -0.472,-0.604 -0.452,-0.635c0.019,-0.031 0.194,0.012 0.389,0.096c0.54,0.232 1.989,0.586 2.594,0.633c0.803,0.064 0.813,0.068 1.174,0.538c0.626,0.814 2.833,3.434 4.244,5.04c0.774,0.881 1.387,1.621 1.363,1.646c-0.09,0.089 -0.726,-0.189 -2.71,-1.186c-2.432,-1.222 -7.861,-4.173 -8.577,-4.663c-1.359,-0.93 1.139,1.331 3.093,2.799c2.276,1.711 4.035,2.877 6.834,4.534c2.63,1.556 3.756,2.304 3.443,2.288c-0.035,-0.002 -0.418,-0.15 -0.852,-0.329Zm-0.492,-0.556c-0.452,-0.282 -1.329,-0.812 -1.949,-1.177c-4.307,-2.539 -8.038,-5.225 -10.345,-7.449c-0.625,-0.602 -0.755,-0.776 -0.58,-0.776c0.043,0 0.338,0.181 0.657,0.401c0.521,0.361 1.856,1.114 5.649,3.186c2.269,1.238 5.558,2.867 5.558,2.75c0,-0.042 -0.386,-0.498 -1.352,-1.595c-1.157,-1.315 -3.61,-4.251 -4.209,-5.038c-0.183,-0.239 -0.217,-0.252 -0.751,-0.276c-0.615,-0.029 -1.579,-0.234 -2.398,-0.511c-0.29,-0.098 -0.528,-0.157 -0.528,-0.13c0.001,0.027 0.19,0.261 0.421,0.52c0.231,0.259 0.403,0.517 0.381,0.572c-0.09,0.237 -1.993,0.234 -3.055,-0.004c-2.909,-0.654 -5.882,-2.66 -7.907,-5.335c-0.529,-0.698 -0.659,-0.924 -0.536,-0.924c0.025,0 0.388,0.215 0.808,0.477c2.842,1.775 3.833,2.303 5.232,2.79c0.744,0.259 2.03,0.586 2.086,0.53c0.014,-0.014 -0.323,-0.46 -0.749,-0.991c-0.426,-0.531 -1.021,-1.296 -1.322,-1.701c-0.822,-1.103 -0.814,-1.177 0.065,-0.569c0.965,0.668 2.995,1.861 4.088,2.404c0.942,0.467 2.025,0.881 2.103,0.804c0.025,-0.026 -0.518,-0.709 -2.086,-2.625c-2.691,-3.287 -5.853,-6.23 -8.154,-7.589c-2.284,-1.349 -3.979,-1.868 -6.093,-1.865c-1.536,0.001 -2.29,0.231 -3.212,0.976c-0.544,0.44 -0.999,1.123 -1.305,1.958c-0.994,2.711 0.399,6.434 3.584,9.575c0.505,0.498 1.244,1.174 1.642,1.502c2.132,1.756 5.038,3.468 7.775,4.581c1.075,0.437 2.559,0.958 2.6,0.912c0.007,-0.009 -0.463,-0.336 -1.044,-0.729c-2.977,-2.008 -5.783,-4.429 -7.482,-6.456c-0.828,-0.988 -0.775,-0.987 0.758,0.015c0.591,0.387 1.498,0.959 2.014,1.273c1.979,1.2 2.196,1.338 5.279,3.348c2.632,1.716 4.563,2.8 8.09,4.541c2.606,1.287 6.722,3.125 7.018,3.135c0.04,0.001 -0.298,-0.228 -0.751,-0.51Zm-40.291,-26.826c0.417,-2.546 1.163,-4.559 2.277,-6.137c0.887,-1.259 1.844,-2.11 2.954,-2.628c0.82,-0.383 1.593,-0.424 2.748,-0.146c0.442,0.107 0.929,0.247 1.083,0.311c0.222,0.093 0.278,0.262 -0.016,0.123c-0.558,-0.264 -1.68,-0.495 -2.398,-0.493c-0.595,0.001 -0.746,0.03 -1.254,0.247c-1.179,0.502 -2.218,1.436 -3.161,2.841c-1.013,1.508 -1.684,3.348 -2.117,5.807c0.087,0.263 -0.475,2.275 -0.116,0.075Zm13.653,-3.618c0.068,-0.068 0.052,-0.147 -0.064,-0.335c-0.121,-0.195 -0.136,-0.279 -0.072,-0.399c0.066,-0.123 0.053,-0.169 -0.071,-0.246c-0.083,-0.052 -0.152,-0.155 -0.152,-0.227c0,-0.073 -0.05,-0.132 -0.112,-0.132c-0.062,-0 -0.113,-0.047 -0.113,-0.105c0,-0.057 -0.084,-0.126 -0.188,-0.152c-0.17,-0.042 -0.275,-0.269 -0.125,-0.269c0.035,-0 0.063,-0.045 0.063,-0.1c-0,-0.076 -0.131,-0.092 -0.57,-0.067c-0.313,0.018 -0.688,-0.002 -0.832,-0.044c-0.23,-0.067 -0.207,-0.072 0.188,-0.04c0.314,0.025 0.629,-0.011 1.045,-0.119c0.855,-0.224 1.215,-0.436 1.775,-1.122c0.155,-0.189 0.391,-0.472 0.384,-0.278c-0.007,0.195 0.208,0.224 0.459,0.328c0.326,0.132 0.14,0.461 -0.312,1.106c-0.452,0.645 -0.347,0.698 0.01,0.741c0.356,0.043 -0.514,-0.055 1.56,-0.052c2.074,0.003 -0.031,0.177 0.233,0.67c0.099,0.185 -0.249,0.666 -0.439,0.699c-0.45,0.079 -1.789,-0.159 -2.317,0.075c-0.403,0.178 -0.474,0.192 -0.35,0.068Z" style="fill:#3c4345;fill-rule:nonzero;"/><path id="path4" d="M992.532,181.549c-0.829,-0.39 -1.121,-0.597 -2.578,-1.834c-0.684,-0.581 -1.526,-1.293 -1.87,-1.582c-2.207,-1.854 -4.782,-4.225 -5.506,-5.069c-0.319,-0.372 -0.558,-0.677 -0.533,-0.677c0.411,0 4.452,3.281 7.726,6.273c0.372,0.339 0.998,0.897 1.39,1.239c0.883,0.771 2.129,1.954 2.049,1.946c-0.032,-0.003 -0.337,-0.136 -0.678,-0.296Zm-8.994,-14.56c-1.951,-0.811 -3.67,-1.596 -5.896,-2.696c-3.527,-1.741 -5.458,-2.825 -8.09,-4.541c-3.083,-2.01 -3.3,-2.148 -5.279,-3.348c-0.516,-0.314 -1.423,-0.886 -2.014,-1.273c-1.533,-1.002 -1.586,-1.003 -0.758,-0.015c1.699,2.027 4.505,4.448 7.482,6.456c0.581,0.393 1.051,0.72 1.044,0.729c-0.008,0.008 -0.317,-0.08 -0.687,-0.197c-1.096,-0.344 -3.069,-1.176 -4.316,-1.82c-6.383,-3.297 -10.408,-7.748 -10.884,-12.036c-0.193,-1.737 0.454,-3.554 1.591,-4.475c0.922,-0.745 1.676,-0.975 3.212,-0.976c2.114,-0.003 3.809,0.516 6.093,1.865c2.301,1.359 5.463,4.302 8.154,7.589c1.568,1.916 2.111,2.599 2.086,2.625c-0.078,0.077 -1.161,-0.337 -2.103,-0.804c-1.093,-0.543 -3.123,-1.736 -4.088,-2.404c-0.879,-0.608 -0.887,-0.534 -0.065,0.569c0.301,0.405 0.896,1.17 1.322,1.701c0.426,0.531 0.763,0.977 0.749,0.991c-0.056,0.056 -1.342,-0.271 -2.086,-0.53c-1.399,-0.487 -2.39,-1.015 -5.232,-2.79c-0.802,-0.501 -0.852,-0.524 -0.852,-0.398c-0,0.141 1.144,1.595 1.763,2.24c1.02,1.065 2.575,2.224 3.908,2.913c0.675,0.349 2.079,0.861 2.816,1.027c1.062,0.238 2.965,0.241 3.055,0.004c0.022,-0.055 -0.15,-0.313 -0.381,-0.572c-0.231,-0.259 -0.42,-0.493 -0.421,-0.52c0,-0.027 0.238,0.032 0.528,0.13c0.819,0.277 1.783,0.482 2.398,0.511c0.534,0.024 0.568,0.037 0.751,0.276c0.599,0.787 3.052,3.723 4.209,5.038c0.966,1.097 1.352,1.553 1.352,1.595c0,0.117 -3.289,-1.511 -5.558,-2.75c-3.793,-2.072 -5.128,-2.825 -5.649,-3.186c-0.319,-0.22 -0.614,-0.401 -0.657,-0.401c-0.175,0 -0.045,0.174 0.58,0.776c2.307,2.224 6.038,4.91 10.345,7.449c1.488,0.877 2.789,1.69 2.7,1.687c-0.039,-0.001 -0.544,-0.199 -1.122,-0.439Zm-37.742,-24.937c-0.814,-0.058 -1.526,-0.008 -2.078,-0.192c-0.552,-0.183 -0.306,-0.377 0.002,-1.992c0.308,-1.614 1.141,-4.375 2.121,-5.834c0.98,-1.46 1.992,-2.163 3.171,-2.665c0.508,-0.217 0.659,-0.246 1.254,-0.247c0.718,-0.002 1.84,0.229 2.398,0.493c0.163,0.077 0.315,0.11 0.338,0.072c0.024,-0.037 0.342,1.529 0.837,1.974c0.482,0.434 0.978,0.603 1.759,0.602c0.523,-0.001 0.562,0.007 0.301,0.065c-0.166,0.037 -0.487,0.05 -0.714,0.029c-0.373,-0.034 -0.388,-0.03 -0.15,0.04c0.144,0.042 0.519,0.063 0.832,0.045c0.439,-0.025 0.57,-0.009 0.57,0.067c-0,0.055 -0.028,0.1 -0.063,0.1c-0.15,-0 -0.045,0.227 0.125,0.269c0.104,0.026 0.188,0.095 0.188,0.152c0,0.058 0.051,0.105 0.113,0.105c0.062,-0 0.112,0.059 0.112,0.132c0,0.072 0.069,0.175 0.152,0.227c0.124,0.077 0.137,0.123 0.071,0.246c-0.064,0.12 -0.049,0.204 0.072,0.399c0.121,0.196 0.133,0.267 0.06,0.346c-0.074,0.08 -0.069,0.088 0.053,0.04c0.675,-0.268 -1.543,1.218 -1.91,1.536c-2.071,1.777 -3.603,2.703 -5.519,3.337c-1.384,0.459 -2.659,0.758 -4.095,0.654Z" style="fill:#454e51;fill-rule:nonzero;"/><path id="path7" d="M962.966,135.351c-0.655,-0.333 -1.331,-0.451 -3.154,-0.396c-0.895,0.028 -1.358,0.061 -1.451,-0.008c-0.093,-0.069 0.034,-0.851 0.487,-1.389c0.787,-0.934 1.008,-1.089 1.569,-1.425c0.561,-0.337 0.832,-0.284 1.584,0.276c0.752,0.56 1.261,1.339 1.438,2.181c0.177,0.843 0.181,1.094 -0.473,0.761Zm-8.394,-1.324c-0.462,-0.211 -1.456,-1.043 -1.471,-2.072c-0.009,-0.672 0.098,-1.132 0.874,-1.641c0.103,-0.068 0.055,-0.015 0.27,-0.159c-0.095,-0.098 -0.471,-0.14 -1.079,-0.168c-0.608,-0.028 -1.545,0.025 -1.567,-0.126c-0.022,-0.151 0.521,-0.406 1.592,-0.578c0.715,-0.114 2.024,0.009 2.824,0.304c0.8,0.295 1.462,0.777 2.117,1.546c0.654,0.769 0.544,1.411 -0.151,2.104c-0.695,0.693 -0.954,0.755 -1.675,0.94c-0.664,0.169 -1.272,0.061 -1.734,-0.15Zm2.467,-2.13c-0.023,-0.646 -0.608,-1.328 -1.436,-1.306c-0.828,0.021 -1.391,0.685 -1.377,1.387c0.013,0.702 0.562,1.337 1.455,1.331c0.892,-0.006 1.382,-0.765 1.358,-1.412Z" style="fill:#dabc59;fill-rule:nonzero;stroke:#000;stroke-width:0.15px;"/><path id="path6" d="M960.946,168.451c-0.592,-0.746 -4.457,-6.139 -5.029,-6.971c-0.338,-0.49 -0.612,-0.464 -0.153,0.81c0.459,1.275 1.462,3.261 2.04,4.195c0.579,0.935 0.772,0.901 -0.33,0.429c-0.372,-0.159 -4.149,-2.302 -6.436,-4.227c-2.288,-1.925 -3.8,-3.544 -5.53,-6.665c-1.731,-3.121 -2.449,-7.036 -2.402,-9.417c0.047,-2.381 0.1,-4.508 0.287,-5.012c0.643,0.304 1.722,0.332 3.826,0.27c2.103,-0.062 4.937,-1.266 7.136,-3.045c2.198,-1.78 2.208,-1.795 3.114,-2.3c0.794,-0.442 3.341,-0.879 2.777,-0.244c-0.553,0.622 -0.761,1.042 -0.833,1.926c-0.073,0.883 0.146,1.544 0.48,2.06c0.333,0.515 0.705,0.912 0.689,0.916c-0.015,0.003 -0.58,0.047 -1.119,0.059c-6.594,0.091 -7.243,5.242 -7.053,7.397c0.189,2.154 1.29,5.64 5.055,9.025c3.766,3.386 9.627,6.134 14.831,8.183c5.205,2.049 8.129,2.819 9.891,3.571c1.762,0.752 -2.457,0.022 -4.712,-0.34c-2.255,-0.362 -6.102,-1.334 -7.658,-1.945c-1.555,-0.612 -1.637,-0.916 -1.432,0.305c0.206,1.222 0.248,2.344 0.219,4.217c-0.028,1.874 0.061,2.645 -0.508,2.633c-0.287,-0.006 -2.32,-1.012 -3.17,-1.719c-0.85,-0.707 -3.388,-3.365 -3.98,-4.111Z" style="fill:#fffee3;"/></g></g><defs><linearGradient id="_Linear1" x1="0" y1="0" x2="1" y2="0" gradientUnits="userSpaceOnUse" gradientTransform="matrix(1.86129e-14,303.972,-303.972,1.86129e-14,138.602,1.60503)"><stop offset="0" style="stop-color:#fa2dac;stop-opacity:0.99"/><stop offset="1" style="stop-color:#4b27a0;stop-opacity:0.99"/></linearGradient><linearGradient id="_Linear2" x1="0" y1="0" x2="1" y2="0" gradientUnits="userSpaceOnUse" gradientTransform="matrix(-4.63878,304.663,-304.663,-4.63878,51.9695,3.52765)"><stop offset="0" style="stop-color:#f00697;stop-opacity:1"/><stop offset="1" style="stop-color:#3c1f81;stop-opacity:1"/></linearGradient><linearGradient id="_Linear3" x1="0" y1="0" x2="1" y2="0" gradientUnits="userSpaceOnUse" gradientTransform="matrix(907.558,0,0,907.558,359.509,121.18)"><stop offset="0" style="stop-color:#2c78ee;stop-opacity:1"/><stop offset="0.5" style="stop-color:#54abf2;stop-opacity:1"/><stop offset="1" style="stop-color:#2c72ee;stop-opacity:1"/></linearGradient><linearGradient id="_Linear4" x1="0" y1="0" x2="1" y2="0" gradientUnits="userSpaceOnUse" gradientTransform="matrix(907.558,0,0,907.558,359.509,121.18)"><stop offset="0" style="stop-color:#115dd4;stop-opacity:1"/><stop offset="0.5" style="stop-color:#2594ee;stop-opacity:1"/><stop offset="1" style="stop-color:#1157d4;stop-opacity:1"/></linearGradient><linearGradient id="_Linear5" x1="0" y1="0" x2="1" y2="0" gradientUnits="userSpaceOnUse" gradientTransform="matrix(907.558,0,0,907.558,359.509,121.18)"><stop offset="0" style="stop-color:#2c78ee;stop-opacity:1"/><stop offset="0.5" style="stop-color:#54abf2;stop-opacity:1"/><stop offset="1" style="stop-color:#2c72ee;stop-opacity:1"/></linearGradient><linearGradient id="_Linear6" x1="0" y1="0" x2="1" y2="0" gradientUnits="userSpaceOnUse" gradientTransform="matrix(907.558,0,0,907.558,359.509,121.18)"><stop offset="0" style="stop-color:#115dd4;stop-opacity:1"/><stop offset="0.5" style="stop-color:#2594ee;stop-opacity:1"/><stop offset="1" style="stop-color:#1157d4;stop-opacity:1"/></linearGradient><linearGradient id="_Linear7" x1="0" y1="0" x2="1" y2="0" gradientUnits="userSpaceOnUse" gradientTransform="matrix(907.558,0,0,907.558,359.509,121.18)"><stop offset="0" style="stop-color:#2c78ee;stop-opacity:1"/><stop offset="0.5" style="stop-color:#54abf2;stop-opacity:1"/><stop offset="1" style="stop-color:#2c72ee;stop-opacity:1"/></linearGradient><linearGradient id="_Linear8" x1="0" y1="0" x2="1" y2="0" gradientUnits="userSpaceOnUse" gradientTransform="matrix(907.558,0,0,907.558,359.509,121.18)"><stop offset="0" style="stop-color:#115dd4;stop-opacity:1"/><stop offset="0.5" style="stop-color:#2594ee;stop-opacity:1"/><stop offset="1" style="stop-color:#1157d4;stop-opacity:1"/></linearGradient><linearGradient id="_Linear9" x1="0" y1="0" x2="1" y2="0" gradientUnits="userSpaceOnUse" gradientTransform="matrix(907.558,0,0,907.558,359.509,121.18)"><stop offset="0" style="stop-color:#2c78ee;stop-opacity:1"/><stop offset="0.5" style="stop-color:#54abf2;stop-opacity:1"/><stop offset="1" style="stop-color:#2c72ee;stop-opacity:1"/></linearGradient><linearGradient id="_Linear10" x1="0" y1="0" x2="1" y2="0" gradientUnits="userSpaceOnUse" gradientTransform="matrix(907.558,0,0,907.558,359.509,121.18)"><stop offset="0" style="stop-color:#115dd4;stop-opacity:1"/><stop offset="0.5" style="stop-color:#2594ee;stop-opacity:1"/><stop offset="1" style="stop-color:#1157d4;stop-opacity:1"/></linearGradient><linearGradient id="_Linear11" x1="0" y1="0" x2="1" y2="0" gradientUnits="userSpaceOnUse" gradientTransform="matrix(907.558,0,0,907.558,359.509,121.18)"><stop offset="0" style="stop-color:#2c78ee;stop-opacity:1"/><stop offset="0.5" style="stop-color:#54abf2;stop-opacity:1"/><stop offset="1" style="stop-color:#2c72ee;stop-opacity:1"/></linearGradient><linearGradient id="_Linear12" x1="0" y1="0" x2="1" y2="0" gradientUnits="userSpaceOnUse" gradientTransform="matrix(907.558,0,0,907.558,359.509,121.18)"><stop offset="0" style="stop-color:#115dd4;stop-opacity:1"/><stop offset="0.5" style="stop-color:#2594ee;stop-opacity:1"/><stop offset="1" style="stop-color:#1157d4;stop-opacity:1"/></linearGradient><linearGradient id="_Linear13" x1="0" y1="0" x2="1" y2="0" gradientUnits="userSpaceOnUse" gradientTransform="matrix(907.558,0,0,907.558,359.509,121.18)"><stop offset="0" style="stop-color:#2c78ee;stop-opacity:1"/><stop offset="0.5" style="stop-color:#54abf2;stop-opacity:1"/><stop offset="1" style="stop-color:#2c72ee;stop-opacity:1"/></linearGradient><linearGradient id="_Linear14" x1="0" y1="0" x2="1" y2="0" gradientUnits="userSpaceOnUse" gradientTransform="matrix(907.558,0,0,907.558,359.509,121.18)"><stop offset="0" style="stop-color:#115dd4;stop-opacity:1"/><stop offset="0.5" style="stop-color:#2594ee;stop-opacity:1"/><stop offset="1" style="stop-color:#1157d4;stop-opacity:1"/></linearGradient><linearGradient id="_Linear15" x1="0" y1="0" x2="1" y2="0" gradientUnits="userSpaceOnUse" gradientTransform="matrix(4.80479e-15,78.4682,-78.4682,4.80479e-15,1839.26,1720.33)"><stop offset="0" style="stop-color:#4268f0;stop-opacity:1"/><stop offset="1" style="stop-color:#2c58ee;stop-opacity:1"/></linearGradient><linearGradient id="_Linear16" x1="0" y1="0" x2="1" y2="0" gradientUnits="userSpaceOnUse" gradientTransform="matrix(4.74073e-15,77.422,-77.422,4.74073e-15,1880.58,1721.37)"><stop offset="0" style="stop-color:#1342ec;stop-opacity:1"/><stop offset="1" style="stop-color:#113dd4;stop-opacity:1"/></linearGradient><linearGradient id="_Linear17" x1="0" y1="0" x2="1" y2="0" gradientUnits="userSpaceOnUse" gradientTransform="matrix(4.80479e-15,78.4682,-78.4682,4.80479e-15,1839.26,1720.33)"><stop offset="0" style="stop-color:#4268f0;stop-opacity:1"/><stop offset="1" style="stop-color:#2c58ee;stop-opacity:1"/></linearGradient><linearGradient id="_Linear18" x1="0" y1="0" x2="1" y2="0" gradientUnits="userSpaceOnUse" gradientTransform="matrix(4.74073e-15,77.422,-77.422,4.74073e-15,1880.58,1721.37)"><stop offset="0" style="stop-color:#1342ec;stop-opacity:1"/><stop offset="1" style="stop-color:#113dd4;stop-opacity:1"/></linearGradient><linearGradient id="_Linear19" x1="0" y1="0" x2="1" y2="0" gradientUnits="userSpaceOnUse" gradientTransform="matrix(4.80479e-15,78.4682,-78.4682,4.80479e-15,1839.26,1720.33)"><stop offset="0" style="stop-color:#4268f0;stop-opacity:1"/><stop offset="1" style="stop-color:#2c58ee;stop-opacity:1"/></linearGradient><linearGradient id="_Linear20" x1="0" y1="0" x2="1" y2="0" gradientUnits="userSpaceOnUse" gradientTransform="matrix(4.74073e-15,77.422,-77.422,4.74073e-15,1880.58,1721.37)"><stop offset="0" style="stop-color:#1342ec;stop-opacity:1"/><stop offset="1" style="stop-color:#113dd4;stop-opacity:1"/></linearGradient><linearGradient id="_Linear21" x1="0" y1="0" x2="1" y2="0" gradientUnits="userSpaceOnUse" gradientTransform="matrix(4.80479e-15,78.4682,-78.4682,4.80479e-15,1839.26,1720.33)"><stop offset="0" style="stop-color:#4268f0;stop-opacity:1"/><stop offset="1" style="stop-color:#2c58ee;stop-opacity:1"/></linearGradient><linearGradient id="_Linear22" x1="0" y1="0" x2="1" y2="0" gradientUnits="userSpaceOnUse" gradientTransform="matrix(4.74073e-15,77.422,-77.422,4.74073e-15,1880.58,1721.37)"><stop offset="0" style="stop-color:#1342ec;stop-opacity:1"/><stop offset="1" style="stop-color:#113dd4;stop-opacity:1"/></linearGradient><linearGradient id="_Linear23" x1="0" y1="0" x2="1" y2="0" gradientUnits="userSpaceOnUse" gradientTransform="matrix(4.80479e-15,78.4682,-78.4682,4.80479e-15,1839.26,1720.33)"><stop offset="0" style="stop-color:#4268f0;stop-opacity:1"/><stop offset="1" style="stop-color:#2c58ee;stop-opacity:1"/></linearGradient><linearGradient id="_Linear24" x1="0" y1="0" x2="1" y2="0" gradientUnits="userSpaceOnUse" gradientTransform="matrix(4.74073e-15,77.422,-77.422,4.74073e-15,1880.58,1721.37)"><stop offset="0" style="stop-color:#1342ec;stop-opacity:1"/><stop offset="1" style="stop-color:#113dd4;stop-opacity:1"/></linearGradient><linearGradient id="_Linear25" x1="0" y1="0" x2="1" y2="0" gradientUnits="userSpaceOnUse" gradientTransform="matrix(4.80479e-15,78.4682,-78.4682,4.80479e-15,1839.26,1720.33)"><stop offset="0" style="stop-color:#4268f0;stop-opacity:1"/><stop offset="1" style="stop-color:#2c58ee;stop-opacity:1"/></linearGradient><linearGradient id="_Linear26" x1="0" y1="0" x2="1" y2="0" gradientUnits="userSpaceOnUse" gradientTransform="matrix(4.74073e-15,77.422,-77.422,4.74073e-15,1880.58,1721.37)"><stop offset="0" style="stop-color:#1342ec;stop-opacity:1"/><stop offset="1" style="stop-color:#113dd4;stop-opacity:1"/></linearGradient><linearGradient id="_Linear27" x1="0" y1="0" x2="1" y2="0" gradientUnits="userSpaceOnUse" gradientTransform="matrix(4.80479e-15,78.4682,-78.4682,4.80479e-15,1839.26,1720.33)"><stop offset="0" style="stop-color:#4268f0;stop-opacity:1"/><stop offset="1" style="stop-color:#2c58ee;stop-opacity:1"/></linearGradient><linearGradient id="_Linear28" x1="0" y1="0" x2="1" y2="0" gradientUnits="userSpaceOnUse" gradientTransform="matrix(4.74073e-15,77.422,-77.422,4.74073e-15,1880.58,1721.37)"><stop offset="0" style="stop-color:#1342ec;stop-opacity:1"/><stop offset="1" style="stop-color:#113dd4;stop-opacity:1"/></linearGradient><linearGradient id="_Linear29" x1="0" y1="0" x2="1" y2="0" gradientUnits="userSpaceOnUse" gradientTransform="matrix(4.80479e-15,78.4682,-78.4682,4.80479e-15,1839.26,1720.33)"><stop offset="0" style="stop-color:#4268f0;stop-opacity:1"/><stop offset="1" style="stop-color:#2c58ee;stop-opacity:1"/></linearGradient><linearGradient id="_Linear30" x1="0" y1="0" x2="1" y2="0" gradientUnits="userSpaceOnUse" gradientTransform="matrix(4.74073e-15,77.422,-77.422,4.74073e-15,1880.58,1721.37)"><stop offset="0" style="stop-color:#1342ec;stop-opacity:1"/><stop offset="1" style="stop-color:#113dd4;stop-opacity:1"/></linearGradient><linearGradient id="_Linear31" x1="0" y1="0" x2="1" y2="0" gradientUnits="userSpaceOnUse" gradientTransform="matrix(4.80479e-15,78.4682,-78.4682,4.80479e-15,1839.26,1720.33)"><stop offset="0" style="stop-color:#4268f0;stop-opacity:1"/><stop offset="1" style="stop-color:#2c58ee;stop-opacity:1"/></linearGradient><linearGradient id="_Linear32" x1="0" y1="0" x2="1" y2="0" gradientUnits="userSpaceOnUse" gradientTransform="matrix(4.74073e-15,77.422,-77.422,4.74073e-15,1880.58,1721.37)"><stop offset="0" style="stop-color:#1342ec;stop-opacity:1"/><stop offset="1" style="stop-color:#113dd4;stop-opacity:1"/></linearGradient><linearGradient id="_Linear33" x1="0" y1="0" x2="1" y2="0" gradientUnits="userSpaceOnUse" gradientTransform="matrix(4.80479e-15,78.4682,-78.4682,4.80479e-15,1839.26,1720.33)"><stop offset="0" style="stop-color:#4268f0;stop-opacity:1"/><stop offset="1" style="stop-color:#2c58ee;stop-opacity:1"/></linearGradient><linearGradient id="_Linear34" x1="0" y1="0" x2="1" y2="0" gradientUnits="userSpaceOnUse" gradientTransform="matrix(4.74073e-15,77.422,-77.422,4.74073e-15,1880.58,1721.37)"><stop offset="0" style="stop-color:#1342ec;stop-opacity:1"/><stop offset="1" style="stop-color:#113dd4;stop-opacity:1"/></linearGradient><linearGradient id="_Linear35" x1="0" y1="0" x2="1" y2="0" gradientUnits="userSpaceOnUse" gradientTransform="matrix(4.80479e-15,78.4682,-78.4682,4.80479e-15,1839.26,1720.33)"><stop offset="0" style="stop-color:#4268f0;stop-opacity:1"/><stop offset="1" style="stop-color:#2c58ee;stop-opacity:1"/></linearGradient><linearGradient id="_Linear36" x1="0" y1="0" x2="1" y2="0" gradientUnits="userSpaceOnUse" gradientTransform="matrix(4.74073e-15,77.422,-77.422,4.74073e-15,1880.58,1721.37)"><stop offset="0" style="stop-color:#1342ec;stop-opacity:1"/><stop offset="1" style="stop-color:#113dd4;stop-opacity:1"/></linearGradient><linearGradient id="_Linear37" x1="0" y1="0" x2="1" y2="0" gradientUnits="userSpaceOnUse" gradientTransform="matrix(4.80479e-15,78.4682,-78.4682,4.80479e-15,1839.26,1720.33)"><stop offset="0" style="stop-color:#4268f0;stop-opacity:1"/><stop offset="1" style="stop-color:#2c58ee;stop-opacity:1"/></linearGradient><linearGradient id="_Linear38" x1="0" y1="0" x2="1" y2="0" gradientUnits="userSpaceOnUse" gradientTransform="matrix(4.74073e-15,77.422,-77.422,4.74073e-15,1880.58,1721.37)"><stop offset="0" style="stop-color:#1342ec;stop-opacity:1"/><stop offset="1" style="stop-color:#113dd4;stop-opacity:1"/></linearGradient></defs></svg>