<svg xmlns="http://www.w3.org/2000/svg" width="100%" height="100%" viewBox="0 0 2550 820" fill-rule="evenodd" stroke-linejoin="round" stroke-miterlimit="2" xmlns:v="https://vecta.io/nano"><g fill-rule="nonzero"><path d="M242.321 795.094c-6.405-6.239-8.597-11.921-8.076-20.93.516-8.911 3.548-15.033 11.088-22.388 9.312-9.083 8.936-9.359-13.177-9.687-22.646-.336-26.695.562-33.457 7.42-7.42 7.526-10.837 19.307-8.805 30.353.557 3.025.82 5.694.586 5.932-.873.883-7.268-6.278-9.861-11.043-3.656-6.718-4.26-13.931-2.047-24.474.979-4.664 1.508-8.751 1.176-9.083s-17.701-.59-38.599-.573c-37.019.028-38.113.085-42.52 2.219-8.534 4.131-15.434 14.178-17.978 26.178l-1.346 6.344-1.775-4c-1.062-2.391-1.952-7.419-2.214-12.5-.711-13.779 4.141-24.936 14.405-33.12 10.908-8.697 16.257-9.741 52.708-10.293 26.301-.397 30.069-.653 31.727-2.153 2.04-1.846 8.529-11.948 25.654-39.934l20.273-34.293c0-.513-2.926-5.248-6.501-10.522-12.761-18.818-26.268-49.321-32.615-73.652-1.654-6.343-3.318-11.796-3.696-12.117s-5.633-4.371-11.676-9c-29.989-22.968-55.903-48.68-75.367-74.776-32.241-43.228-48.586-85.669-54.162-140.64-1.417-13.965-1.412-54.165.008-75 3.007-44.114 11.734-94.304 21.055-121.098 4.016-11.545 13.526-31.341 19.505-40.601 22.824-35.348 56.883-57.219 98.726-63.397 14.58-2.153 40.934-1.444 54.223 1.458 36.698 8.016 62.561 26.445 74.929 53.394 1.828 3.984 4.094 9.387 5.035 12.005s2.559 5.216 3.596 5.771c5.141 2.752 14.586 11.909 18.392 17.833 7.642 11.894 11.19 16.648 12.603 26.959s-1.104 19.854-4.666 25.131-7.428 8.764-8.297 7.321c-6.434-10.688-13.738-13.556-20.803-14.882-5.495-1.03-8.425.542-11.93 6.402-5.986 10.007-6.817 23.685-2.077 34.204 3.792 8.417 10.063 13.651 31.718 26.474 33.638 19.919 64.288 43.898 94.417 73.869 26.918 26.777 42.513 44.617 84.06 96.157 70.969 88.039 126.001 150.051 166.023 187.08 28.336 26.217 51.916 45.842 79.312 66.009l5.313 3.911-4.813.323c-5.958.4-12.343-.826-31.109-5.971-25.49-6.99-78.124-23.754-89.585-28.535-8.386-3.498-10.333-.626-3.176 4.683 1.854 1.375 11.368 9.25 21.142 17.5l23.907 20 45.071 37.54 69.154 57.79 30.759 26.13c.734 1.188-3.725 2.561-17.978 5.536-17.552 3.664-33.08 4.819-56.497 4.206-22.326-.585-29.771-1.864-44.732-7.685-9.496-3.695-12.782-6.183-48.888-37.017l-31.785-26.975c-1.702-1.362-10.52-8.773-19.595-16.47l-84.507-70.574c-17.001-13.866-14.474-12.649-31.076-14.971a730.48 730.48 0 0 1-52.185-9.108c-7.847-1.649-14.71-2.725-15.25-2.391-.587.363-.982 8.201-.982 19.468 0 25.454-2.516 60.87-4.462 62.817-1.046 1.045-18.582-2.83-30.447-6.727-12.706-4.174-32.736-13.663-42.248-20.015-3.339-2.23-6.867-4.054-7.839-4.054-1.351 0-2.405 2.066-4.465 8.75-3.907 12.681-10.715 31.315-15.434 42.25-2.255 5.225-4.101 10.063-4.103 10.75-.002.918 2.724 1.255 10.248 1.27 23.837.046 37.462 5.163 44.895 16.861 6.571 10.34 7.873 23.873 3.281 34.105-1.485 3.308-3.037 6.014-3.449 6.014s-1.059-2.138-1.436-4.75c-1.647-11.409-9.27-21.671-18.333-24.681-4.257-1.414-8.709-1.625-28.913-1.37l-23.882.301-8.346 6c-12.931 9.296-26.484 22.61-29.693 29.168-2.864 5.854-3.62 12.909-2.045 19.082 1.151 4.509-.266 4.156-6.091-1.518zm483.762-34.988c0-.757-26.034-25.178-35.583-33.379-2.795-2.401-12.92-11.379-22.5-19.952-53.6-47.966-95.702-81.018-99.899-78.424-1.639 1.013 19.013 23.386 35.292 38.234 14.905 13.595 36.046 32.293 46.769 41.363 52.287 44.232 50.67 42.996 64.421 49.239 7.763 3.525 11.5 4.474 11.5 2.919zm-454.797-45.291c9.098-4.147 25.865-46.913 31.822-81.168l1.168-6.715-8.94-8.785c-4.916-4.832-10.29-10.548-11.941-12.702-1.829-2.387-3.554-3.704-4.417-3.373-1.09.419-2.201 8.675-4.832 35.917l-3.615 35.665c-.446.655-12.344-7.008-17.837-11.489-8.233-6.716-8.183-6.684-9.725-6.066-2.048.821-37.191 57.46-36.423 58.702.894 1.448 61.565 1.461 64.74.014zm121.577-56.796c.904-.574 1.621-6.779 2.44-21.139 1.333-23.349.002-52.408-3.182-69.518-1.024-5.5-1.692-10.172-1.483-10.383s6.581 1.905 14.162 4.703c33.52 12.37 55.344 18.09 101.283 26.548 18.771 3.456 23.717 4.206 46.5 7.053 24.122 3.014 28.198 3.281 29.547 1.932 2.094-2.094 5.119-.904-58.047-22.82-58.121-20.165-77.839-27.53-108.5-40.531-103.719-43.977-163.331-83.434-201.805-133.573-14.89-19.405-26.005-42.68-31.723-66.429-3.274-13.598-3.337-39.726-.123-51.5 4.737-17.359 14.424-32.719 26.873-42.612 11.747-9.336 20.324-13.676 35.778-18.106 6.121-1.754 24.062-2.912 43.25-2.79 2.37.015 1.235-2.314-3.64-7.469-8.842-9.349-12.684-20.047-11.843-32.971.618-9.489 3.485-17.764 8.375-24.17 4.362-5.715 4.094-7.691-1.152-8.49-3.81-.581-3.842-.615-.705-.75 2.996-.129 3.188-.324 2.181-2.206-1.494-2.792.074-4.544 4.82-5.385 8.135-1.441 7.212-2.075-3.786-2.602l-11.5-.55 14.566-.2c17.011-.232 24.259.866 32.214 4.883 9.106 4.597 9.81 4.066 8.587-6.476-1.009-8.703-7.479-21.137-14.192-27.272-5.26-4.808-16.123-11.334-18.865-11.334-2.53 0-13.242 8.555-20.046 16.01-3.744 4.103-6.42 6.389-6.116 5.227.67-2.561-2.474-4.465-7.581-4.59l-3.567-.087 2.75-5.421c3.91-7.707 3.641-11.577-1.322-19.009C246.01 69.518 224.896 59.8 199.583 59.56c-6.872-.065-13.923.419-16.5 1.132-7.423 2.054-13.174 3.636-13.172 5.338.002 1.375 3.393 2.063 14.791 2.213 7.286.095 14.231.876 15.881 1.375l3 .909-3.135 1.634c-4.173 2.175-10.989 10.031-12.393 14.285-.62 1.879-1.262 3.416-1.427 3.416s-1.946-.687-3.956-1.527-8.475-2.689-14.367-4.109c-15.371-3.704-25.663-3.159-36.578 1.936-14.783 6.902-28.389 17.613-40.208 34.369-14.823 21.016-25.577 50.536-30.675 81.714s-2.202 12.663-4.451 31.758c-1.386 11.763-2.545 25.462-2.522 49.204.402 29.02 2.005 42.697 7.332 65.655 17.091 73.653 60.851 133.033 133.88 181.665 18.431 12.274 57.358 34.335 60.585 34.335 2.595 0 1.467-3.093-4.683-12.837-8.517-13.497-22.15-41.595-26.432-54.476-3.772-11.346-4.137-14.924-1.029-10.074 1.846 2.881 4.067 5.919 22.943 31.387l13.672 18.5 43.856 58c26.022 31.591 51.339 51.103 78.588 60.57 9.381 3.259 8.663 3.113 10.28 2.087zM266.833 135.2c.688-.278 1.813-.278 2.5 0s.125.504-1.25.504-1.937-.227-1.25-.504zm-50.192-23.797c-5.535-2.018-8.605-4.546-10.906-8.98-5.983-11.529 2.565-25.5 15.63-25.545 6.243-.021 10.511 1.846 14.434 6.314 3.524 4.013 4.805 8.747 3.997 14.771-1.349 10.058-13.339 17.017-23.155 13.44zm400.201 459.235c-.433-1.299-21.413-14.58-46.259-29.284-37.271-22.056-60.685-37.587-91-60.363-26.013-19.544-59.27-49.643-41.18-37.27 9.536 6.523 81.821 45.825 114.205 62.095 26.409 13.268 34.881 16.973 36.076 15.779.324-.325-7.841-10.185-18.146-21.912-18.785-21.375-48.164-56.269-56.503-67.107-4.809-6.25-4.945-6.312-15.639-7.152-8.054-.632-27.335-5.343-34.534-8.437-2.596-1.116-4.929-1.692-5.183-1.28s2.457 4.218 6.025 8.459 6.212 8.157 5.874 8.703c-.958 1.551-25.289 1.19-34.151-.506-11.015-2.107-30.691-8.846-40.523-13.878-25.384-12.993-50.13-33.607-67.203-55.983-6.132-8.035-6.752-10.209-1.947-6.823 3.601 2.537 34.448 21.085 44.329 26.654 7.817 4.405 22.851 10.773 34 14.401 9.221 3 23.965 5.993 24.585 4.99.703-1.137.359-1.632-10.681-15.397-13.161-16.41-23.064-29.638-22.563-30.14.23-.229 5.534 2.91 11.788 6.977 14.023 9.118 30.336 18.799 42.871 25.442 16.134 8.55 35 15.221 35 12.377 0-1.802-31.602-40.409-49.296-60.223-43.639-48.868-83.604-79.961-121.704-94.686-12.716-4.915-28.55-8.114-44-8.89-24.722-1.242-40.098 4.272-54.053 19.383-34.03 36.852-14.978 104.574 44.553 158.365 33.217 30.014 74.814 55.847 118 73.282 13.836 5.585 39.695 14.648 41.798 14.648 1.71 0 .434-1.723-2.548-3.441-17.534-10.102-58.465-40.187-77.75-57.15-17.97-15.806-47.635-47.019-42.992-45.236.82.315 8.017 4.82 15.992 10.01l33.5 21.108 30.204 18.94c71.781 46.573 81.732 52.348 136.296 79.109 31.572 15.485 54.569 26.15 72 33.391 31.978 13.283 31.44 13.09 30.759 11.045z" fill="#2d3334" stroke="#000" stroke-width="2"/><path d="M714.583 757.187c-11.932-5.418-16.091-8.368-38.5-27.318l-25.921-21.921c-10.723-9.07-31.864-27.768-46.769-41.363-16.279-14.848-36.931-37.221-35.292-38.234 4.197-2.594 46.299 30.458 99.899 78.424l22.5 19.952c9.549 8.201 35.583 32.622 35.583 33.379 0 1.555-3.737.606-11.5-2.919zm-.712-7.172c-5.108-4.866-13.563-12.576-18.788-17.134l-18.5-16.509c-43.598-39.832-97.4-83.51-102.868-83.51-.344 0 2.848 4.053 7.092 9.007 9.633 11.243 43.922 42.812 73.307 67.493l24.901 21.062c9.113 7.734 18.708 15.52 21.324 17.302 4.317 2.941 20.123 10.876 22.032 11.06.433.042-3.392-3.905-8.5-8.771zM605.083 567.449l-43-18.347c-21.249-9.541-77.553-37.228-94-46.223-23.64-12.928-36.22-20.701-90.296-55.786-6.162-3.998-19.754-12.521-30.204-18.94l-33.5-21.108c-7.975-5.19-15.172-9.695-15.992-10.01-4.643-1.783 25.022 29.43 42.992 45.236 19.285 16.963 60.216 47.048 77.75 57.15 2.982 1.718 4.258 3.441 2.548 3.441-.387 0-6.349-1.843-13.25-4.095-68.146-22.237-133.279-63.934-171.04-109.497-35.501-42.835-46.108-88.695-28.183-121.856 5.781-10.694 19.709-22.782 30.701-26.646 13.164-4.626 32.932-4.949 53.974-.88 28.973 5.603 62.229 24.185 95.5 53.362 18.319 16.066 30.115 27.813 47.704 47.51 17.694 19.814 49.296 58.421 49.296 60.223 0 2.844-18.866-3.827-35-12.377-12.535-6.643-28.848-16.324-42.871-25.442-6.254-4.067-11.558-7.206-11.788-6.977-.501.502 9.402 13.73 22.563 30.14 11.04 13.765 11.384 14.26 10.681 15.397-.62 1.003-15.364-1.99-24.585-4.99-11.149-3.628-26.183-9.996-34-14.401-9.881-5.569-40.728-24.117-44.329-26.654-4.805-3.386-4.185-1.212 1.947 6.823 17.073 22.376 41.819 42.99 67.203 55.983 9.832 5.032 29.508 11.771 40.523 13.878 8.862 1.696 33.193 2.057 34.151.506.338-.546-2.306-4.462-5.874-8.703s-6.28-8.047-6.025-8.459 2.587.164 5.183 1.28c7.199 3.094 26.48 7.805 34.534 8.437 10.694.84 10.83.902 15.639 7.152 8.339 10.838 37.718 45.732 56.503 67.107 10.305 11.727 18.47 21.587 18.146 21.912-1.195 1.194-9.667-2.511-36.076-15.779-32.384-16.27-104.669-55.572-114.205-62.095-18.09-12.373 15.167 17.726 41.18 37.27 30.315 22.776 53.729 38.307 91 60.363 35.017 20.723 50.004 30.685 45.833 30.464-.458-.024-5.558-1.991-11.333-4.369zm-6.55-7.412l-25.95-15.667c-57.35-33.804-107.021-69.567-137.75-99.179-8.318-8.015-10.047-10.329-7.718-10.329.568 0 4.505 2.403 8.75 5.34 6.941 4.802 24.717 14.825 75.218 42.409 30.2 16.495 74 38.172 74 36.623 0-.567-5.138-6.631-18-21.243-15.412-17.507-48.072-56.593-56.046-67.07-2.429-3.192-2.886-3.36-10-3.685-8.18-.374-21.019-3.107-31.927-6.798-3.865-1.308-7.025-2.085-7.023-1.727s2.522 3.473 5.599 6.922 5.363 6.876 5.079 7.615c-1.21 3.152-26.544 3.115-40.682-.061-38.728-8.698-78.315-35.406-105.278-71.027-7.037-9.296-8.777-12.298-7.131-12.298.325 0 5.163 2.855 10.75 6.344 37.847 23.634 51.044 30.672 69.659 37.153 9.91 3.451 27.034 7.803 27.776 7.06.188-.187-4.298-6.127-9.968-13.2l-17.603-22.642c-10.949-14.686-10.836-15.673.867-7.576 12.848 8.89 39.873 24.777 54.428 31.998 12.546 6.224 26.961 11.735 27.994 10.702.343-.343-6.885-9.44-27.767-34.944-35.83-43.761-77.933-82.945-108.567-101.039-30.408-17.961-52.978-24.872-81.125-24.841-20.456.022-30.494 3.074-42.761 12.999-7.242 5.86-13.301 14.949-17.378 26.07-13.236 36.095 5.317 85.662 47.717 127.484 6.729 6.638 16.568 15.638 21.866 20 28.382 23.375 67.077 46.173 103.521 60.993 14.313 5.821 34.067 12.75 34.61 12.141.099-.111-6.157-4.477-13.902-9.702-39.626-26.733-76.991-58.975-99.616-85.957-11.029-13.153-10.318-13.139 10.093.201 7.874 5.146 19.941 12.769 26.816 16.941 26.348 15.988 29.245 17.825 70.285 44.582 35.043 22.848 60.763 37.286 107.714 60.465 34.702 17.132 89.501 41.607 93.45 41.737.522.017-3.978-3.04-10-6.794zM62.081 202.864c5.543-33.902 15.481-60.699 30.304-81.714 11.819-16.756 24.559-28.086 39.342-34.988 10.915-5.095 21.207-5.64 36.578-1.936 5.892 1.42 12.381 3.279 14.422 4.132 2.961 1.237 3.702 3.49-.204 1.644-7.44-3.518-22.372-6.59-31.94-6.573-7.917.014-9.925.41-16.691 3.293-15.698 6.69-29.532 19.122-42.093 37.829-13.48 20.074-22.41 44.574-28.181 77.311 1.161 3.504-6.328 30.301-1.537 1.002zm181.776-48.176c.899-.899.698-1.945-.857-4.46-1.6-2.589-1.801-3.713-.951-5.303.881-1.646.708-2.25-.943-3.281-1.113-.695-2.023-2.055-2.023-3.023s-.675-1.759-1.5-1.759-1.5-.626-1.5-1.392-1.125-1.674-2.5-2.019c-2.263-.568-3.666-3.589-1.667-3.589.459 0 .834-.596.834-1.325 0-1.021-1.739-1.227-7.584-.896-4.171.236-9.158-.029-11.083-.59-3.063-.891-2.751-.958 2.5-.533 4.191.339 8.387-.139 13.914-1.586 11.393-2.983 16.18-5.794 23.636-14.928 2.062-2.527 5.213-6.296 5.12-3.703s2.77 2.978 6.113 4.367c4.34 1.754 1.851 6.127-4.165 14.716s-4.615 9.305.132 9.872-6.84-.735 20.776-.694-.407 2.359 3.107 8.921c1.316 2.46-3.324 8.873-5.852 9.314-5.989 1.047-23.816-2.119-30.851.993-5.36 2.371-6.313 2.555-4.656.898z" fill="#3c4345"/><path d="M713.339 754.838c-11.041-5.185-14.92-7.944-34.324-24.414l-24.901-21.062c-29.385-24.681-63.674-56.25-73.307-67.493-4.244-4.954-7.436-9.007-7.092-9.007 5.468 0 59.27 43.678 102.868 83.51l18.5 16.509c11.755 10.254 28.35 26.007 27.288 25.905-.433-.042-4.498-1.818-9.032-3.948zM593.583 560.983c-25.969-10.79-48.857-21.254-78.5-35.889-46.951-23.179-72.671-37.617-107.714-60.465l-70.285-44.582c-6.875-4.172-18.942-11.795-26.816-16.941-20.411-13.34-21.122-13.354-10.093-.201 22.625 26.982 59.99 59.224 99.616 85.957 7.745 5.225 14 9.591 13.902 9.702s-4.215-1.066-9.145-2.615c-14.594-4.585-40.858-15.664-57.465-24.24-84.99-43.894-138.579-103.155-144.912-160.252-2.565-23.129 6.038-47.324 21.186-59.581 12.267-9.925 22.305-12.977 42.761-12.999 28.147-.031 50.717 6.88 81.125 24.841 30.634 18.094 72.737 57.278 108.567 101.039l27.767 34.944c-1.033 1.033-15.448-4.478-27.994-10.702-14.555-7.221-41.58-23.108-54.428-31.998-11.703-8.097-11.816-7.11-.867 7.576 4.012 5.381 11.934 15.57 17.603 22.642s10.156 13.013 9.968 13.2c-.742.743-17.866-3.609-27.776-7.06-18.615-6.481-31.812-13.519-69.659-37.153-10.68-6.67-11.341-6.978-11.341-5.296 0 1.874 15.236 21.235 23.472 29.826 13.588 14.175 34.289 29.604 52.034 38.785 8.983 4.648 27.677 11.461 37.494 13.666 14.138 3.176 39.472 3.213 40.682.061.284-.739-2.002-4.165-5.079-7.615s-5.596-6.564-5.599-6.922 3.158.419 7.023 1.727c10.908 3.691 23.747 6.424 31.927 6.798 7.114.325 7.571.493 10 3.685 7.974 10.477 40.634 49.563 56.046 67.07 12.862 14.612 18 20.676 18 21.243 0 1.549-43.8-20.127-74-36.623l-75.218-42.409c-4.245-2.937-8.182-5.34-8.75-5.34-2.329 0-.6 2.314 7.718 10.329 30.729 29.612 80.4 65.375 137.75 99.179 19.811 11.677 37.133 22.5 35.95 22.461-.523-.017-7.25-2.649-14.95-5.848zM91.073 228.969c-10.839-.781-20.317-.111-27.666-2.557s-4.079-5.027.026-26.523 15.19-58.251 28.242-77.688 26.519-28.789 42.217-35.479c6.766-2.883 8.774-3.279 16.691-3.293 9.568-.017 24.5 3.055 31.94 6.573 2.167 1.024 4.192 1.457 4.5.961s4.543 20.35 11.14 26.281c6.422 5.774 13.022 8.032 23.42 8.012 6.96-.013 7.48.1 4 .869-2.2.485-6.475.657-9.5.381-4.969-.453-5.162-.402-2 .531 1.925.568 6.913.84 11.083.604 5.845-.331 7.584-.125 7.584.896 0 .729-.375 1.325-.834 1.325-1.999 0-.596 3.021 1.667 3.589 1.375.345 2.5 1.254 2.5 2.019s.675 1.392 1.5 1.392 1.5.792 1.5 1.759.91 2.328 2.023 3.023c1.651 1.031 1.824 1.635.943 3.281-.85 1.59-.649 2.714.951 5.303 1.615 2.613 1.78 3.557.807 4.607-.995 1.074-.924 1.174.702.534 8.988-3.563-20.541 16.217-25.436 20.461-27.567 23.66-47.973 35.979-73.473 44.431-18.429 6.108-35.405 10.087-54.527 8.708h0z" fill="#454e51"/><path d="M319.68 139.744c-8.714-4.435-17.725-6.011-41.985-5.27-11.923.364-18.093.805-19.325-.112s.457-11.333 6.487-18.489c10.477-12.434 13.422-14.5 20.892-18.979s11.076-3.776 21.088 3.679 16.788 17.83 19.144 29.043 2.413 14.562-6.301 10.128zm-111.758-17.635c-6.151-2.808-19.387-13.881-19.584-27.577-.129-8.957 1.302-15.074 11.637-21.857 1.375-.902.731-.194 3.59-2.117-1.257-1.306-6.267-1.855-14.362-2.232s-20.575.331-20.867-1.682 6.932-5.399 21.197-7.689c9.519-1.529 26.944.115 37.602 4.041s19.465 10.345 28.181 20.582 7.248 18.795-2.007 28.017-12.696 10.053-22.307 12.511c-8.841 2.261-16.928.812-23.08-1.997zm32.85-28.35c-.317-8.609-8.102-17.68-19.123-17.395s-18.517 9.119-18.339 18.466 7.493 17.805 19.374 17.726 18.404-10.187 18.088-18.797z" fill="#dabc59" stroke="#000" stroke-width="2"/></g><path d="M292.782 580.45c-7.882-9.937-59.333-81.731-66.959-92.813-4.489-6.523-8.14-6.185-2.032 10.786s19.468 43.417 27.169 55.858 10.27 11.984-4.402 5.707c-4.955-2.12-55.237-30.656-85.694-56.286s-50.592-47.182-73.631-88.737-32.598-93.685-31.976-125.382 1.334-60.018 3.828-66.733c8.554 4.047 22.926 4.421 50.929 3.597s65.74-16.859 95.013-40.549 29.398-23.897 41.461-30.611c10.578-5.888 44.488-11.704 36.975-3.252-7.354 8.274-10.13 13.871-11.092 25.636s1.955 20.568 6.39 27.427 9.395 12.151 9.186 12.195-7.723.632-14.908.795c-87.797 1.205-96.435 69.797-93.91 98.482s17.185 75.098 67.317 120.169 128.17 81.671 197.465 108.947 108.228 37.538 131.69 47.546-32.712.291-62.739-4.53-81.249-17.751-101.959-25.897-21.801-12.198-19.063 4.072 3.298 31.197 2.915 56.147.805 35.213-6.769 35.052c-3.819-.082-30.892-13.482-42.209-22.892s-45.114-44.797-52.995-54.734z" fill="#fffee3"/><g fill-rule="nonzero"><path d="M1141.11 68.466l-32.481 32.955v243.494l29.162 27.739h-109.062l32.956-27.739V185.352l-75.158 206.744h-22.761l-1.897-5.69h20.627l79.189-221.207v-36.275l-88.198 243.493H956.89l-64.963-191.333v125.422c0 16.754 1.106 28.609 3.319 35.564s7.429 14.62 15.648 22.998l21.339 27.028H808.234l-4.268-5.69h116.412l-8.772-13.752H805.863l4.979-2.608c17.544-9.641 29.122-19.402 34.733-29.28s8.417-25.488 8.417-46.826V97.865l-31.296-29.399h122.577l-34.379 31.059 67.097 198.446 8.536-20.627-60.696-175.923 31.059-22.997 4.979 4.03-29.636 20.864 56.427 165.253 61.17-169.046-28.925-31.059h120.205zm-268.387 56.19v170.232c0 26.08 2.489 44.02 7.468 53.82s15.292 16.913 30.94 21.338l-2.133-3.556c-15.49-10.748-23.235-26.238-23.235-46.47V162.354l-13.04-37.698zm281.665-37.697l-26.792 19.204v239.559l41.254 46.374h-125.896l-3.319-5.69h114.753l-32.956-37.35V102.133l27.977-19.205 4.979 4.031z" fill="url(#A)"/><path d="M1433.92 68.466l-3.794 4.523c-16.122 19.837-28.925 42.61-38.409 68.319l-3.556-7.998c-8.693-18.816-18.019-30.969-27.977-36.456s-27.819-8.236-53.583-8.236c-11.854 0-26.08.392-42.676 1.175v108.362h15.174v-95.893c12.012-1.034 23.472-1.552 34.378-1.552 20.074 0 34.853 2.111 44.336 6.331s17.94 12.429 25.369 24.624c-2.213-1.558-3.793-2.727-4.742-3.508-12.803-9.972-22.049-15.894-27.739-17.763s-16.913-2.808-33.667-2.808c-5.058 0-14.068.274-27.029.822l-4.979.204v89.543h43.625l30.585-41.791v102.012l-30.585-39.594h-64.726V351.79h15.174V229.925h51.449l6.164 6.165h-51.686v115.7c32.245 0 55.163-2.291 68.757-6.875s24.262-13.594 32.007-27.029l12.566-21.575c.474-.948 1.423-2.687 2.845-5.216 4.11 17.387 9.207 31.296 15.293 41.728s16.161 22.603 30.229 36.512h-265.78l36.038-27.502V236.09c-13.277 1.58-25.29 5.69-36.038 12.328l-3.319-4.979c9.641-6.954 22.76-11.459 39.357-13.514v-11.143c-2.687-.316-4.584-.474-5.69-.474-16.123 0-30.822 5.927-44.099 17.782 7.27-25.29 23.867-37.935 49.789-37.935V97.558l-36.038-29.092h252.977zm11.38 15.648l-1.659 2.134c-19.284 25.922-32.166 47.655-38.646 65.2l-4.031-4.979c10.59-24.5 24.262-46.944 41.017-67.334l3.319 4.979zm-69.705 79.9v104.794l-5.927-3.082V160.931l5.927 3.083zm98.156 207.403l-12.329 20.679h-258.904l-3.793-5.69h259.615l8.061-14.989c-22.76-21.094-38.804-43.615-48.129-67.564l7.587 2.853c8.693 20.301 23.393 40.602 44.099 60.903l3.793 3.808z" fill="url(#A)"/><path d="M1489.87 96.917c37.461-21.655 77.767-32.482 120.917-32.482 33.509 0 61.13 7.271 82.864 21.813s32.6 33.034 32.6 55.479c0 18.335-7.113 34.576-21.338 48.722s-33.667 24.381-58.325 30.704c10.906 30.049 25.725 59.307 44.455 87.776s37.5 50.29 56.309 65.474l-3.556 1.182c-23.551 8.044-46.628 19.398-69.231 34.063l-3.556 2.364-1.186-7.587c-10.116-61.17-24.262-113.014-42.439-155.532l-.949-2.371c-10.906 5.058-25.527 9.088-43.862 12.091l-1.896.237v88.673l41.728 44.573h-122.577l-3.793-5.69h112.856l-34.379-37.224v-95.548l4.979-.711c18.019-1.897 33.114-5.453 45.285-10.669-.949-1.897-1.502-3.082-1.66-3.556l-2.371-6.876c-.158-.474-.553-1.423-1.185-2.845-9.8 2.845-28.293 5.927-55.48 9.246l-2.608.475v105.743l27.029 28.213h-104.795l30.822-28.213v-79.663l-1.897.237c-9.167 2.055-17.466 4.346-24.894 6.875l-1.897.712-2.134-4.742c6.955-2.687 12.408-4.505 16.359-5.453l14.463-3.557v-12.328c-9.326 0-20.943 2.054-34.852 6.164l-2.609.948c.317-2.212 1.897-7.349 4.742-15.411.316-.632 1.423-4.188 3.32-10.669l.711-2.134c7.113.475 12.645.712 16.596.712 4.268 0 8.219-.237 11.855-.712V108.771c-7.271-4.425-14.779-8.14-22.524-11.143l-1.897-.711zm71.602-6.165v127.793c4.584 0 8.931-.395 13.04-1.186V100.71c8.694-2.371 19.126-3.556 31.296-3.556 30.822 0 51.765 10.116 62.83 30.348-11.697-9.484-21.971-16.004-30.822-19.561s-19.442-5.334-31.771-5.334c-9.641 0-18.098.948-25.368 2.845v111.907l2.608-.474c31.138-5.69 54.254-14.66 69.349-26.91s22.642-28.174 22.642-47.774c0-17.545-6.796-32.047-20.39-43.506s-30.743-17.189-51.449-17.189c-16.596 0-30.584 3.082-41.965 9.246zm114.516 142.255c9.957 32.561 27.581 64.41 52.871 95.548 15.806 19.442 35.801 36.908 59.984 52.398a374.51 374.51 0 0 0-101.949 44.099l-2.134 1.422-4.742-3.793c30.19-19.758 62.355-34.299 96.496-43.625-45.521-30.348-81.322-78.873-107.402-145.574l-1.423-4.031c48.367-18.335 72.55-46.312 72.55-83.93 0-15.49-6.243-32.403-18.73-50.738 15.964 14.542 23.946 33.035 23.946 55.479 0 36.354-23.156 63.936-69.467 82.745z" fill="url(#A)"/><path d="M1787.18 68.466h113.329l-33.43 32.481v253.451h1.897l8.536.712h2.133V103.318l25.606-25.843 3.32 5.216-22.998 23.472V355.11c7.112.632 13.909.948 20.39.948 25.131 0 44.138-5.572 57.02-16.715s21.536-29.518 25.962-55.124c14.857 43.151 30.11 72.629 45.758 88.435H1787.18l32.718-26.791V98.576l-32.718-30.11zm270.758 302.951l-10.669 20.679h-247.524l-5.927-5.69h250.843l6.876-14.989c-17.387-21.41-31.296-45.279-41.728-71.609l-.949-2.615 7.587 2.852 1.66 4.045c10.59 23.473 23.235 45.122 37.935 64.949l1.896 2.378z" fill="url(#A)"/><path d="M2052.96 68.466h112.382l-31.77 32.244v246.813l29.873 25.131H2052.96l32.956-27.265V98.102l-32.956-29.636zm123.051 13.514l-24.183 23.946v242.178l39.831 43.992h-123.288l-5.927-5.69h115.227l-32.482-35.923V103.792l26.792-26.554 4.03 4.742z" fill="url(#A)"/><path d="M2471.91 68.466c-18.019 9.325-29.637 17.861-34.853 25.606-7.903 12.012-11.854 30.11-11.854 54.294v224.288h-40.069l-111.907-217.176v128.741l-.237 10.669 2.845 34.142c3.161 15.806 10.353 27.502 21.575 35.089l1.897 1.66c-21.813-7.271-32.719-30.585-32.719-69.942l.237-22.287V143.861l-12.803-24.895v136.565c0 43.309 2.845 71.681 8.536 85.116s19.046 23.235 40.068 29.399l20.627 22.05h-128.504l-3.793-5.69h118.783l-12.329-13.752h-110.485c19.284-6.954 32.087-16.28 38.409-27.976s9.484-31.771 9.484-60.222V94.783l-31.533-26.317h119.968l-33.667 22.523 114.753 223.815v-28.451l-98.394-191.57 33.193-22.524 4.505 4.505-29.399 19.916 90.095 176.87V150.262c0-27.502-2.253-45.877-6.758-55.123s-15.608-18.138-33.311-26.673h107.64zm8.298 17.544l-4.268 7.113c-12.17 2.845-20.429 8.101-24.776 15.767s-6.52 20.587-6.52 38.764v244.442h-50.975l-3.082-5.69h47.656V150.025c0-22.286 2.884-37.816 8.653-46.588s16.874-14.581 33.312-17.427z" fill="url(#A)"/><path d="M1071.84 678.056l-19.27-138.672-23.438 149.61-19.271-3.776 33.334-194.401 17.187-17.058 13.021 112.5 14.062-95.963 17.709-17.058 28.255 211.459-18.49 3.776-18.099-149.61-25 139.193z" fill="url(#B)"/><path d="M1158.68 475.322l27.214 163.021 25.912-162.5 19.14 3.515-37.89 212.5-17.318-17.057-36.719-195.443 19.661-4.036z" fill="url(#B)"/><path d="M1307.51 652.405l8.073 23.438-3.255 3.255c-3.039 2.951-6.815 5.165-11.329 6.641s-8.897 2.213-13.151 2.213c-10.243 0-18.576-3.168-25-9.505s-11.133-14.583-14.127-24.74-4.97-20.941-5.925-32.356-1.432-24.328-1.432-38.737c0-14.237.369-27.127 1.107-38.672s2.582-22.483 5.534-32.813 7.638-18.772 14.062-25.325 15.017-9.875 25.781-9.961c4.167 0 8.659.781 13.477 2.343s8.659 3.907 11.523 7.032l2.735 2.734-8.073 22.917-2.084-4.297c-3.993-6.597-9.852-9.896-17.578-9.896-5.382 0-9.83 1.562-13.346 4.687s-6.142 7.227-7.878 12.305-2.951 11.003-3.646 17.774-1.128 14.496-1.302 23.177c.348 6.51.521 15.842.521 27.995 0 12.76-.173 22.786-.521 30.078.174 10.85.934 20.269 2.279 28.255s3.928 14.431 7.747 19.336 9.202 7.357 16.146 7.357a19.36 19.36 0 0 0 10.352-2.93c3.168-1.953 5.577-4.622 7.226-8.008l2.084-4.297z" fill="url(#B)"/><path d="M1427.17 602.275v81.901h-20.182v-81.901h-16.536l7.161-20.833h9.375V479.098h57.292l7.161 20.833h-44.791v81.511h34.895v20.833h-34.375z" fill="url(#B)"/><path d="M1505.95 580.4c3.559-6.424 7.248-11.502 11.067-15.234s8.637-5.599 14.453-5.599h3.256l-6.901 20.312-4.818.912c-1.736.347-3.212.824-4.427 1.432s-2.518 1.606-3.906 2.995c-2.431 2.257-4.493 6.445-6.185 12.565s-2.539 13.216-2.539 21.289v65.104h-18.099V561.259h18.099V580.4z" fill="url(#B)"/><path d="M1586.29 665.036h.521c7.813 0 13.043-2.544 15.69-7.63s3.971-12.758 3.971-23.016v-10.956c-.173-9.65-.542-17.04-1.106-22.168s-2.322-9.803-5.274-14.02-7.725-6.325-14.323-6.325c-6.336.434-11.219 5.151-14.648 14.15s-5.143 18.713-5.143 29.146c.607 27.212 7.378 40.819 20.312 40.819zm18.62 8.803c-2.604 4.057-5.859 7.423-9.766 10.099s-8.29 4.014-13.151 4.014c-8.159-.347-14.778-3.646-19.856-9.896s-8.724-14.127-10.938-23.632-3.407-19.25-3.581-29.232c0-11.372 1.259-22.136 3.776-32.292s6.446-18.511 11.784-25.065 11.958-10.004 19.857-10.352c7.552 0 13.759 2.865 18.62 8.594l4.297 4.427v-9.245h18.099v123.959h-19.141v-11.379z" fill="url(#B)"/><path d="M1718.19 620.716v64.502h-18.099v-72.695c0-18.986-4.166-29.086-12.5-30.3-9.982 0-16.84 3.468-20.573 10.404s-5.599 15.604-5.599 26.007v66.584h-18.098V558.525h18.098v12.048c2.691-3.753 6.055-6.785 10.092-9.098s8.659-3.471 13.867-3.471c5.555 0 10.916 1.419 16.081 4.256s9.787 6.524 13.867 11.062c2.43-4.625 6.163-8.421 11.198-11.387s10.633-4.452 16.797-4.452c7.899 0 14.843 2.301 20.833 6.901 4.948 3.993 8.095 8.963 9.44 14.909s2.018 13.781 2.018 23.503v81.901h-18.75v-76.465c0-7.629-.889-13.698-2.669-18.207s-5.577-7.109-11.393-7.802c-7.292 0-12.761 1.994-16.406 5.983s-5.968 8.669-6.967 14.045-1.584 11.183-1.757 17.425a1.75 1.75 0 0 1 .39.586c.087.216.13.367.13.454z" fill="url(#B)"/><path d="M1876.13 602.405l-36.067 36.589-14.323-14.193 28.515-28.516-1.041-2.604c-1.563-3.472-3.733-6.25-6.511-8.333s-5.772-3.125-8.984-3.125c-7.813 0-13.368 4.101-16.667 12.305s-4.948 17.86-4.948 28.971c0 6.424.63 12.826 1.888 19.206s3.472 11.697 6.641 15.95 7.357 6.381 12.565 6.381c2.517 0 4.991-.652 7.422-1.954a15.42 15.42 0 0 0 5.859-5.468l1.693-2.344 18.359 10.412-3.255 4.405c-8.854 12.605-19.054 18.907-30.599 18.907-14.062 0-24.392-6.641-30.99-19.922s-9.895-28.689-9.895-46.224c.434-17.882 3.776-32.964 10.026-45.247s16.536-18.642 30.859-19.076c10.33 0 18.815 3.744 25.456 11.232s10.959 16.498 12.956 27.033l1.041 5.615z" fill="url(#B)"/><path d="M1929 691.858l-17.318-7.682-28.646-122.396 17.058-4.297 21.354 104.297 27.734-100.521h.521l27.474 100 22.396-103.776 17.969 4.297-32.292 130.078-17.318-7.682-18.229-72.786L1929 691.858z" fill="url(#B)"/><path d="M2046.06 623.369c0 11.111 1.628 20.811 4.883 29.101s9.093 12.435 17.513 12.435c8.681 0 14.497-4.188 17.448-12.565s4.427-18.728 4.427-31.055c0-11.805-1.367-21.289-4.101-28.45s-8.659-10.959-17.774-11.393c-14.149 0-21.614 13.975-22.396 41.927zm22.396-66.667c11.198 0 19.879 3.082 26.042 9.245s10.308 13.997 12.435 23.502 3.277 20.118 3.45 31.836c0 11.372-1.128 22.006-3.385 31.902s-6.402 18.055-12.435 24.479-14.388 9.635-25.065 9.635c-8.681 0-15.886-1.888-21.615-5.664s-10.113-8.854-13.151-15.234-5.1-13.26-6.185-20.638-1.627-15.191-1.627-23.438c0-43.75 13.845-65.625 41.536-65.625z" fill="url(#B)"/><path d="M2151.39 580.4c3.559-6.424 7.248-11.502 11.068-15.234s8.637-5.599 14.453-5.599h3.255l-6.901 20.312-4.818.912c-1.736.347-3.211.824-4.427 1.432s-2.517 1.606-3.906 2.995c-2.431 2.257-4.492 6.445-6.185 12.565s-2.539 13.216-2.539 21.289v65.104h-18.099V561.259h18.099V580.4z" fill="url(#B)"/><path d="M2255.69 688.994l-39.193-76.563 26.172-56.25 19.141 8.724-23.959 47.526 36.459 65.625-18.62 10.938zm-62.109-4.818V461.78h20.182v222.396h-20.182z" fill="url(#B)"/></g><defs><linearGradient id="A" x1="803.964" y1="64.435" x2="2480.204" y2="408.358" gradientUnits="userSpaceOnUse"><stop offset="0" stop-color="#32e537"/><stop offset=".5" stop-color="#a1e532"/><stop offset="1" stop-color="#32e537"/></linearGradient><linearGradient id="B" x1="1769" y1="461.78" x2="1764" y2="754" gradientUnits="userSpaceOnUse"><stop offset="0" stop-color="#efbe48"/><stop offset="1" stop-color="#efad48"/></linearGradient></defs></svg>