<?xml version="1.0" encoding="UTF-8" standalone="no"?>
<svg
   width="100%"
   height="100%"
   viewBox="0 0 1267 320"
   version="1.1"
   xml:space="preserve"
   style="fill-rule:evenodd;clip-rule:evenodd;stroke-linejoin:round;stroke-miterlimit:2;"
   id="svg11"
   sodipodi:docname="merlin-logo-text.svg"
   inkscape:version="1.4.2 (f4327f4, 2025-05-13)"
   xmlns:inkscape="http://www.inkscape.org/namespaces/inkscape"
   xmlns:sodipodi="http://sodipodi.sourceforge.net/DTD/sodipodi-0.dtd"
   xmlns:xlink="http://www.w3.org/1999/xlink"
   xmlns="http://www.w3.org/2000/svg"
   xmlns:svg="http://www.w3.org/2000/svg"><sodipodi:namedview
   id="namedview11"
   pagecolor="#505050"
   bordercolor="#eeeeee"
   borderopacity="1"
   inkscape:showpageshadow="0"
   inkscape:pageopacity="0"
   inkscape:pagecheckerboard="0"
   inkscape:deskcolor="#d1d1d1"
   inkscape:zoom="3.9415943"
   inkscape:cx="483.94123"
   inkscape:cy="190.65889"
   inkscape:window-width="3840"
   inkscape:window-height="2036"
   inkscape:window-x="-12"
   inkscape:window-y="-12"
   inkscape:window-maximized="1"
   inkscape:current-layer="image"
   showguides="true" />
    <g
   id="image"
   transform="matrix(1,0,0,1,-758.329,-1162.1)">
        <g
   id="logo"
   transform="matrix(1.54626,0,0,1.54626,748.329,1164.02)">
            <path
   d="M7.515,137.572L7.507,1.072L52.041,1.072L100.386,55.072L150.217,1.04L194.884,0.998L195.113,137.021L124.085,204.539L123.333,161.83L158.04,124.78L157.956,47.572L100.819,110.316L44.007,46.742L44.243,124.462L78.214,161.696L77.882,204.539L7.515,137.572Z"
   style="fill:url(#_Linear1);fill-rule:nonzero;stroke:url(#_Linear2);stroke-width:2.08px;"
   id="path1" />
        </g>
        <g
   id="merlin-text"
   transform="matrix(1.35074,0,0,1.35074,1098.71,1376.12)"
   inkscape:label="merlin">
            <text
   x="0"
   y="0"
   style="font-style:normal;font-variant:normal;font-weight:normal;font-stretch:normal;font-size:205.31955323px;font-family:Belanosima;-inkscape-font-specification:Belanosima;fill:url(#linearGradient73);fill-opacity:1;stroke:url(#linearGradient85);stroke-width:1.89px;stroke-opacity:1"
   id="text1"
   inkscape:label="merlin-text">MERLIN</text>
        </g>
        <g
   id="g11"
   inkscape:label="mvc-framework"
   transform="translate(-4)"><text
     x="1111.5035"
     y="1479.6899"
     style="font-style:normal;font-variant:normal;font-weight:normal;font-stretch:normal;font-size:98.961px;font-family:'Bai Jamjuree';-inkscape-font-specification:'Bai Jamjuree';clip-rule:evenodd;fill:url(#linearGradient90);fill-opacity:1;fill-rule:evenodd;stroke:url(#linearGradient88);stroke-width:1.55px;stroke-linejoin:round;stroke-miterlimit:2"
     id="text2"
     inkscape:label="mvc-framework-text">MVC Framework</text></g>
        <g
   id="bird"
   transform="matrix(0.0751063,0,0,0.0751063,1689.48,1279.81)">
            <path
   id="path2"
   d="m 346.238,890.232 c -6.405,-6.239 -8.597,-11.921 -8.076,-20.93 0.516,-8.911 3.548,-15.033 11.088,-22.388 9.312,-9.083 8.936,-9.359 -13.177,-9.687 -22.646,-0.336 -26.695,0.562 -33.457,7.42 -7.42,7.526 -10.837,19.307 -8.805,30.353 0.557,3.025 0.82,5.694 0.586,5.932 -0.873,0.883 -7.268,-6.278 -9.861,-11.043 -3.656,-6.718 -4.26,-13.931 -2.047,-24.474 0.979,-4.664 1.508,-8.751 1.176,-9.083 -0.331,-0.332 -17.701,-0.59 -38.599,-0.573 -37.019,0.028 -38.113,0.085 -42.52,2.219 -8.534,4.131 -15.434,14.178 -17.978,26.178 l -1.346,6.344 -1.775,-4 c -1.062,-2.391 -1.952,-7.419 -2.214,-12.5 -0.711,-13.779 4.141,-24.936 14.405,-33.12 10.908,-8.697 16.257,-9.741 52.708,-10.293 26.301,-0.397 30.069,-0.653 31.727,-2.153 2.04,-1.846 8.529,-11.948 25.654,-39.934 C 321.113,740.086 324,735.202 324,734.207 c 0,-0.513 -2.926,-5.248 -6.501,-10.522 -12.761,-18.818 -26.268,-49.321 -32.615,-73.652 -1.654,-6.343 -3.318,-11.796 -3.696,-12.117 -0.378,-0.321 -5.633,-4.371 -11.676,-9 -29.989,-22.968 -55.903,-48.68 -75.367,-74.776 -32.241,-43.228 -48.586,-85.669 -54.162,-140.64 -1.417,-13.965 -1.412,-54.165 0.008,-75 3.007,-44.114 11.734,-94.304 21.055,-121.098 4.016,-11.545 13.526,-31.341 19.505,-40.601 22.824,-35.348 56.883,-57.219 98.726,-63.397 14.58,-2.153 40.934,-1.444 54.223,1.458 36.698,8.016 62.561,26.445 74.929,53.394 1.828,3.984 4.094,9.387 5.035,12.005 0.94,2.619 2.559,5.216 3.596,5.771 5.141,2.752 14.586,11.909 18.392,17.833 7.642,11.894 11.19,16.648 12.603,26.959 1.413,10.311 -1.104,19.854 -4.666,25.131 -3.563,5.278 -7.428,8.764 -8.297,7.321 -6.434,-10.688 -13.738,-13.556 -20.803,-14.882 -5.495,-1.03 -8.425,0.542 -11.93,6.402 -5.986,10.007 -6.817,23.685 -2.077,34.204 3.792,8.417 10.063,13.651 31.718,26.474 33.638,19.919 64.288,43.898 94.417,73.869 26.918,26.777 42.513,44.617 84.06,96.157 70.969,88.039 126.001,150.051 166.023,187.08 28.336,26.217 51.916,45.842 79.312,66.009 l 5.313,3.911 -4.813,0.323 c -5.958,0.4 -12.343,-0.826 -31.109,-5.971 -25.49,-6.99 -78.124,-23.754 -89.585,-28.535 -8.386,-3.498 -10.333,-0.626 -3.176,4.683 1.854,1.375 11.368,9.25 21.142,17.5 9.775,8.25 20.533,17.25 23.907,20 3.373,2.75 23.656,19.643 45.071,37.54 21.416,17.897 52.535,43.902 69.154,57.79 16.618,13.888 30.46,25.646 30.759,26.13 0.734,1.188 -3.725,2.561 -17.978,5.536 -17.552,3.664 -33.08,4.819 -56.497,4.206 -22.326,-0.585 -29.771,-1.864 -44.732,-7.685 -9.496,-3.695 -12.782,-6.183 -48.888,-37.017 -15.779,-13.475 -30.083,-25.614 -31.785,-26.975 -1.702,-1.362 -10.52,-8.773 -19.595,-16.47 -18.445,-15.644 -72.191,-60.529 -84.507,-70.574 -17.001,-13.866 -14.474,-12.649 -31.076,-14.971 -18.725,-2.618 -33.943,-5.274 -52.185,-9.108 -7.847,-1.649 -14.71,-2.725 -15.25,-2.391 -0.587,0.363 -0.982,8.201 -0.982,19.468 0,25.454 -2.516,60.87 -4.462,62.817 -1.046,1.045 -18.582,-2.83 -30.447,-6.727 -12.706,-4.174 -32.736,-13.663 -42.248,-20.015 -3.339,-2.23 -6.867,-4.054 -7.839,-4.054 -1.351,0 -2.405,2.066 -4.465,8.75 -3.907,12.681 -10.715,31.315 -15.434,42.25 -2.255,5.225 -4.101,10.063 -4.103,10.75 -0.002,0.918 2.724,1.255 10.248,1.27 23.837,0.046 37.462,5.163 44.895,16.861 6.571,10.34 7.873,23.873 3.281,34.105 -1.485,3.308 -3.037,6.014 -3.449,6.014 -0.412,0 -1.059,-2.138 -1.436,-4.75 -1.647,-11.409 -9.27,-21.671 -18.333,-24.681 -4.257,-1.414 -8.709,-1.625 -28.913,-1.37 l -23.882,0.301 -8.346,6 c -12.931,9.296 -26.484,22.61 -29.693,29.168 -2.864,5.854 -3.62,12.909 -2.045,19.082 1.151,4.509 -0.266,4.156 -6.091,-1.518 z M 830,855.244 c 0,-0.757 -26.034,-25.178 -35.583,-33.379 -2.795,-2.401 -12.92,-11.379 -22.5,-19.952 -53.6,-47.966 -95.702,-81.018 -99.899,-78.424 -1.639,1.013 19.013,23.386 35.292,38.234 14.905,13.595 36.046,32.293 46.769,41.363 52.287,44.232 50.67,42.996 64.421,49.239 7.763,3.525 11.5,4.474 11.5,2.919 z M 375.203,809.953 c 9.098,-4.147 25.865,-46.913 31.822,-81.168 l 1.168,-6.715 -8.94,-8.785 c -4.916,-4.832 -10.29,-10.548 -11.941,-12.702 -1.829,-2.387 -3.554,-3.704 -4.417,-3.373 -1.09,0.419 -2.201,8.675 -4.832,35.917 -1.879,19.455 -3.505,35.504 -3.615,35.665 -0.446,0.655 -12.344,-7.008 -17.837,-11.489 -8.233,-6.716 -8.183,-6.684 -9.725,-6.066 -2.048,0.821 -37.191,57.46 -36.423,58.702 0.894,1.448 61.565,1.461 64.74,0.014 z M 496.78,753.157 c 0.904,-0.574 1.621,-6.779 2.44,-21.139 1.333,-23.349 0.002,-52.408 -3.182,-69.518 -1.024,-5.5 -1.692,-10.172 -1.483,-10.383 0.208,-0.211 6.581,1.905 14.162,4.703 33.52,12.37 55.344,18.09 101.283,26.548 18.771,3.456 23.717,4.206 46.5,7.053 24.122,3.014 28.198,3.281 29.547,1.932 2.094,-2.094 5.119,-0.904 -58.047,-22.82 C 569.879,649.368 550.161,642.003 519.5,629.002 415.781,585.025 356.169,545.568 317.695,495.429 302.805,476.024 291.69,452.749 285.972,429 c -3.274,-13.598 -3.337,-39.726 -0.123,-51.5 4.737,-17.359 14.424,-32.719 26.873,-42.612 11.747,-9.336 20.324,-13.676 35.778,-18.106 6.121,-1.754 24.062,-2.912 43.25,-2.79 2.37,0.015 1.235,-2.314 -3.64,-7.469 -8.842,-9.349 -12.684,-20.047 -11.843,-32.971 0.618,-9.489 3.485,-17.764 8.375,-24.17 4.362,-5.715 4.094,-7.691 -1.152,-8.49 -3.81,-0.581 -3.842,-0.615 -0.705,-0.75 2.996,-0.129 3.188,-0.324 2.181,-2.206 -1.494,-2.792 0.074,-4.544 4.82,-5.385 8.135,-1.441 7.212,-2.075 -3.786,-2.602 l -11.5,-0.55 14.566,-0.2 c 17.011,-0.232 24.259,0.866 32.214,4.883 9.106,4.597 9.81,4.066 8.587,-6.476 -1.009,-8.703 -7.479,-21.137 -14.192,-27.272 C 410.415,195.526 399.552,189 396.81,189 c -2.53,0 -13.242,8.555 -20.046,16.01 -3.744,4.103 -6.42,6.389 -6.116,5.227 0.67,-2.561 -2.474,-4.465 -7.581,-4.59 l -3.567,-0.087 2.75,-5.421 c 3.91,-7.707 3.641,-11.577 -1.322,-19.009 -11.001,-16.474 -32.115,-26.192 -57.428,-26.432 -6.872,-0.065 -13.923,0.419 -16.5,1.132 -7.423,2.054 -13.174,3.636 -13.172,5.338 0.002,1.375 3.393,2.063 14.791,2.213 7.286,0.095 14.231,0.876 15.881,1.375 l 3,0.909 -3.135,1.634 c -4.173,2.175 -10.989,10.031 -12.393,14.285 -0.62,1.879 -1.262,3.416 -1.427,3.416 -0.166,0 -1.946,-0.687 -3.956,-1.527 -2.01,-0.84 -8.475,-2.689 -14.367,-4.109 -15.371,-3.704 -25.663,-3.159 -36.578,1.936 -14.783,6.902 -28.389,17.613 -40.208,34.369 -14.823,21.016 -25.577,50.536 -30.675,81.714 -5.098,31.179 -2.202,12.663 -4.451,31.758 -1.386,11.763 -2.545,25.462 -2.522,49.204 0.402,29.02 2.005,42.697 7.332,65.655 17.091,73.653 60.851,133.033 133.88,181.665 18.431,12.274 57.358,34.335 60.585,34.335 2.595,0 1.467,-3.093 -4.683,-12.837 -8.517,-13.497 -22.15,-41.595 -26.432,-54.476 -3.772,-11.346 -4.137,-14.924 -1.029,-10.074 1.846,2.881 4.067,5.919 22.943,31.387 5.503,7.425 11.656,15.75 13.672,18.5 17.854,24.352 37.05,49.739 43.856,58 26.022,31.591 51.339,51.103 78.588,60.57 9.381,3.259 8.663,3.113 10.28,2.087 z M 370.75,230.338 c 0.688,-0.278 1.813,-0.278 2.5,0 0.688,0.277 0.125,0.504 -1.25,0.504 -1.375,0 -1.937,-0.227 -1.25,-0.504 z m -50.192,-23.797 c -5.535,-2.018 -8.605,-4.546 -10.906,-8.98 -5.983,-11.529 2.565,-25.5 15.63,-25.545 6.243,-0.021 10.511,1.846 14.434,6.314 3.524,4.013 4.805,8.747 3.997,14.771 -1.349,10.058 -13.339,17.017 -23.155,13.44 z m 400.201,459.235 c -0.433,-1.299 -21.413,-14.58 -46.259,-29.284 -37.271,-22.056 -60.685,-37.587 -91,-60.363 -26.013,-19.544 -59.27,-49.643 -41.18,-37.27 9.536,6.523 81.821,45.825 114.205,62.095 26.409,13.268 34.881,16.973 36.076,15.779 0.324,-0.325 -7.841,-10.185 -18.146,-21.912 -18.785,-21.375 -48.164,-56.269 -56.503,-67.107 -4.809,-6.25 -4.945,-6.312 -15.639,-7.152 -8.054,-0.632 -27.335,-5.343 -34.534,-8.437 -2.596,-1.116 -4.929,-1.692 -5.183,-1.28 -0.255,0.412 2.457,4.218 6.025,8.459 3.568,4.241 6.212,8.157 5.874,8.703 -0.958,1.551 -25.289,1.19 -34.151,-0.506 -11.015,-2.107 -30.691,-8.846 -40.523,-13.878 -25.384,-12.993 -50.13,-33.607 -67.203,-55.983 -6.132,-8.035 -6.752,-10.209 -1.947,-6.823 3.601,2.537 34.448,21.085 44.329,26.654 7.817,4.405 22.851,10.773 34,14.401 9.221,3 23.965,5.993 24.585,4.99 0.703,-1.137 0.359,-1.632 -10.681,-15.397 -13.161,-16.41 -23.064,-29.638 -22.563,-30.14 0.23,-0.229 5.534,2.91 11.788,6.977 14.023,9.118 30.336,18.799 42.871,25.442 16.134,8.55 35,15.221 35,12.377 0,-1.802 -31.602,-40.409 -49.296,-60.223 C 497.065,387.03 457.1,355.937 419,341.212 c -12.716,-4.915 -28.55,-8.114 -44,-8.89 -24.722,-1.242 -40.098,4.272 -54.053,19.383 -34.03,36.852 -14.978,104.574 44.553,158.365 33.217,30.014 74.814,55.847 118,73.282 13.836,5.585 39.695,14.648 41.798,14.648 1.71,0 0.434,-1.723 -2.548,-3.441 -17.534,-10.102 -58.465,-40.187 -77.75,-57.15 -17.97,-15.806 -47.635,-47.019 -42.992,-45.236 0.82,0.315 8.017,4.82 15.992,10.01 7.975,5.19 23.05,14.689 33.5,21.108 10.45,6.419 24.042,14.942 30.204,18.94 71.781,46.573 81.732,52.348 136.296,79.109 31.572,15.485 54.569,26.15 72,33.391 31.978,13.283 31.44,13.09 30.759,11.045 z"
   style="fill:#2d3334;fill-rule:nonzero;stroke:#000000;stroke-width:2px" />
            <path
   id="path3"
   d="m 818.5,852.325 c -11.932,-5.418 -16.091,-8.368 -38.5,-27.318 -11.275,-9.534 -22.94,-19.399 -25.921,-21.921 -10.723,-9.07 -31.864,-27.768 -46.769,-41.363 -16.279,-14.848 -36.931,-37.221 -35.292,-38.234 4.197,-2.594 46.299,30.458 99.899,78.424 9.58,8.573 19.705,17.551 22.5,19.952 9.549,8.201 35.583,32.622 35.583,33.379 0,1.555 -3.737,0.606 -11.5,-2.919 z m -0.712,-7.172 C 812.68,840.287 804.225,832.577 799,828.019 793.775,823.461 785.45,816.032 780.5,811.51 736.902,771.678 683.1,728 677.632,728 c -0.344,0 2.848,4.053 7.092,9.007 9.633,11.243 43.922,42.812 73.307,67.493 4.584,3.85 15.789,13.328 24.901,21.062 9.113,7.734 18.708,15.52 21.324,17.302 4.317,2.941 20.123,10.876 22.032,11.06 0.433,0.042 -3.392,-3.905 -8.5,-8.771 z M 709,662.587 c -22.671,-9.339 -28.045,-11.632 -43,-18.347 -21.249,-9.541 -77.553,-37.228 -94,-46.223 -23.64,-12.928 -36.22,-20.701 -90.296,-55.786 -6.162,-3.998 -19.754,-12.521 -30.204,-18.94 -10.45,-6.419 -25.525,-15.918 -33.5,-21.108 -7.975,-5.19 -15.172,-9.695 -15.992,-10.01 -4.643,-1.783 25.022,29.43 42.992,45.236 19.285,16.963 60.216,47.048 77.75,57.15 2.982,1.718 4.258,3.441 2.548,3.441 -0.387,0 -6.349,-1.843 -13.25,-4.095 C 443.902,571.668 378.769,529.971 341.008,484.408 305.507,441.573 294.9,395.713 312.825,362.552 c 5.781,-10.694 19.709,-22.782 30.701,-26.646 13.164,-4.626 32.932,-4.949 53.974,-0.88 28.973,5.603 62.229,24.185 95.5,53.362 18.319,16.066 30.115,27.813 47.704,47.51 17.694,19.814 49.296,58.421 49.296,60.223 0,2.844 -18.866,-3.827 -35,-12.377 -12.535,-6.643 -28.848,-16.324 -42.871,-25.442 -6.254,-4.067 -11.558,-7.206 -11.788,-6.977 -0.501,0.502 9.402,13.73 22.563,30.14 11.04,13.765 11.384,14.26 10.681,15.397 -0.62,1.003 -15.364,-1.99 -24.585,-4.99 -11.149,-3.628 -26.183,-9.996 -34,-14.401 -9.881,-5.569 -40.728,-24.117 -44.329,-26.654 -4.805,-3.386 -4.185,-1.212 1.947,6.823 17.073,22.376 41.819,42.99 67.203,55.983 9.832,5.032 29.508,11.771 40.523,13.878 8.862,1.696 33.193,2.057 34.151,0.506 0.338,-0.546 -2.306,-4.462 -5.874,-8.703 -3.568,-4.241 -6.28,-8.047 -6.025,-8.459 0.254,-0.412 2.587,0.164 5.183,1.28 7.199,3.094 26.48,7.805 34.534,8.437 10.694,0.84 10.83,0.902 15.639,7.152 8.339,10.838 37.718,45.732 56.503,67.107 10.305,11.727 18.47,21.587 18.146,21.912 -1.195,1.194 -9.667,-2.511 -36.076,-15.779 -32.384,-16.27 -104.669,-55.572 -114.205,-62.095 -18.09,-12.373 15.167,17.726 41.18,37.27 30.315,22.776 53.729,38.307 91,60.363 35.017,20.723 50.004,30.685 45.833,30.464 -0.458,-0.024 -5.558,-1.991 -11.333,-4.369 z m -6.55,-7.412 C 696.427,651.421 684.75,644.371 676.5,639.508 619.15,605.704 569.479,569.941 538.75,540.329 530.432,532.314 528.703,530 531.032,530 c 0.568,0 4.505,2.403 8.75,5.34 6.941,4.802 24.717,14.825 75.218,42.409 30.2,16.495 74,38.172 74,36.623 0,-0.567 -5.138,-6.631 -18,-21.243 -15.412,-17.507 -48.072,-56.593 -56.046,-67.07 -2.429,-3.192 -2.886,-3.36 -10,-3.685 -8.18,-0.374 -21.019,-3.107 -31.927,-6.798 -3.865,-1.308 -7.025,-2.085 -7.023,-1.727 0.002,0.358 2.522,3.473 5.599,6.922 3.077,3.449 5.363,6.876 5.079,7.615 -1.21,3.152 -26.544,3.115 -40.682,-0.061 -38.728,-8.698 -78.315,-35.406 -105.278,-71.027 -7.037,-9.296 -8.777,-12.298 -7.131,-12.298 0.325,0 5.163,2.855 10.75,6.344 37.847,23.634 51.044,30.672 69.659,37.153 9.91,3.451 27.034,7.803 27.776,7.06 0.188,-0.187 -4.298,-6.127 -9.968,-13.2 -5.669,-7.072 -13.591,-17.261 -17.603,-22.642 -10.949,-14.686 -10.836,-15.673 0.867,-7.576 12.848,8.89 39.873,24.777 54.428,31.998 12.546,6.224 26.961,11.735 27.994,10.702 0.343,-0.343 -6.885,-9.44 -27.767,-34.944 -35.83,-43.761 -77.933,-82.945 -108.567,-101.039 -30.408,-17.961 -52.978,-24.872 -81.125,-24.841 -20.456,0.022 -30.494,3.074 -42.761,12.999 -7.242,5.86 -13.301,14.949 -17.378,26.07 -13.236,36.095 5.317,85.662 47.717,127.484 6.729,6.638 16.568,15.638 21.866,20 28.382,23.375 67.077,46.173 103.521,60.993 14.313,5.821 34.067,12.75 34.61,12.141 0.099,-0.111 -6.157,-4.477 -13.902,-9.702 -39.626,-26.733 -76.991,-58.975 -99.616,-85.957 -11.029,-13.153 -10.318,-13.139 10.093,0.201 7.874,5.146 19.941,12.769 26.816,16.941 26.348,15.988 29.245,17.825 70.285,44.582 35.043,22.848 60.763,37.286 107.714,60.465 34.702,17.132 89.501,41.607 93.45,41.737 0.522,0.017 -3.978,-3.04 -10,-6.794 z M 165.998,298.002 c 5.543,-33.902 15.481,-60.699 30.304,-81.714 11.819,-16.756 24.559,-28.086 39.342,-34.988 10.915,-5.095 21.207,-5.64 36.578,-1.936 5.892,1.42 12.381,3.279 14.422,4.132 2.961,1.237 3.702,3.49 -0.204,1.644 -7.44,-3.518 -22.372,-6.59 -31.94,-6.573 -7.917,0.014 -9.925,0.41 -16.691,3.293 -15.698,6.69 -29.532,19.122 -42.093,37.829 -13.48,20.074 -22.41,44.574 -28.181,77.311 1.161,3.504 -6.328,30.301 -1.537,1.002 z m 181.776,-48.176 c 0.899,-0.899 0.698,-1.945 -0.857,-4.46 -1.6,-2.589 -1.801,-3.713 -0.951,-5.303 0.881,-1.646 0.708,-2.25 -0.943,-3.281 -1.113,-0.695 -2.023,-2.055 -2.023,-3.023 0,-0.967 -0.675,-1.759 -1.5,-1.759 -0.825,0 -1.5,-0.626 -1.5,-1.392 0,-0.765 -1.125,-1.674 -2.5,-2.019 -2.263,-0.568 -3.666,-3.589 -1.667,-3.589 0.459,0 0.834,-0.596 0.834,-1.325 0,-1.021 -1.739,-1.227 -7.584,-0.896 -4.171,0.236 -9.158,-0.029 -11.083,-0.59 -3.063,-0.891 -2.751,-0.958 2.5,-0.533 4.191,0.339 8.387,-0.139 13.914,-1.586 11.393,-2.983 16.18,-5.794 23.636,-14.928 2.062,-2.527 5.213,-6.296 5.12,-3.703 -0.094,2.593 2.77,2.978 6.113,4.367 4.34,1.754 1.851,6.127 -4.165,14.716 -6.017,8.59 -4.615,9.305 0.132,9.872 4.747,0.567 -6.84,-0.735 20.776,-0.694 27.616,0.041 -0.407,2.359 3.107,8.921 1.316,2.46 -3.324,8.873 -5.852,9.314 -5.989,1.047 -23.816,-2.119 -30.851,0.993 -5.36,2.371 -6.313,2.555 -4.656,0.898 z"
   style="fill:#3c4345;fill-rule:nonzero" />
            <path
   id="path4"
   d="m 817.256,849.976 c -11.041,-5.185 -14.92,-7.944 -34.324,-24.414 C 773.82,817.828 762.615,808.35 758.031,804.5 728.646,779.819 694.357,748.25 684.724,737.007 680.48,732.053 677.288,728 677.632,728 c 5.468,0 59.27,43.678 102.868,83.51 4.95,4.522 13.275,11.951 18.5,16.509 11.755,10.254 28.35,26.007 27.288,25.905 -0.433,-0.042 -4.498,-1.818 -9.032,-3.948 z M 697.5,656.121 c -25.969,-10.79 -48.857,-21.254 -78.5,-35.889 -46.951,-23.179 -72.671,-37.617 -107.714,-60.465 -41.04,-26.757 -43.937,-28.594 -70.285,-44.582 -6.875,-4.172 -18.942,-11.795 -26.816,-16.941 -20.411,-13.34 -21.122,-13.354 -10.093,-0.201 22.625,26.982 59.99,59.224 99.616,85.957 7.745,5.225 14,9.591 13.902,9.702 -0.1,0.111 -4.215,-1.066 -9.145,-2.615 C 493.871,586.502 467.607,575.423 451,566.847 366.01,522.953 312.421,463.692 306.088,406.595 c -2.565,-23.129 6.038,-47.324 21.186,-59.581 12.267,-9.925 22.305,-12.977 42.761,-12.999 28.147,-0.031 50.717,6.88 81.125,24.841 30.634,18.094 72.737,57.278 108.567,101.039 20.882,25.504 28.11,34.601 27.767,34.944 -1.033,1.033 -15.448,-4.478 -27.994,-10.702 -14.555,-7.221 -41.58,-23.108 -54.428,-31.998 -11.703,-8.097 -11.816,-7.11 -0.867,7.576 4.012,5.381 11.934,15.57 17.603,22.642 5.67,7.073 10.156,13.013 9.968,13.2 -0.742,0.743 -17.866,-3.609 -27.776,-7.06 -18.615,-6.481 -31.812,-13.519 -69.659,-37.153 -10.68,-6.67 -11.341,-6.978 -11.341,-5.296 0,1.874 15.236,21.235 23.472,29.826 13.588,14.175 34.289,29.604 52.034,38.785 8.983,4.648 27.677,11.461 37.494,13.666 14.138,3.176 39.472,3.213 40.682,0.061 0.284,-0.739 -2.002,-4.165 -5.079,-7.615 -3.077,-3.449 -5.596,-6.564 -5.599,-6.922 -0.002,-0.358 3.158,0.419 7.023,1.727 10.908,3.691 23.747,6.424 31.927,6.798 7.114,0.325 7.571,0.493 10,3.685 7.974,10.477 40.634,49.563 56.046,67.07 12.862,14.612 18,20.676 18,21.243 0,1.549 -43.8,-20.127 -74,-36.623 -50.501,-27.584 -68.277,-37.607 -75.218,-42.409 -4.245,-2.937 -8.182,-5.34 -8.75,-5.34 -2.329,0 -0.6,2.314 7.718,10.329 30.729,29.612 80.4,65.375 137.75,99.179 19.811,11.677 37.133,22.5 35.95,22.461 -0.523,-0.017 -7.25,-2.649 -14.95,-5.848 z M 194.99,324.107 c -10.839,-0.781 -20.317,-0.111 -27.666,-2.557 -7.348,-2.445 -4.079,-5.027 0.026,-26.523 4.106,-21.497 15.19,-58.251 28.242,-77.688 13.052,-19.438 26.519,-28.789 42.217,-35.479 6.766,-2.883 8.774,-3.279 16.691,-3.293 9.568,-0.017 24.5,3.055 31.94,6.573 2.167,1.024 4.192,1.457 4.5,0.961 0.308,-0.496 4.543,20.35 11.14,26.281 6.422,5.774 13.022,8.032 23.42,8.012 6.96,-0.013 7.48,0.1 4,0.869 -2.2,0.485 -6.475,0.657 -9.5,0.381 -4.969,-0.453 -5.162,-0.402 -2,0.531 1.925,0.568 6.913,0.84 11.083,0.604 5.845,-0.331 7.584,-0.125 7.584,0.896 0,0.729 -0.375,1.325 -0.834,1.325 -1.999,0 -0.596,3.021 1.667,3.589 1.375,0.345 2.5,1.254 2.5,2.019 0,0.766 0.675,1.392 1.5,1.392 0.825,0 1.5,0.792 1.5,1.759 0,0.968 0.91,2.328 2.023,3.023 1.651,1.031 1.824,1.635 0.943,3.281 -0.85,1.59 -0.649,2.714 0.951,5.303 1.615,2.613 1.78,3.557 0.807,4.607 -0.995,1.074 -0.924,1.174 0.702,0.534 8.988,-3.563 -20.541,16.217 -25.436,20.461 -27.567,23.66 -47.973,35.979 -73.473,44.431 -18.429,6.108 -35.405,10.087 -54.527,8.708 z"
   style="fill:#454e51;fill-rule:nonzero" />
            <path
   id="path7"
   d="m 423.597,234.882 c -8.714,-4.435 -17.725,-6.011 -41.985,-5.27 -11.923,0.364 -18.093,0.805 -19.325,-0.112 -1.233,-0.916 0.457,-11.333 6.487,-18.489 10.477,-12.434 13.422,-14.5 20.892,-18.979 7.47,-4.478 11.076,-3.776 21.088,3.679 10.011,7.456 16.788,17.83 19.144,29.043 2.356,11.212 2.413,14.562 -6.301,10.128 z M 311.839,217.247 c -6.151,-2.808 -19.387,-13.881 -19.584,-27.577 -0.129,-8.957 1.302,-15.074 11.637,-21.857 1.375,-0.902 0.731,-0.194 3.59,-2.117 -1.257,-1.306 -6.267,-1.855 -14.362,-2.232 -8.095,-0.376 -20.575,0.331 -20.867,-1.682 -0.291,-2.013 6.932,-5.399 21.197,-7.689 9.519,-1.529 26.944,0.115 37.602,4.041 10.657,3.926 19.465,10.345 28.181,20.582 8.715,10.237 7.248,18.795 -2.007,28.017 -9.254,9.222 -12.696,10.053 -22.307,12.511 -8.841,2.261 -16.928,0.812 -23.08,-1.997 z m 32.85,-28.35 c -0.317,-8.609 -8.102,-17.68 -19.123,-17.395 -11.02,0.286 -18.517,9.119 -18.339,18.466 0.178,9.347 7.493,17.805 19.374,17.726 11.882,-0.078 18.404,-10.187 18.088,-18.797 z"
   style="fill:#dabc59;fill-rule:nonzero;stroke:#000000;stroke-width:2px" />
            <path
   id="path6"
   d="m 396.699,675.588 c -7.882,-9.937 -59.333,-81.731 -66.959,-92.813 -4.489,-6.523 -8.14,-6.185 -2.032,10.786 6.107,16.97 19.468,43.417 27.169,55.858 7.701,12.44 10.27,11.984 -4.402,5.707 -4.955,-2.12 -55.237,-30.656 -85.694,-56.286 -30.457,-25.631 -50.592,-47.182 -73.631,-88.737 -23.039,-41.555 -32.598,-93.685 -31.976,-125.382 0.622,-31.696 1.334,-60.018 3.828,-66.733 8.554,4.047 22.926,4.421 50.929,3.597 28.002,-0.824 65.74,-16.859 95.013,-40.549 29.272,-23.689 29.398,-23.897 41.461,-30.611 10.578,-5.888 44.488,-11.704 36.975,-3.252 -7.354,8.274 -10.13,13.871 -11.092,25.636 -0.962,11.764 1.955,20.568 6.39,27.427 4.434,6.859 9.395,12.151 9.186,12.195 -0.209,0.044 -7.723,0.632 -14.908,0.795 -87.797,1.205 -96.435,69.797 -93.91,98.482 2.524,28.685 17.185,75.098 67.317,120.169 50.132,45.072 128.17,81.671 197.465,108.947 69.294,27.276 108.228,37.538 131.69,47.546 23.463,10.008 -32.712,0.291 -62.739,-4.53 -30.027,-4.821 -81.249,-17.751 -101.959,-25.897 -20.71,-8.146 -21.801,-12.198 -19.063,4.072 2.739,16.27 3.298,31.197 2.915,56.147 -0.382,24.951 0.805,35.213 -6.769,35.052 -3.819,-0.082 -30.892,-13.482 -42.209,-22.892 -11.316,-9.41 -45.114,-44.797 -52.995,-54.734 z"
   style="fill:#fffee3" />
        </g>
    </g>
    <defs
   id="defs11"><linearGradient
   id="linearGradient89"
   inkscape:collect="always"><stop
     style="stop-color:#4268f0;stop-opacity:1;"
     offset="0"
     id="stop89" /><stop
     style="stop-color:#2c58ee;stop-opacity:1;"
     offset="1"
     id="stop90" /></linearGradient><linearGradient
   id="linearGradient86"
   inkscape:collect="always"><stop
     style="stop-color:#1342ec;stop-opacity:1;"
     offset="0"
     id="stop87" /><stop
     style="stop-color:#113dd4;stop-opacity:1;"
     offset="1"
     id="stop88" /></linearGradient><linearGradient
   id="linearGradient83"
   inkscape:collect="always"><stop
     style="stop-color:#115dd4;stop-opacity:1;"
     offset="0"
     id="stop84" /><stop
     style="stop-color:#2594ee;stop-opacity:1;"
     offset="0.50343645"
     id="stop86" /><stop
     style="stop-color:#1157d4;stop-opacity:1;"
     offset="1"
     id="stop85" /></linearGradient><linearGradient
   id="linearGradient82"
   x1="-0.30577731"
   y1="3.2007155"
   x2="-0.30577731"
   y2="-1.5602756"
   gradientUnits="userSpaceOnUse"
   gradientTransform="matrix(0,140.809,-140.809,0,465.533,-1.91577)"
   spreadMethod="pad"><stop
     offset="0"
     style="stop-color:rgb(17,61,212);stop-opacity:1"
     id="stop81" /><stop
     offset="0.50773197"
     style="stop-color:#1a4ce2;stop-opacity:1;"
     id="stop83" /><stop
     offset="1"
     style="stop-color:rgb(36,91,240);stop-opacity:1"
     id="stop82" /></linearGradient><linearGradient
   id="linearGradient79"
   x1="-0.30577731"
   y1="3.2007155"
   x2="-0.30577731"
   y2="-1.5602756"
   gradientUnits="userSpaceOnUse"
   gradientTransform="matrix(0,140.809,-140.809,0,465.533,-1.91577)"
   spreadMethod="pad"><stop
     offset="0"
     style="stop-color:rgb(17,61,212);stop-opacity:1"
     id="stop78" /><stop
     offset="0.5120275"
     style="stop-color:#1a4ce2;stop-opacity:1;"
     id="stop80" /><stop
     offset="1"
     style="stop-color:rgb(36,91,240);stop-opacity:1"
     id="stop79" /></linearGradient><linearGradient
   id="linearGradient76"
   x1="-0.30577731"
   y1="3.2007155"
   x2="-0.30577731"
   y2="-1.5602756"
   gradientUnits="userSpaceOnUse"
   gradientTransform="matrix(8.62206e-15,140.809,-140.809,8.62206e-15,465.533,-1.91577)"><stop
     offset="0"
     style="stop-color:rgb(17,61,212);stop-opacity:1"
     id="stop75" /><stop
     offset="0.5"
     style="stop-color:#1a4ce2;stop-opacity:1;"
     id="stop77" /><stop
     offset="1"
     style="stop-color:rgb(36,91,240);stop-opacity:1"
     id="stop76" /></linearGradient><linearGradient
   id="linearGradient71"
   inkscape:collect="always"><stop
     style="stop-color:#2c78ee;stop-opacity:1;"
     offset="0"
     id="stop72" /><stop
     style="stop-color:#54abf2;stop-opacity:1;"
     offset="0.5025773"
     id="stop74" /><stop
     style="stop-color:#2c72ee;stop-opacity:1;"
     offset="1"
     id="stop73" /></linearGradient><linearGradient
   id="linearGradient70"
   x1="-0.4646129"
   y1="4.3104358"
   x2="-0.4646129"
   y2="-0.40518123"
   gradientUnits="userSpaceOnUse"
   gradientTransform="matrix(0,142.246,-142.246,0,628.373,-0.957886)"
   spreadMethod="pad"><stop
     offset="0"
     style="stop-color:rgb(44,88,238);stop-opacity:1"
     id="stop69" /><stop
     offset="0.51546389"
     style="stop-color:#3f6bf0;stop-opacity:1;"
     id="stop71" /><stop
     offset="1"
     style="stop-color:rgb(81,125,243);stop-opacity:1"
     id="stop70" /></linearGradient><linearGradient
   id="linearGradient67"
   x1="-0.4646129"
   y1="4.3104358"
   x2="-0.4646129"
   y2="-0.40518123"
   gradientUnits="userSpaceOnUse"
   gradientTransform="matrix(0,142.246,-142.246,0,628.373,-0.957886)"
   spreadMethod="pad"><stop
     offset="0"
     style="stop-color:rgb(44,88,238);stop-opacity:1"
     id="stop66" /><stop
     offset="0.52491409"
     style="stop-color:#3f6bf0;stop-opacity:1;"
     id="stop68" /><stop
     offset="1"
     style="stop-color:rgb(81,125,243);stop-opacity:1"
     id="stop67" /></linearGradient><linearGradient
   id="linearGradient65"
   x1="-0.4646129"
   y1="4.3104358"
   x2="-0.4646129"
   y2="-0.40518123"
   gradientUnits="userSpaceOnUse"
   gradientTransform="matrix(0,142.246,-142.246,0,628.373,-0.957886)"
   spreadMethod="pad"><stop
     offset="0"
     style="stop-color:rgb(44,88,238);stop-opacity:1"
     id="stop64" /><stop
     offset="1"
     style="stop-color:#0e42ce;stop-opacity:1;"
     id="stop65" /></linearGradient><linearGradient
   id="linearGradient63"
   x1="-0.4646129"
   y1="4.3104358"
   x2="-0.4646129"
   y2="-0.40518123"
   gradientUnits="userSpaceOnUse"
   gradientTransform="matrix(0,142.246,-142.246,0,628.373,-0.957886)"
   spreadMethod="pad"><stop
     offset="0"
     style="stop-color:rgb(44,88,238);stop-opacity:1"
     id="stop62" /><stop
     offset="1"
     style="stop-color:#0e43d1;stop-opacity:1;"
     id="stop63" /></linearGradient><linearGradient
   id="linearGradient61"
   x1="-0.4646129"
   y1="4.3104358"
   x2="-0.4646129"
   y2="-0.40518123"
   gradientUnits="userSpaceOnUse"
   gradientTransform="matrix(0,142.246,-142.246,0,628.373,-0.957886)"
   spreadMethod="pad"><stop
     offset="0"
     style="stop-color:rgb(44,88,238);stop-opacity:1"
     id="stop60" /><stop
     offset="1"
     style="stop-color:#0e43d1;stop-opacity:1;"
     id="stop61" /></linearGradient><linearGradient
   id="linearGradient59"
   x1="-0.4646129"
   y1="4.3104358"
   x2="-0.4646129"
   y2="-0.40518123"
   gradientUnits="userSpaceOnUse"
   gradientTransform="matrix(0,142.246,-142.246,0,628.373,-0.957886)"
   spreadMethod="pad"><stop
     offset="0"
     style="stop-color:rgb(44,88,238);stop-opacity:1"
     id="stop58" /><stop
     offset="1"
     style="stop-color:#1a54ef;stop-opacity:1;"
     id="stop59" /></linearGradient><linearGradient
   id="linearGradient57"
   x1="-0.4646129"
   y1="4.3104358"
   x2="-0.4646129"
   y2="-0.40518123"
   gradientUnits="userSpaceOnUse"
   gradientTransform="matrix(0,142.246,-142.246,0,628.373,-0.957886)"
   spreadMethod="pad"><stop
     offset="0"
     style="stop-color:rgb(44,88,238);stop-opacity:1"
     id="stop56" /><stop
     offset="1"
     style="stop-color:#3165f1;stop-opacity:1;"
     id="stop57" /></linearGradient><linearGradient
   id="linearGradient55"
   x1="-0.4646129"
   y1="4.3104358"
   x2="-0.4646129"
   y2="-0.40518123"
   gradientUnits="userSpaceOnUse"
   gradientTransform="matrix(0,142.246,-142.246,0,628.373,-0.957886)"
   spreadMethod="pad"><stop
     offset="0"
     style="stop-color:rgb(44,88,238);stop-opacity:1"
     id="stop54" /><stop
     offset="1"
     style="stop-color:#4977f2;stop-opacity:1;"
     id="stop55" /></linearGradient><linearGradient
   id="linearGradient53"
   x1="-0.4646129"
   y1="4.3104358"
   x2="-0.4646129"
   y2="-0.40518123"
   gradientUnits="userSpaceOnUse"
   gradientTransform="matrix(0,142.246,-142.246,0,628.373,-0.957886)"
   spreadMethod="pad"><stop
     offset="0"
     style="stop-color:rgb(44,88,238);stop-opacity:1"
     id="stop52" /><stop
     offset="1"
     style="stop-color:#5580f3;stop-opacity:1;"
     id="stop53" /></linearGradient><linearGradient
   id="linearGradient51"
   x1="-0.4646129"
   y1="4.3104358"
   x2="-0.4646129"
   y2="-0.40518123"
   gradientUnits="userSpaceOnUse"
   gradientTransform="matrix(0,142.246,-142.246,0,628.373,-0.957886)"
   spreadMethod="pad"><stop
     offset="0"
     style="stop-color:rgb(44,88,238);stop-opacity:1"
     id="stop50" /><stop
     offset="1"
     style="stop-color:#5680f3;stop-opacity:1;"
     id="stop51" /></linearGradient><linearGradient
   id="linearGradient49"
   x1="-0.4646129"
   y1="4.3104358"
   x2="-0.4646129"
   y2="-0.40518123"
   gradientUnits="userSpaceOnUse"
   gradientTransform="matrix(0,142.246,-142.246,0,628.373,-0.957886)"
   spreadMethod="pad"><stop
     offset="0"
     style="stop-color:rgb(44,88,238);stop-opacity:1"
     id="stop48" /><stop
     offset="1"
     style="stop-color:#5882f3;stop-opacity:1;"
     id="stop49" /></linearGradient><linearGradient
   id="linearGradient47"
   x1="-0.4646129"
   y1="4.3104358"
   x2="-0.4646129"
   y2="-0.40518123"
   gradientUnits="userSpaceOnUse"
   gradientTransform="matrix(0,142.246,-142.246,0,628.373,-0.957886)"
   spreadMethod="pad"><stop
     offset="0"
     style="stop-color:rgb(44,88,238);stop-opacity:1"
     id="stop46" /><stop
     offset="1"
     style="stop-color:#5883f4;stop-opacity:1;"
     id="stop47" /></linearGradient><linearGradient
   id="linearGradient45"
   x1="-0.4646129"
   y1="4.3104358"
   x2="-0.4646129"
   y2="-0.40518123"
   gradientUnits="userSpaceOnUse"
   gradientTransform="matrix(0,142.246,-142.246,0,628.373,-0.957886)"
   spreadMethod="pad"><stop
     offset="0"
     style="stop-color:rgb(44,88,238);stop-opacity:1"
     id="stop44" /><stop
     offset="1"
     style="stop-color:#6988db;stop-opacity:1;"
     id="stop45" /></linearGradient><linearGradient
   id="linearGradient43"
   x1="-0.4646129"
   y1="4.3104358"
   x2="-0.4646129"
   y2="-0.40518123"
   gradientUnits="userSpaceOnUse"
   gradientTransform="matrix(0,142.246,-142.246,0,628.373,-0.957886)"
   spreadMethod="pad"><stop
     offset="0"
     style="stop-color:rgb(44,88,238);stop-opacity:1"
     id="stop42" /><stop
     offset="1"
     style="stop-color:#6d8ad7;stop-opacity:1;"
     id="stop43" /></linearGradient><linearGradient
   id="linearGradient41"
   x1="-0.4646129"
   y1="4.3104358"
   x2="-0.4646129"
   y2="-0.40518123"
   gradientUnits="userSpaceOnUse"
   gradientTransform="matrix(0,142.246,-142.246,0,628.373,-0.957886)"
   spreadMethod="pad"><stop
     offset="0"
     style="stop-color:rgb(44,88,238);stop-opacity:1"
     id="stop40" /><stop
     offset="1"
     style="stop-color:#748dd0;stop-opacity:1;"
     id="stop41" /></linearGradient><linearGradient
   id="linearGradient39"
   x1="-0.4646129"
   y1="4.3104358"
   x2="-0.4646129"
   y2="-0.40518123"
   gradientUnits="userSpaceOnUse"
   gradientTransform="matrix(0,142.246,-142.246,0,628.373,-0.957886)"
   spreadMethod="pad"><stop
     offset="0"
     style="stop-color:rgb(44,88,238);stop-opacity:1"
     id="stop38" /><stop
     offset="1"
     style="stop-color:#7a90ca;stop-opacity:1;"
     id="stop39" /></linearGradient><linearGradient
   id="linearGradient37"
   x1="-0.4646129"
   y1="4.3104358"
   x2="-0.4646129"
   y2="-0.40518123"
   gradientUnits="userSpaceOnUse"
   gradientTransform="matrix(0,142.246,-142.246,0,628.373,-0.957886)"
   spreadMethod="pad"><stop
     offset="0"
     style="stop-color:rgb(44,88,238);stop-opacity:1"
     id="stop36" /><stop
     offset="1"
     style="stop-color:#7b90c9;stop-opacity:1;"
     id="stop37" /></linearGradient><linearGradient
   id="linearGradient34"
   x1="-0.4646129"
   y1="4.3104358"
   x2="-0.4646129"
   y2="-0.40518123"
   gradientUnits="userSpaceOnUse"
   gradientTransform="matrix(0,142.246,-142.246,0,628.373,-0.957886)"
   spreadMethod="pad"><stop
     offset="0"
     style="stop-color:rgb(44,88,238);stop-opacity:1"
     id="stop33" /><stop
     offset="0.48109967"
     style="stop-color:#3d69f0;stop-opacity:1;"
     id="stop35" /><stop
     offset="1"
     style="stop-color:rgb(81,125,243);stop-opacity:1"
     id="stop34" /></linearGradient><linearGradient
   id="linearGradient31"
   x1="-0.4646129"
   y1="4.3104358"
   x2="-0.4646129"
   y2="-0.40518123"
   gradientUnits="userSpaceOnUse"
   gradientTransform="matrix(0,142.246,-142.246,0,628.373,-0.957886)"
   spreadMethod="pad"><stop
     offset="0"
     style="stop-color:rgb(44,88,238);stop-opacity:1"
     id="stop30" /><stop
     offset="0.4879725"
     style="stop-color:#3e6af0;stop-opacity:1;"
     id="stop32" /><stop
     offset="1"
     style="stop-color:rgb(81,125,243);stop-opacity:1"
     id="stop31" /></linearGradient><linearGradient
   id="linearGradient28"
   x1="-0.4646129"
   y1="4.3104358"
   x2="-0.4646129"
   y2="-0.40518123"
   gradientUnits="userSpaceOnUse"
   gradientTransform="matrix(0,142.246,-142.246,0,628.373,-0.957886)"
   spreadMethod="pad"><stop
     offset="0"
     style="stop-color:rgb(44,88,238);stop-opacity:1"
     id="stop27" /><stop
     offset="0.48883161"
     style="stop-color:#3e6af0;stop-opacity:1;"
     id="stop29" /><stop
     offset="1"
     style="stop-color:rgb(81,125,243);stop-opacity:1"
     id="stop28" /></linearGradient><linearGradient
   id="linearGradient25"
   x1="-0.4646129"
   y1="4.3104358"
   x2="-0.4646129"
   y2="-0.40518123"
   gradientUnits="userSpaceOnUse"
   gradientTransform="matrix(0,142.246,-142.246,0,628.373,-0.957886)"
   spreadMethod="pad"><stop
     offset="0"
     style="stop-color:rgb(44,88,238);stop-opacity:1"
     id="stop24" /><stop
     offset="0.49570447"
     style="stop-color:#3e6af0;stop-opacity:1;"
     id="stop26" /><stop
     offset="1"
     style="stop-color:rgb(81,125,243);stop-opacity:1"
     id="stop25" /></linearGradient><linearGradient
   id="linearGradient22"
   x1="-0.4646129"
   y1="4.3104358"
   x2="-0.4646129"
   y2="-0.40518123"
   gradientUnits="userSpaceOnUse"
   gradientTransform="matrix(0,142.246,-142.246,0,628.373,-0.957886)"
   spreadMethod="pad"><stop
     offset="0"
     style="stop-color:rgb(44,88,238);stop-opacity:1"
     id="stop21" /><stop
     offset="0.49570447"
     style="stop-color:#3e6af0;stop-opacity:1;"
     id="stop23" /><stop
     offset="1"
     style="stop-color:rgb(81,125,243);stop-opacity:1"
     id="stop22" /></linearGradient><linearGradient
   id="linearGradient19"
   x1="-0.4646129"
   y1="4.3104358"
   x2="-0.4646129"
   y2="-0.40518123"
   gradientUnits="userSpaceOnUse"
   gradientTransform="matrix(0,142.246,-142.246,0,628.373,-0.957886)"
   spreadMethod="pad"><stop
     offset="0"
     style="stop-color:rgb(44,88,238);stop-opacity:1"
     id="stop18" /><stop
     offset="0.49656358"
     style="stop-color:#3e6af0;stop-opacity:1;"
     id="stop20" /><stop
     offset="1"
     style="stop-color:rgb(81,125,243);stop-opacity:1"
     id="stop19" /></linearGradient><linearGradient
   id="linearGradient16"
   x1="-0.4646129"
   y1="4.3104358"
   x2="-0.4646129"
   y2="-0.40518123"
   gradientUnits="userSpaceOnUse"
   gradientTransform="matrix(0,142.246,-142.246,0,628.373,-0.957886)"
   spreadMethod="pad"><stop
     offset="0"
     style="stop-color:rgb(44,88,238);stop-opacity:1"
     id="stop15" /><stop
     offset="0.50085908"
     style="stop-color:#3e6af0;stop-opacity:1;"
     id="stop17" /><stop
     offset="1"
     style="stop-color:rgb(81,125,243);stop-opacity:1"
     id="stop16" /></linearGradient><linearGradient
   id="linearGradient13"
   x1="-0.4646129"
   y1="4.3104358"
   x2="-0.4646129"
   y2="-0.40518123"
   gradientUnits="userSpaceOnUse"
   gradientTransform="matrix(8.71006e-15,142.246,-142.246,8.71006e-15,628.373,-0.957886)"><stop
     offset="0"
     style="stop-color:rgb(44,88,238);stop-opacity:1"
     id="stop12" /><stop
     offset="0.49312714"
     style="stop-color:#3e6af0;stop-opacity:1;"
     id="stop14" /><stop
     offset="1"
     style="stop-color:rgb(81,125,243);stop-opacity:1"
     id="stop13" /></linearGradient>
        <linearGradient
   id="_Linear1"
   x1="0"
   y1="0"
   x2="1"
   y2="0"
   gradientUnits="userSpaceOnUse"
   gradientTransform="matrix(1.20374e-14,196.585,-196.585,1.20374e-14,96.104,-0.203701)"><stop
     offset="0"
     style="stop-color:rgb(250,45,172);stop-opacity:0.99"
     id="stop4" /><stop
     offset="1"
     style="stop-color:rgb(75,39,160);stop-opacity:0.99"
     id="stop5" /></linearGradient>
        <linearGradient
   id="_Linear2"
   x1="0"
   y1="0"
   x2="1"
   y2="0"
   gradientUnits="userSpaceOnUse"
   gradientTransform="matrix(-3,197.032,-197.032,-3,40.077,1.0397)"><stop
     offset="0"
     style="stop-color:rgb(240,6,151);stop-opacity:1"
     id="stop6" /><stop
     offset="1"
     style="stop-color:rgb(60,31,129);stop-opacity:1"
     id="stop7" /></linearGradient>
        <linearGradient
   id="_Linear3"
   x1="-0.4646129"
   y1="4.3104358"
   x2="-0.4646129"
   y2="-0.40518123"
   gradientUnits="userSpaceOnUse"
   gradientTransform="matrix(8.71006e-15,142.246,-142.246,8.71006e-15,628.373,-0.957886)"
   xlink:href="#linearGradient70"><stop
     offset="0"
     style="stop-color:rgb(44,88,238);stop-opacity:1"
     id="stop8" /><stop
     offset="1"
     style="stop-color:rgb(81,125,243);stop-opacity:1"
     id="stop9" /></linearGradient>
        <linearGradient
   id="_Linear4"
   x1="-0.30577731"
   y1="3.2007155"
   x2="-0.30577731"
   y2="-1.5602756"
   gradientUnits="userSpaceOnUse"
   gradientTransform="matrix(8.62206e-15,140.809,-140.809,8.62206e-15,465.533,-1.91577)"
   xlink:href="#linearGradient82"><stop
     offset="0"
     style="stop-color:rgb(17,61,212);stop-opacity:1"
     id="stop10" /><stop
     offset="1"
     style="stop-color:rgb(36,91,240);stop-opacity:1"
     id="stop11" /></linearGradient>
    <linearGradient
   inkscape:collect="always"
   xlink:href="#linearGradient71"
   id="linearGradient73"
   x1="14.161127"
   y1="-68.73288"
   x2="686.05825"
   y2="-68.73288"
   gradientUnits="userSpaceOnUse" /><linearGradient
   inkscape:collect="always"
   xlink:href="#linearGradient83"
   id="linearGradient85"
   x1="14.161127"
   y1="-68.73288"
   x2="686.05825"
   y2="-68.73288"
   gradientUnits="userSpaceOnUse" /><linearGradient
   inkscape:collect="always"
   xlink:href="#linearGradient86"
   id="linearGradient88"
   x1="419.90631"
   y1="-75.907921"
   x2="419.90631"
   y2="1.5140462"
   gradientUnits="userSpaceOnUse"
   gradientTransform="translate(1111.5036,1479.69)" /><linearGradient
   inkscape:collect="always"
   xlink:href="#linearGradient89"
   id="linearGradient90"
   x1="378.57974"
   y1="-76.954163"
   x2="378.57974"
   y2="1.5140462"
   gradientUnits="userSpaceOnUse"
   gradientTransform="translate(1111.5036,1479.69)" /></defs>
</svg>
